<?xml version="1.0" encoding="utf-8"?>
<!-- Generator: Adobe Illustrator 18.0.0, SVG Export Plug-In . SVG Version: 6.00 Build 0)  -->
<!DOCTYPE svg PUBLIC "-//W3C//DTD SVG 1.1//EN" "http://www.w3.org/Graphics/SVG/1.1/DTD/svg11.dtd">
<svg version="1.1" id="Layer_1" xmlns="http://www.w3.org/2000/svg" xmlns:xlink="http://www.w3.org/1999/xlink" x="0px" y="0px"
	 width="55px" height="43.3px" viewBox="0 0 55 43.3" enable-background="new 0 0 55 43.3" xml:space="preserve">
<path fill="#055894" d="M27.7,2.8c1.4,0,6.4,0.2,12,3.2C40.5,6.4,41,7.2,41,8.1c1.9,1.2,3.6,2.7,5.1,4.5c0.7,0.7,1.3,1.5,1.9,2.4
	c1.1,1.5,2,3.2,2.8,5.1c0.2,0.4,0.1,0.8-0.1,1.2l-0.4,0.6c2.9,7.9,2.8,17-1.1,18.5c-0.5,0.2-0.9,0.3-1.3,0.3c-2.8,0-5-3.3-7.3-6.1
	c-0.2,0.2-0.5,0.3-0.7,0.3c0,0,0,0,0,0c-0.3,0-4.2-3.1-4.9-3.5c-0.1,0.1-0.2,0.2-0.4,0.3c-0.4,0.2-0.8,0.3-1.2,0.3H21.8
	c-0.4,0-0.8-0.1-1.2-0.3c-0.1-0.1-0.3-0.2-0.4-0.3c-0.8,0.3-4.7,3.6-5.1,3.6c0,0,0,0,0,0c-0.3,0-0.5-0.1-0.7-0.3
	c-2.2,2.7-4.4,5.9-7.1,5.9c-0.4,0-0.9-0.1-1.3-0.3c-3.9-1.5-4-10.5-1.1-18.4l-0.4-0.6C4.1,21,4,20.5,4.2,20.1C5,18.2,6,16.5,7,14.9
	c0.6-0.8,1.2-1.6,1.9-2.4c1.5-1.7,3.3-3.2,5.1-4.5c0-0.9,0.5-1.7,1.2-2.1c5.5-3,10.6-3.2,12-3.2c0.1,0,0.2,0,0.2,0
	C27.6,2.8,27.6,2.8,27.7,2.8 M27.7,0c-0.1,0-0.2,0-0.2,0c-0.1,0-0.1,0-0.2,0C25.7,0,20.1,0.3,14,3.5c-1.2,0.6-2.1,1.7-2.5,2.9
	c-1.7,1.2-3.3,2.7-4.7,4.3c-0.7,0.8-1.4,1.7-2.1,2.6C3.6,15,2.5,16.9,1.6,19c-0.4,1-0.4,2.2,0.1,3.2C0.5,26.1-0.1,30.1,0,33.6
	c0.2,4.9,2,8.2,4.9,9.3c0.8,0.3,1.5,0.4,2.3,0.4c3.6,0,6.1-2.9,8.3-5.7c0.9-0.1,1.6-0.6,3.6-2.2c0.4-0.3,0.8-0.6,1.3-0.9
	c0.4,0.1,0.9,0.2,1.4,0.2h11.5c0.5,0,0.9-0.1,1.4-0.2c0.4,0.3,0.8,0.6,1.2,0.9c2,1.5,2.7,2,3.6,2.1c2.2,2.8,4.8,5.8,8.4,5.8
	c0.8,0,1.6-0.1,2.3-0.4c2.9-1.1,4.7-4.4,4.9-9.3c0.2-3.5-0.4-7.6-1.7-11.4c0.5-1,0.5-2.2,0.1-3.2c-0.9-2.1-1.9-4-3.1-5.6
	c-0.6-0.9-1.3-1.8-2.1-2.6c-1.4-1.6-3-3-4.7-4.3c-0.4-1.2-1.3-2.3-2.5-2.9C34.9,0.3,29.3,0,27.7,0"/>
<path fill="#055894" d="M19.9,33.2c-0.3,0-0.6-0.2-0.7-0.5L12.6,7.6c-0.1-0.4,0.1-0.8,0.5-0.8c0.4-0.1,0.8,0.1,0.8,0.5l6.7,25.1
	c0.1,0.4-0.1,0.8-0.5,0.8C20,33.2,20,33.2,19.9,33.2z"/>
<path fill="#055894" d="M35.1,33.2c-0.1,0-0.1,0-0.2,0c-0.4-0.1-0.6-0.5-0.5-0.8l6.7-25.1c0.1-0.4,0.5-0.6,0.8-0.5
	c0.4,0.1,0.6,0.5,0.5,0.8l-6.7,25.1C35.6,33,35.4,33.2,35.1,33.2z"/>
<rect x="45.3" y="18.9" transform="matrix(0.7895 0.6137 -0.6137 0.7895 26.9784 -22.2769)" fill="#055894" width="1.4" height="18.5"/>
<rect x="-0.2" y="27.5" transform="matrix(0.6135 0.7897 -0.7897 0.6135 25.757 3.7573)" fill="#055894" width="18.5" height="1.4"/>
</svg>
