<?xml version="1.0" encoding="utf-8"?>
<!-- Generator: Adobe Illustrator 18.0.0, SVG Export Plug-In . SVG Version: 6.00 Build 0)  -->
<!DOCTYPE svg PUBLIC "-//W3C//DTD SVG 1.1//EN" "http://www.w3.org/Graphics/SVG/1.1/DTD/svg11.dtd">
<svg version="1.1" id="Layer_1" xmlns="http://www.w3.org/2000/svg" xmlns:xlink="http://www.w3.org/1999/xlink" x="0px" y="0px"
	 width="44px" height="45px" viewBox="0 0 44 45" enable-background="new 0 0 44 45" xml:space="preserve">
<g>
	<path fill="#055894" d="M19.4,13.7c-0.4,0-0.7-0.1-1-0.4c-0.5-0.5-0.5-1.4,0-2L28.9,0.8c1.2-1.2,2.9-1.1,4.3,0.4l1.9,1.9
		c0.5,0.5,0.5,1.4,0,2c-0.5,0.5-1.4,0.5-2,0l-1.9-1.9C31,3,30.9,2.9,30.8,2.8L20.4,13.3C20.1,13.6,19.7,13.7,19.4,13.7z"/>
	<path fill="#055894" d="M37.1,14.4c-0.2,0-0.4-0.1-0.5-0.2l-5.7-5.7c-0.3-0.3-0.3-0.7,0-1c0.3-0.3,0.7-0.3,1,0l5.7,5.7
		c0.3,0.3,0.3,0.7,0,1C37.5,14.3,37.3,14.4,37.1,14.4z"/>
	<path fill="#055894" d="M38.4,3.9c0.5,0,1,0.2,1.3,0.6l1,1c0.7,0.7,0.7,1.9,0,2.6L15.7,32.9c-0.4,0.4-0.8,0.5-1.3,0.5
		c-0.2,0-0.5-0.1-0.7-0.2l-3.1,3.1c0.1,0.7-0.3,1.5-1.2,2.5c-1.7,1.7-6.5,3.2-6.5,3.2s1.6-4.8,3.3-6.5c0.9-0.9,1.7-1.3,2.3-1.3
		c0.1,0,0.1,0,0.2,0l3.2-3.2c-0.3-0.7-0.2-1.5,0.4-2L37.1,4.4C37.4,4,37.9,3.9,38.4,3.9 M38.4,1.1c-1.2,0-2.4,0.5-3.3,1.3L10.1,27.4
		c-0.8,0.8-1.3,1.9-1.3,3l-1.5,1.5c-1.1,0.3-2.2,0.9-3.2,1.9c-2.1,2.1-3.6,6.7-3.9,7.6c-0.3,1-0.1,2.1,0.7,2.9
		c0.5,0.5,1.3,0.8,2,0.8c0.3,0,0.6,0,0.9-0.1c0.9-0.3,5.5-1.9,7.6-3.9c1-1,1.7-2.1,2-3.2l1.5-1.5c1.1-0.1,2.2-0.5,3-1.4L42.6,10
		c1.8-1.8,1.8-4.8,0-6.6l-1-1C40.8,1.6,39.6,1.1,38.4,1.1"/>
	<path fill="#055894" d="M14.1,35.4c-0.2,0-0.4-0.1-0.5-0.2l-3.8-3.8c-0.3-0.3-0.3-0.7,0-1c0.3-0.3,0.7-0.3,1,0l3.8,3.8
		c0.3,0.3,0.3,0.7,0,1C14.5,35.4,14.3,35.4,14.1,35.4z"/>
	<path fill="#055894" d="M12.1,37.5c-0.2,0-0.4-0.1-0.5-0.2l-3.8-3.8c-0.3-0.3-0.3-0.7,0-1c0.3-0.3,0.7-0.3,1,0l3.8,3.8
		c0.3,0.3,0.3,0.7,0,1C12.5,37.5,12.3,37.5,12.1,37.5z"/>
	<path fill="#055894" d="M38.4,3.9c0.5,0,1,0.2,1.3,0.6l1,1c0.7,0.7,0.7,1.9,0,2.6L15.7,32.9c-0.4,0.4-0.8,0.5-1.3,0.5
		c-0.2,0-0.5-0.1-0.7-0.2l-3.1,3.1c0.1,0.7-0.3,1.5-1.2,2.5c-1.7,1.7-6.5,3.2-6.5,3.2s1.6-4.8,3.3-6.5c0.9-0.9,1.7-1.3,2.3-1.3
		c0.1,0,0.1,0,0.2,0l3.2-3.2c-0.3-0.7-0.2-1.5,0.4-2L37.1,4.4C37.4,4,37.9,3.9,38.4,3.9 M38.4,2.5L38.4,2.5c-0.9,0-1.7,0.3-2.3,0.9
		L11.1,28.3c-0.7,0.7-1,1.6-0.9,2.6L8,33.1c-1,0.1-2,0.7-2.9,1.6c-1.9,1.9-3.4,6.5-3.6,7c-0.2,0.5,0,1.1,0.3,1.4
		c0.3,0.3,0.6,0.4,1,0.4c0.1,0,0.3,0,0.4-0.1c0.5-0.2,5.2-1.7,7-3.6c1-1,1.5-2,1.6-2.9l2.2-2.2c0.1,0,0.2,0,0.3,0
		c0.9,0,1.7-0.3,2.3-1L41.6,9c1.3-1.3,1.3-3.3,0-4.6l-1-1C40.1,2.8,39.2,2.5,38.4,2.5z"/>
</g>
</svg>
