<?xml version="1.0" encoding="utf-8"?>
<!-- Generator: Adobe Illustrator 18.0.0, SVG Export Plug-In . SVG Version: 6.00 Build 0)  -->
<!DOCTYPE svg PUBLIC "-//W3C//DTD SVG 1.1//EN" "http://www.w3.org/Graphics/SVG/1.1/DTD/svg11.dtd">
<svg version="1.1" id="Layer_1" xmlns="http://www.w3.org/2000/svg" xmlns:xlink="http://www.w3.org/1999/xlink" x="0px" y="0px"
	 width="68px" height="62.7px" viewBox="0 0 68 62.7" enable-background="new 0 0 68 62.7" xml:space="preserve">
<g>
	<path fill="#FFFFFF" d="M43.9,4l19.2,19.2c1.2,1.2,1.2,3,0,4.2l-8.7,8.7c-0.6,0.6-1.3,0.9-2.1,0.9c-0.8,0-1.5-0.3-2.1-0.9l-8.4-8.4
		L12.2,57.3c-0.9,0.9-2.2,1.4-3.4,1.4c-1.2,0-2.5-0.5-3.4-1.4c-1.9-1.9-1.9-4.9,0-6.8L35,20.9L24.5,10.3c-1.2-1.2-1.2-3,0-4.2
		l1.9-1.9c0.2,0.2,0.3,0.4,0.5,0.5c2.3,2.3,5.2,3.4,8.2,3.4c3,0,5.9-1.1,8.2-3.4C43.4,4.6,43.7,4.3,43.9,4 M43.9,0
		c-0.1,0-0.1,0-0.2,0c-1.1,0.1-2.2,0.6-2.9,1.4c-0.2,0.2-0.4,0.4-0.5,0.6C38.9,3.4,37,4.2,35,4.2c-2,0-3.9-0.8-5.3-2.2
		c-0.1-0.1-0.1-0.1-0.2-0.2c-0.1-0.1-0.1-0.1-0.2-0.2c-0.7-0.8-1.8-1.3-2.9-1.3c0,0-0.1,0-0.1,0c-1.1,0-2.1,0.4-2.8,1.2l-1.9,1.9
		c-1.3,1.3-2,3-2,4.9c0,1.9,0.7,3.6,2,4.9l7.7,7.7L2.6,47.6C0.9,49.3,0,51.5,0,53.9c0,2.4,0.9,4.6,2.6,6.2c1.7,1.7,3.9,2.6,6.2,2.6
		c2.4,0,4.6-0.9,6.2-2.6l26.8-26.8l5.6,5.6c1.3,1.3,3.1,2,4.9,2c1.9,0,3.6-0.7,4.9-2l8.7-8.7c1.3-1.3,2-3.1,2-4.9
		c0-1.9-0.7-3.6-2-4.9L46.7,1.2C46,0.4,45,0,43.9,0"/>
	
		<line fill="none" stroke="#FFFFFF" stroke-width="4" stroke-linecap="round" stroke-linejoin="round" stroke-miterlimit="10" x1="32.9" y1="20.2" x2="41.6" y2="28.9"/>
	
		<line fill="none" stroke="#FFFFFF" stroke-width="4" stroke-linecap="round" stroke-linejoin="round" stroke-miterlimit="10" x1="7.1" y1="45.6" x2="15.8" y2="54.2"/>
	
		<line fill="none" stroke="#FFFFFF" stroke-width="4" stroke-linecap="round" stroke-linejoin="round" stroke-miterlimit="10" x1="4.3" y1="48.3" x2="13" y2="57"/>
</g>
</svg>
