<?xml version="1.0" encoding="utf-8"?>
<!-- Generator: Adobe Illustrator 18.0.0, SVG Export Plug-In . SVG Version: 6.00 Build 0)  -->
<!DOCTYPE svg PUBLIC "-//W3C//DTD SVG 1.1//EN" "http://www.w3.org/Graphics/SVG/1.1/DTD/svg11.dtd">
<svg version="1.1" id="Layer_1" xmlns="http://www.w3.org/2000/svg" xmlns:xlink="http://www.w3.org/1999/xlink" x="0px" y="0px"
	 width="46px" height="45.9px" viewBox="0 0 46 45.9" enable-background="new 0 0 46 45.9" xml:space="preserve">
<g>
	<path fill="#055894" d="M1.4,45.9c-0.3,0-0.7-0.1-0.9-0.4c-0.6-0.5-0.6-1.5,0-2.1L7,37c0.6-0.6,1.5-0.5,2,0c0.5,0.6,0.4,1.5-0.1,2
		l-6.5,6.5C2.1,45.8,1.7,45.9,1.4,45.9"/>
	<path fill="#055894" d="M38.3,4.4l3.3,3.3l-6.4,6.4l0.8,0.8L14.3,36.7l-1.5-1.5l-2.6,2.6l-1.9-1.9l2.6-2.6l-1.5-1.5L31.1,9.9
		l0.8,0.8L38.3,4.4 M38.3,1.6c-0.7,0-1.4,0.3-2,0.8l-4.8,4.8c-0.2,0-0.3,0-0.5,0c-0.7,0-1.4,0.3-2,0.8L7.4,29.8
		c-0.9,0.9-1.1,2.4-0.4,3.5l-0.7,0.7c-0.5,0.5-0.8,1.2-0.8,2c0,0.7,0.3,1.4,0.8,2l1.9,1.9c0.5,0.5,1.2,0.8,2,0.8s1.4-0.3,2-0.8
		l0.7-0.7c0.4,0.3,1,0.4,1.5,0.4c0.7,0,1.4-0.3,2-0.8L38,16.9c0.7-0.7,0.9-1.6,0.8-2.4l4.8-4.8c0.5-0.5,0.8-1.2,0.8-2
		c0-0.7-0.3-1.4-0.8-2l-3.3-3.3C39.8,1.9,39.1,1.6,38.3,1.6"/>
	<path fill="#055894" d="M31.1,9.9l5,5L14.3,36.7l-5-5L31.1,9.9 M31.1,8.5c-0.4,0-0.7,0.1-1,0.4L8.3,30.7c-0.5,0.5-0.5,1.4,0,2l5,5
		c0.3,0.3,0.6,0.4,1,0.4c0.4,0,0.7-0.1,1-0.4L37,15.9c0.5-0.5,0.5-1.4,0-2l-5-5C31.8,8.7,31.5,8.5,31.1,8.5"/>
	<path fill="#055894" d="M44.6,10.1c-0.4,0-0.7-0.1-1-0.4l-7.3-7.3c-0.5-0.5-0.5-1.4,0-2c0.5-0.5,1.4-0.5,2,0l7.3,7.3
		c0.5,0.5,0.5,1.4,0,2C45.3,9.9,45,10.1,44.6,10.1z"/>
	<path fill="#055894" d="M30.4,15.5c-0.2,0-0.4-0.1-0.5-0.2l-2.4-2.4c-0.3-0.3-0.3-0.7,0-1c0.3-0.3,0.7-0.3,1,0l2.4,2.4
		c0.3,0.3,0.3,0.7,0,1C30.8,15.5,30.6,15.5,30.4,15.5z"/>
	<path fill="#055894" d="M27.5,16.2c-0.2,0-0.4-0.1-0.5-0.2l-1.4-1.4c-0.3-0.3-0.3-0.7,0-1c0.3-0.3,0.7-0.3,1,0L28,15
		c0.3,0.3,0.3,0.7,0,1C27.8,16.1,27.7,16.2,27.5,16.2z"/>
	<path fill="#055894" d="M25.7,18c-0.2,0-0.4-0.1-0.5-0.2l-1.4-1.4c-0.3-0.3-0.3-0.7,0-1c0.3-0.3,0.7-0.3,1,0l1.4,1.4
		c0.3,0.3,0.3,0.7,0,1C26,17.9,25.9,18,25.7,18z"/>
	<path fill="#055894" d="M25,20.9c-0.2,0-0.4-0.1-0.5-0.2l-2.4-2.4c-0.3-0.3-0.3-0.7,0-1c0.3-0.3,0.7-0.3,1,0l2.4,2.4
		c0.3,0.3,0.3,0.7,0,1C25.4,20.9,25.2,20.9,25,20.9z"/>
	<path fill="#055894" d="M22.1,21.6c-0.2,0-0.4-0.1-0.5-0.2L20.2,20c-0.3-0.3-0.3-0.7,0-1c0.3-0.3,0.7-0.3,1,0l1.4,1.4
		c0.3,0.3,0.3,0.7,0,1C22.4,21.5,22.3,21.6,22.1,21.6z"/>
	<path fill="#055894" d="M20.3,23.4c-0.2,0-0.4-0.1-0.5-0.2l-1.4-1.4c-0.3-0.3-0.3-0.7,0-1c0.3-0.3,0.7-0.3,1,0l1.4,1.4
		c0.3,0.3,0.3,0.7,0,1C20.6,23.3,20.5,23.4,20.3,23.4z"/>
	<path fill="#055894" d="M19.6,26.3c-0.2,0-0.4-0.1-0.5-0.2l-2.4-2.4c-0.3-0.3-0.3-0.7,0-1c0.3-0.3,0.7-0.3,1,0l2.4,2.4
		c0.3,0.3,0.3,0.7,0,1C20,26.3,19.8,26.3,19.6,26.3z"/>
	<path fill="#055894" d="M16.7,27c-0.2,0-0.4-0.1-0.5-0.2l-1.4-1.4c-0.3-0.3-0.3-0.7,0-1c0.3-0.3,0.7-0.3,1,0l1.4,1.4
		c0.3,0.3,0.3,0.7,0,1C17,26.9,16.9,27,16.7,27z"/>
	<path fill="#055894" d="M14.9,28.8c-0.2,0-0.4-0.1-0.5-0.2L13,27.2c-0.3-0.3-0.3-0.7,0-1c0.3-0.3,0.7-0.3,1,0l1.4,1.4
		c0.3,0.3,0.3,0.7,0,1C15.2,28.7,15.1,28.8,14.9,28.8z"/>
	<path fill="#055894" d="M14.2,31.7c-0.2,0-0.4-0.1-0.5-0.2l-2.4-2.4c-0.3-0.3-0.3-0.7,0-1c0.3-0.3,0.7-0.3,1,0l2.4,2.4
		c0.3,0.3,0.3,0.7,0,1C14.6,31.7,14.4,31.7,14.2,31.7z"/>
	<path fill="#055894" d="M34.1,12.6c-0.2,0-0.4-0.1-0.5-0.2c-0.3-0.3-0.3-0.7,0-1l6.2-6.2c0.3-0.3,0.7-0.3,1,0c0.3,0.3,0.3,0.7,0,1
		l-6.2,6.2C34.5,12.5,34.3,12.6,34.1,12.6z"/>
</g>
</svg>
