<?xml version="1.0" encoding="utf-8"?>
<!-- Generator: Adobe Illustrator 18.0.0, SVG Export Plug-In . SVG Version: 6.00 Build 0)  -->
<!DOCTYPE svg PUBLIC "-//W3C//DTD SVG 1.1//EN" "http://www.w3.org/Graphics/SVG/1.1/DTD/svg11.dtd">
<svg version="1.1" id="Layer_1" xmlns="http://www.w3.org/2000/svg" xmlns:xlink="http://www.w3.org/1999/xlink" x="0px" y="0px"
	 width="25.2px" height="28px" viewBox="0 0 25.2 28" enable-background="new 0 0 25.2 28" xml:space="preserve">
<g>
	<path fill="#FFFFFF" d="M14.2,9.8c-0.7,0.5-1.2,1-1.6,1.5c-0.4-0.5-0.9-1-1.6-1.5c0.5,0.1,1,0.1,1.6,0.1
		C13.1,9.9,13.6,9.9,14.2,9.8 M17.5,8.5L17.5,8.5L17.5,8.5z M17.5,8.5c0,0-2.7,0.7-5,0.7c-2.2,0-4.9-0.7-4.9-0.7s4.9,2.4,4.9,4.5
		C12.6,11,17.5,8.5,17.5,8.5"/>
	<path fill="#FFFFFF" d="M17.5,22.1C17.5,22.1,17.5,22.1,17.5,22.1H7.7c-0.1,0-0.2-0.1-0.3-0.2c-0.1-0.1,0-0.2,0-0.3
		c0.4-0.5,3.5-4.6,5.2-4.6c1.7,0,4.7,4,5.1,4.6c0.1,0.1,0.1,0.1,0.1,0.2C17.8,21.9,17.7,22.1,17.5,22.1z M8.3,21.4h8.5
		c-1.3-1.7-3.3-3.8-4.2-3.8C11.7,17.6,9.6,19.8,8.3,21.4z"/>
	<path fill="#FFFFFF" d="M12.2,14.2c0-0.2,0.1-0.3,0.3-0.3c0.2,0,0.3,0.1,0.3,0.3c0,0.2-0.1,0.3-0.3,0.3
		C12.4,14.5,12.2,14.3,12.2,14.2"/>
	<path fill="#FFFFFF" d="M12.2,15.2c0-0.2,0.1-0.3,0.3-0.3c0.2,0,0.3,0.1,0.3,0.3c0,0.2-0.1,0.3-0.3,0.3
		C12.4,15.5,12.2,15.4,12.2,15.2"/>
	<path fill="#FFFFFF" d="M22.7,1.3c0.6,0,1.2,0.5,1.2,1.2c0,0.5-0.3,0.9-0.7,1.1c0,0.1,0,0.2,0,0.2c0,0.6-0.5,1.1-1.1,1.1h-2.2v0.8
		c0,2.3-1.3,4.2-3.2,5.2l0,0c-1.2,0.6-2,1.8-2,3.2v0c0,1.4,0.8,2.6,2,3.2l0,0c1.9,0.9,3.2,2.9,3.2,5.2v0.8h2c0.6,0,1.1,0.5,1.1,1.1
		c0,0.1,0,0.1,0,0.2c0.5,0.2,0.8,0.6,0.8,1.1c0,0.6-0.5,1.2-1.2,1.2H2.5c-0.6,0-1.2-0.5-1.2-1.2c0-0.5,0.3-0.9,0.7-1.1
		c0-0.1,0-0.2,0-0.2c0-0.6,0.5-1.1,1.1-1.1h2.2v-0.8c0-2.3,1.3-4.2,3.2-5.2l0,0c1.2-0.6,2-1.8,2-3.2v0c0-1.4-0.8-2.6-2-3.2l0,0
		C6.6,9.9,5.3,7.9,5.3,5.6V4.9H3.3c-0.6,0-1.1-0.5-1.1-1.1c0-0.1,0-0.1,0-0.2C1.8,3.4,1.5,3,1.5,2.5c0-0.6,0.5-1.2,1.2-1.2H22.7
		 M22.7,0H2.6C1.3,0,0.2,1.1,0.2,2.5c0,0.7,0.3,1.4,0.8,1.9c0.3,1.1,1.2,1.9,2.4,1.9H4c0.2,2.5,1.6,4.7,3.9,5.8l0,0L8,12
		c0.7,0.3,1.2,1.1,1.2,2c0,0.9-0.5,1.6-1.2,2l0,0.1l0-0.1c-2.2,1.1-3.8,3.4-4,5.8H3.1c-1.2,0-2.2,0.9-2.4,2C0.3,24.2,0,24.9,0,25.5
		C0,26.9,1.1,28,2.5,28h20.1c1.4,0,2.5-1.1,2.5-2.5c0-0.7-0.3-1.4-0.8-1.9c-0.3-1.1-1.2-1.9-2.4-1.9h-0.7c-0.2-2.5-1.6-4.7-3.9-5.8
		l0,0l0,0c-0.7-0.3-1.2-1.1-1.2-2c0-0.9,0.5-1.6,1.2-2l0-0.1l0,0.1c2.2-1.1,3.8-3.4,4-5.8h0.9c1.2,0,2.2-0.9,2.4-2
		c0.4-0.5,0.7-1.1,0.7-1.7C25.2,1.1,24.1,0,22.7,0"/>
	<rect x="2.4" y="5.3" fill="#FFFFFF" width="1.3" height="17"/>
	<rect x="21.5" y="5.3" fill="#FFFFFF" width="1.3" height="17"/>
	<path fill="#FFFFFF" d="M20.2,5.5H5c-0.2,0-0.3-0.1-0.3-0.3S4.9,4.9,5,4.9h15.1c0.2,0,0.3,0.1,0.3,0.3S20.3,5.5,20.2,5.5z"/>
	<path fill="#FFFFFF" d="M20.2,23.2H5.1c-0.2,0-0.3-0.1-0.3-0.3c0-0.2,0.1-0.3,0.3-0.3h15.1c0.2,0,0.3,0.1,0.3,0.3
		C20.6,23,20.4,23.2,20.2,23.2z"/>
	<path fill="#FFFFFF" d="M23.1,24.5H1.9c-0.2,0-0.3-0.1-0.3-0.3c0-0.2,0.1-0.3,0.3-0.3h21.2c0.2,0,0.3,0.1,0.3,0.3
		C23.4,24.3,23.3,24.5,23.1,24.5z"/>
	<path fill="#FFFFFF" d="M23.2,4.1H2C1.9,4.1,1.7,4,1.7,3.8S1.9,3.5,2,3.5h21.2c0.2,0,0.3,0.1,0.3,0.3S23.4,4.1,23.2,4.1z"/>
</g>
</svg>
