<?xml version="1.0" encoding="utf-8"?>
<!-- Generator: Adobe Illustrator 18.0.0, SVG Export Plug-In . SVG Version: 6.00 Build 0)  -->
<!DOCTYPE svg PUBLIC "-//W3C//DTD SVG 1.1//EN" "http://www.w3.org/Graphics/SVG/1.1/DTD/svg11.dtd">
<svg version="1.1" id="Layer_1" xmlns="http://www.w3.org/2000/svg" xmlns:xlink="http://www.w3.org/1999/xlink" x="0px" y="0px"
	 width="32px" height="31.9px" viewBox="0 0 32 31.9" enable-background="new 0 0 32 31.9" xml:space="preserve">
<g>
	<path fill="#FFFFFF" d="M16.6,16.6L16.6,16.6l0-0.1C16.5,16.6,16.5,16.6,16.6,16.6"/>
	<path fill="#FFFFFF" d="M15.4,16.6L15.4,16.6c0.1,0,0.1,0,0.1-0.1L15.4,16.6z"/>
	<path fill="#FFFFFF" d="M31.1,23.3v-0.2c0,0.2-0.1,0.5-0.2,0.7C31,23.6,31.1,23.5,31.1,23.3"/>
	<path fill="#FFFFFF" d="M15.4,29.6v0.5c0,0.3,0.3,0.6,0.6,0.6c0.3,0,0.6-0.3,0.6-0.6v-0.5L16,29.9L15.4,29.6z"/>
	<path fill="#FFFFFF" d="M16,16.3l-0.5,0.3c0,0,0,0.1,0,0.1l0.1,0c0.2,0.1,0.3,0.1,0.5,0.1c0.2,0,0.3,0,0.5-0.1l0.1,0
		c0,0,0-0.1,0-0.1L16,16.3z"/>
	<path fill="#FFFFFF" d="M16.5,16.5c-0.1-0.2-0.3-0.4-0.5-0.4c-0.2,0-0.4,0.1-0.5,0.4l0.5-0.3L16.5,16.5z"/>
	<path fill="#FFFFFF" d="M32,8.8c0-0.8-0.4-1.5-1.1-1.8l-14-6.8C16.6,0.1,16.3,0,16,0c-0.3,0-0.6,0.1-0.9,0.2L1.1,7
		C0.4,7.3,0,8.1,0,8.8c0,0,0,0,0,0.1c0,0,0,0,0,0.1v14.3c0,0.4,0.2,0.8,0.4,1c0.2,0.2,0.4,0.4,0.7,0.6l14,6.8
		c0.3,0.1,0.6,0.2,0.9,0.2c0.3,0,0.6-0.1,0.9-0.2l14-6.8c0.3-0.1,0.5-0.3,0.7-0.6c0.3-0.3,0.4-0.6,0.4-1V9C32,8.9,32,8.9,32,8.8
		C32,8.9,32,8.9,32,8.8 M30,8.8l-9.8,4.8c0,0,0,0,0,0c0,0-0.1,0-0.1,0l-3.6-1.7c-0.2-0.1-0.3-0.1-0.5-0.1c-0.2,0-0.3,0-0.5,0.1
		l-3.6,1.7c0,0-0.1,0-0.1,0c0,0,0,0,0,0L2,8.8L16,2L30,8.8z M19.6,14.6v1.2v1.7l-1.7-0.8l-1.3-0.6v0v-2.9L19.6,14.6z M15.4,13.1V16
		v0l-1.3,0.6l-1.7,0.8v-1.7v-1.2L15.4,13.1z M15.4,21.5v8.1L2,23.1v-1.3V10.1l9.3,4.5c0,0,0,0,0,0v4.2v0.1c0,0,0,0.1,0,0.1
		c0.1,0.4,0.3,0.7,0.6,0.8L15.4,21.5z M12.4,18.8l3-1.5l0.3-0.2l0.2-0.1l0.2,0.1l0.3,0.2l3,1.5L16,20.5L12.4,18.8z M16.6,29.6v-8.1
		l3.5-1.7c0.3-0.2,0.6-0.5,0.6-0.8c0,0,0-0.1,0-0.1v-0.1v-4.2c0,0,0,0,0,0c0,0,0,0,0,0l9.3-4.5v11.7v1.3L16.6,29.6z"/>
</g>
</svg>
