<?xml version="1.0" encoding="utf-8"?>
<!-- Generator: Adobe Illustrator 19.2.0, SVG Export Plug-In . SVG Version: 6.00 Build 0)  -->
<svg version="1.1" id="Layer_1" xmlns="http://www.w3.org/2000/svg" xmlns:xlink="http://www.w3.org/1999/xlink" x="0px" y="0px"
	 width="33px" height="33px" viewBox="0 0 33 33" style="enable-background:new 0 0 33 33;" xml:space="preserve">
<style type="text/css">
	.st0{fill:#FFFFFF;}
</style>
<g>
	<g>
		<path class="st0" d="M8.1,33c-0.3,0-0.5-0.1-0.7-0.3c-0.4-0.4-0.4-1,0-1.4L31.3,7.4c0.4-0.4,1-0.4,1.4,0c0.4,0.4,0.4,1,0,1.4
			L8.8,32.7C8.6,32.9,8.4,33,8.1,33z"/>
		<path class="st0" d="M1,25.9c-0.3,0-0.5-0.1-0.7-0.3c-0.4-0.4-0.4-1,0-1.4L24.2,0.3c0.4-0.4,1-0.4,1.4,0c0.4,0.4,0.4,1,0,1.4
			L1.7,25.6C1.5,25.8,1.2,25.9,1,25.9z"/>
	</g>
	<g>
		<path class="st0" d="M29.8,10.2c-0.1,0-0.3,0-0.3-0.1l-6.8-6.8c-0.2-0.2-0.2-0.5,0-0.7c0.2-0.2,0.5-0.2,0.7,0l6.8,6.8
			c0.2,0.2,0.2,0.5,0,0.7C30,10.2,29.9,10.2,29.8,10.2z"/>
		<path class="st0" d="M25.8,14.2c-0.1,0-0.3,0-0.3-0.1l-6.8-6.8c-0.2-0.2-0.2-0.5,0-0.7c0.2-0.2,0.5-0.2,0.7,0l6.8,6.8
			c0.2,0.2,0.2,0.5,0,0.7C26,14.2,25.9,14.2,25.8,14.2z"/>
		<path class="st0" d="M21.8,18.3c-0.1,0-0.3,0-0.3-0.1l-6.8-6.8c-0.2-0.2-0.2-0.5,0-0.7c0.2-0.2,0.5-0.2,0.7,0l6.8,6.8
			c0.2,0.2,0.2,0.5,0,0.7C22,18.2,21.9,18.3,21.8,18.3z"/>
		<path class="st0" d="M17.8,22.3c-0.1,0-0.3,0-0.3-0.1l-6.8-6.8c-0.2-0.2-0.2-0.5,0-0.7c0.2-0.2,0.5-0.2,0.7,0l6.8,6.8
			c0.2,0.2,0.2,0.5,0,0.7C18,22.2,17.9,22.3,17.8,22.3z"/>
		<path class="st0" d="M13.8,26.3c-0.1,0-0.3,0-0.3-0.1l-6.8-6.8c-0.2-0.2-0.2-0.5,0-0.7c0.2-0.2,0.5-0.2,0.7,0l6.8,6.8
			c0.2,0.2,0.2,0.5,0,0.7C14,26.2,13.9,26.3,13.8,26.3z"/>
		<path class="st0" d="M9.7,30.3c-0.1,0-0.3,0-0.3-0.1l-6.8-6.8c-0.2-0.2-0.2-0.5,0-0.7c0.2-0.2,0.5-0.2,0.7,0l6.8,6.8
			c0.2,0.2,0.2,0.5,0,0.7C10,30.2,9.9,30.3,9.7,30.3z"/>
	</g>
</g>
</svg>
