<?xml version="1.0" encoding="utf-8"?>
<!-- Generator: Adobe Illustrator 19.2.0, SVG Export Plug-In . SVG Version: 6.00 Build 0)  -->
<svg version="1.1" id="Layer_2" xmlns="http://www.w3.org/2000/svg" xmlns:xlink="http://www.w3.org/1999/xlink" x="0px" y="0px"
	 width="28px" height="28px" viewBox="0 0 28 28" style="enable-background:new 0 0 28 28;" xml:space="preserve">
<style type="text/css">
	.st0{fill:#FFFFFF;}
</style>
<g>
	<path class="st0" d="M14.8,2.9"/>
	<path class="st0" d="M15.8,26.8c-1.7,0-6.6-3-7-4.9c0-0.1,0-0.2-0.1-0.3c0,0.1-0.1,0.2-0.1,0.4c-0.1,0.5-0.3,1.3-0.6,2
		c-0.1,0.2-0.2,0.2-0.4,0.2c0,0,0,0,0,0C7,24.2,5.9,23,5,21.5c-1.1-2-3.3-7.2,0.3-13.4c0,0,0,0,0,0C5.9,6.9,7.5,4.9,10.6,4
		c3.1-0.9,6.7-0.4,10.7,1.4c0.1,0,0.1,0.1,0.1,0.2c-0.4,1.5-1.8,2.2-2.5,2.4c1.4,0.5,5.6,2.1,7.2,5.1c0,0,0,0.1,0,0.1
		c0,0,0,0.1-0.1,0.1c-1.6,0.8-2.4,1.1-2.8,1.2c0.7,0.8,3.6,4.5,3.6,8.8c0,0.1,0,0.1-0.1,0.1c-0.7,0.3-1.5,0.4-2.4,0.4
		c-3.2,0-6.8-1.6-7.7-2c0,0.8,0.1,3.3-0.2,4.6C16.5,26.5,16.3,26.8,15.8,26.8C15.9,26.8,15.8,26.8,15.8,26.8z M8.8,21.2
		C8.8,21.2,8.8,21.2,8.8,21.2c0.2,0,0.2,0.2,0.3,0.7c0.4,1.8,5.2,4.7,6.7,4.7c0,0,0,0,0,0c0.4,0,0.4-0.2,0.4-0.2
		c0.3-1.4,0.2-4.7,0.2-4.7c0,0,0-0.1,0.1-0.1c0,0,0.1,0,0.1,0c0.1,0,6.2,3,9.9,1.7c-0.1-4.7-3.7-8.7-3.7-8.7c0,0,0-0.1,0-0.1
		c0,0,0.1-0.1,0.1-0.1c0,0,0.6,0,2.8-1.1c-1.8-3.4-7.3-5-7.4-5c-0.1,0-0.1-0.1-0.1-0.1c0-0.1,0-0.1,0.1-0.1c0,0,2.1-0.4,2.7-2.2
		C10.4,0.8,6.2,6.9,5.5,8.2c-3.5,6.1-1.4,11.2-0.3,13.1c0.9,1.6,2,2.6,2.5,2.6c0.1,0,0.1,0,0.2-0.1c0.3-0.6,0.5-1.4,0.6-1.9
		C8.6,21.4,8.6,21.2,8.8,21.2z"/>
	<path class="st0" d="M5,7.8c-0.1,0-0.2,0-0.3-0.1C3.5,7,0.9,4.9,0,0.8C-0.1,0.5,0.2,0.1,0.5,0c0.4-0.1,0.7,0.2,0.8,0.5
		c0.8,3.6,3.1,5.4,4,6c0.3,0.2,0.4,0.6,0.2,0.9C5.4,7.7,5.2,7.8,5,7.8z"/>
	<path class="st0" d="M26.8,23.6c-0.1,0-0.2-0.1-0.3-0.2c-6.8-11.3-15.7-13.1-15.8-13.2c-0.1,0-0.2-0.1-0.3-0.3c0-0.1-0.1-1,1-2.7
		C8.8,6.7,7.1,7.2,6.2,7.5C6,7.5,5.9,7.6,5.8,7.6c-0.2,0-0.4-0.1-0.4-0.3C5.3,7.2,5.4,7,5.6,7c0.1,0,0.2-0.1,0.4-0.1
		c1.1-0.3,3-0.9,6.1,0c0.1,0,0.2,0.1,0.2,0.2c0,0.1,0,0.2,0,0.3c-0.9,1.2-1.1,2-1.1,2.3c0.7,0.2,2.7,0.8,5.2,2.3
		c2.9,1.7,7.1,5.1,10.7,11.1c0.1,0.2,0,0.4-0.1,0.5C26.9,23.6,26.8,23.6,26.8,23.6z"/>
	<path class="st0" d="M13.7,3.7c2.1,0,4.6,0.5,7.5,1.9c-0.6,2-2.8,2.4-2.8,2.4s5.7,1.7,7.5,5.2c-2.3,1.2-2.9,1.2-3,1.2c0,0,0,0,0,0
		s3.7,4,3.7,8.9c-0.7,0.3-1.5,0.4-2.3,0.4c-3.6,0-7.8-2.1-7.8-2.1s0.1,3.3-0.2,4.8c0,0.2-0.2,0.3-0.6,0.3c-1.7,0-6.5-2.9-6.9-4.8
		c-0.1-0.4-0.1-0.6-0.2-0.6c-0.2,0-0.3,1.5-0.8,2.6c-0.1,0.1-0.2,0.2-0.3,0.2c-1.5,0-7.2-7.5-2.3-15.9C6.6,6,9.3,3.7,13.7,3.7
		 M13.7,2.3c-4.1,0-7.6,1.9-9.5,5.1c-1.5,2.6-2.2,5.4-2.1,8.2c0.1,2.8,1,5,1.7,6.3c0.9,1.7,2.4,3.5,3.8,3.5c0.6,0,1.2-0.3,1.5-0.9
		c0,0,0,0,0,0c0.6,0.6,1.4,1.2,2.1,1.6c1.4,0.9,3.3,1.9,4.6,1.9c1.2,0,1.7-0.8,1.8-1.4c0.2-0.8,0.2-2,0.2-3c1.7,0.6,4.1,1.4,6.5,1.4
		c1,0,2-0.1,2.8-0.4c0.5-0.2,0.9-0.7,0.9-1.3c0-3.5-1.7-6.5-2.9-8.2c0.4-0.2,0.9-0.4,1.4-0.7c0.3-0.2,0.6-0.5,0.7-0.8
		c0.1-0.3,0.1-0.7-0.1-1c-1.2-2.3-3.7-3.9-5.6-4.8c0.4-0.5,0.8-1.1,1-1.8c0.2-0.6-0.1-1.3-0.7-1.6C18.9,3,16.2,2.3,13.7,2.3
		L13.7,2.3z"/>
	<path class="st0" d="M25.9,13.4c0,0-0.1,0-0.1,0c-5.4-2.6-10.7-1.6-10.7-1.6c-0.2,0-0.3-0.1-0.4-0.3s0.1-0.4,0.3-0.4
		c0.2,0,5.5-1.1,11.1,1.6c0.2,0.1,0.2,0.3,0.2,0.4C26.2,13.3,26,13.4,25.9,13.4z"/>
	<path class="st0" d="M13.4,22.5c-0.1,0-0.2-0.1-0.3-0.2c-2.9-4.6-2.7-8.9-2.7-9.1c0-0.2,0.2-0.3,0.3-0.3c0.2,0,0.3,0.2,0.3,0.4
		c0,0-0.1,4.3,2.6,8.7c0.1,0.2,0.1,0.4-0.1,0.5C13.5,22.5,13.5,22.5,13.4,22.5z"/>
</g>
</svg>
