<?xml version="1.0" encoding="utf-8"?>
<!-- Generator: Adobe Illustrator 18.0.0, SVG Export Plug-In . SVG Version: 6.00 Build 0)  -->
<!DOCTYPE svg PUBLIC "-//W3C//DTD SVG 1.1//EN" "http://www.w3.org/Graphics/SVG/1.1/DTD/svg11.dtd">
<svg version="1.1" id="Layer_1" xmlns="http://www.w3.org/2000/svg" xmlns:xlink="http://www.w3.org/1999/xlink" x="0px" y="0px"
	 width="42px" height="52.1px" viewBox="0 0 42 52.1" enable-background="new 0 0 42 52.1" xml:space="preserve">
<g>
	<path fill="#055894" d="M18.1,34c0-1.3,1.1-2.4,2.4-2.4c1.3,0,2.4,1.1,2.4,2.4c0,1.3-1.1,2.4-2.4,2.4C19.2,36.4,18.1,35.3,18.1,34"
		/>
	<path fill="#055894" d="M20.5,37.3c-1.8,0-3.3-1.5-3.3-3.3c0-1.8,1.5-3.3,3.3-3.3c1.8,0,3.3,1.5,3.3,3.3
		C23.8,35.8,22.3,37.3,20.5,37.3z M20.5,32.5c-0.8,0-1.5,0.7-1.5,1.5c0,0.8,0.7,1.5,1.5,1.5c0.8,0,1.5-0.7,1.5-1.5
		C22,33.2,21.3,32.5,20.5,32.5z"/>
	<path fill="#055894" d="M20.5,40.9L20.5,40.9c-0.4,0-0.6-0.3-0.6-0.6v-6c0-0.4,0.3-0.6,0.6-0.6v3.7c0.4,0,0.6-3.4,0.6-3.1v6
		C21.1,40.6,20.8,40.9,20.5,40.9"/>
	<path fill="#055894" d="M20.5,41.8c-0.8,0-1.5-0.7-1.5-1.5v-6c0-0.8,0.7-1.5,1.5-1.5c0.4,0,0.7,0.3,0.9,0.6
		c0.4,0.1,0.7,0.5,0.7,0.9v6C22,41.1,21.3,41.8,20.5,41.8z"/>
	<path fill="#055894" d="M36.2,52.1H5.8c-3.2,0-5.8-2.6-5.8-5.8V26.1c0-3.2,2.6-5.8,5.8-5.8h1.8v-6.9C7.6,6,13.6,0,20.9,0
		s13.3,6,13.3,13.3v6.9h1.9c3.2,0,5.8,2.6,5.8,5.8v20.2C42,49.5,39.4,52.1,36.2,52.1z M5.8,23.8c-1.3,0-2.3,1-2.3,2.3v20.2
		c0,1.3,1,2.3,2.3,2.3h30.4c1.3,0,2.3-1,2.3-2.3V26.1c0-1.3-1-2.3-2.3-2.3h-3.7c-1,0-1.8-0.8-1.8-1.8v-8.7c0-5.4-4.4-9.8-9.8-9.8
		c-5.4,0-9.8,4.4-9.8,9.8V22c0,1-0.8,1.8-1.8,1.8H5.8z"/>
	<path fill="#055894" d="M27.6,23.8c-0.5,0-0.9-0.4-0.9-0.9v-9.5c0-3.2-2.6-5.8-5.8-5.8c-3.2,0-5.8,2.6-5.8,5.8v9.5
		c0,0.5-0.4,0.9-0.9,0.9s-0.9-0.4-0.9-0.9v-9.5c0-4.2,3.4-7.6,7.6-7.6c4.2,0,7.6,3.4,7.6,7.6v9.5C28.5,23.4,28.1,23.8,27.6,23.8z"/>
	<path fill="#055894" d="M38.7,23.9L38.7,23.9l-34.8,0c-0.5,0-0.9-0.4-0.9-0.9c0-0.5,0.4-0.9,0.9-0.9l0,0l34.8,0
		c0.5,0,0.9,0.4,0.9,0.9C39.6,23.5,39.2,23.9,38.7,23.9z"/>
</g>
</svg>
