<?xml version="1.0" encoding="utf-8"?>
<!-- Generator: Adobe Illustrator 18.0.0, SVG Export Plug-In . SVG Version: 6.00 Build 0)  -->
<!DOCTYPE svg PUBLIC "-//W3C//DTD SVG 1.1//EN" "http://www.w3.org/Graphics/SVG/1.1/DTD/svg11.dtd">
<svg version="1.1" id="Layer_1" xmlns="http://www.w3.org/2000/svg" xmlns:xlink="http://www.w3.org/1999/xlink" x="0px" y="0px"
	 width="50px" height="47.3px" viewBox="0 0 50 47.3" enable-background="new 0 0 50 47.3" xml:space="preserve">
<g>
	<path fill="#055894" d="M25,2.4l22.6,18.6h-4.2c0,0.2,0.1,0.4,0.1,0.6v19.8c0,1.8-1.5,3.3-3.3,3.3H9.9c-1.8,0-3.3-1.5-3.3-3.3V21.7
		c0-0.2,0-0.4,0.1-0.6H2.4l4.1-3.4V8.8h3.6v5.9L25,2.4 M25,0c-0.6,0-1.1,0.2-1.6,0.6L12.6,9.5V8.8c0-1.3-1.1-2.4-2.4-2.4H6.6
		c-1.3,0-2.4,1.1-2.4,2.4v7.7l-3.2,2.7c-0.8,0.7-1.1,1.7-0.7,2.7c0.3,1,1.3,1.6,2.3,1.6h1.7v18c0,3.2,2.6,5.7,5.7,5.7h30.3
		c3.2,0,5.7-2.6,5.7-5.7v-18h1.7c1,0,1.9-0.6,2.3-1.6c0.3-1,0.1-2-0.7-2.7L26.6,0.6C26.1,0.2,25.6,0,25,0"/>
	<path fill="#055894" d="M30,47.2H19.7c-0.4,0-0.7-0.3-0.7-0.7V32.1c0-1.9,1.5-3.4,3.4-3.4h4.9c1.9,0,3.4,1.5,3.4,3.4v14.3
		C30.7,46.8,30.4,47.2,30,47.2z M20.4,45.8h8.9V32.1c0-1.1-0.9-2-2-2h-4.9c-1.1,0-2,0.9-2,2V45.8z"/>
	<path fill="#055894" d="M5.2,23.1c-0.2,0-0.4-0.1-0.5-0.3c-0.2-0.3-0.2-0.7,0.1-1L24.6,5.6c0.3-0.2,0.6-0.2,0.9,0l19.8,16.4
		c0.3,0.2,0.3,0.7,0.1,1c-0.2,0.3-0.7,0.3-1,0.1L25,7L5.7,23C5.5,23.1,5.4,23.1,5.2,23.1z"/>
	<path fill="#055894" d="M38.5,37h-2.8c-1.4,0-2.6-1.2-2.6-2.6v-2.8c0-1.4,1.2-2.6,2.6-2.6h2.8c1.4,0,2.6,1.2,2.6,2.6v2.8
		C41.1,35.9,40,37,38.5,37z M35.7,30.4c-0.7,0-1.2,0.5-1.2,1.2v2.8c0,0.7,0.5,1.2,1.2,1.2h2.8c0.7,0,1.2-0.5,1.2-1.2v-2.8
		c0-0.7-0.5-1.2-1.2-1.2H35.7z"/>
	<path fill="#055894" d="M14.3,37h-2.8c-1.4,0-2.6-1.2-2.6-2.6v-2.8c0-1.4,1.2-2.6,2.6-2.6h2.8c1.4,0,2.6,1.2,2.6,2.6v2.8
		C16.9,35.9,15.7,37,14.3,37z M11.5,30.4c-0.7,0-1.2,0.5-1.2,1.2v2.8c0,0.7,0.5,1.2,1.2,1.2h2.8c0.7,0,1.2-0.5,1.2-1.2v-2.8
		c0-0.7-0.5-1.2-1.2-1.2H11.5z"/>
	<path fill="#055894" d="M24,39.5h-1.7c-0.4,0-0.7-0.3-0.7-0.7s0.3-0.7,0.7-0.7H24c0.4,0,0.7,0.3,0.7,0.7S24.4,39.5,24,39.5z"/>
	<path fill="#055894" d="M43.4,22.4H6.6c-0.4,0-0.7-0.3-0.7-0.7c0-0.4,0.3-0.7,0.7-0.7h36.9c0.4,0,0.7,0.3,0.7,0.7
		C44.1,22.1,43.8,22.4,43.4,22.4z"/>
	<path fill="#055894" d="M38.8,18.5H11.2c-0.4,0-0.7-0.3-0.7-0.7s0.3-0.7,0.7-0.7h27.6c0.4,0,0.7,0.3,0.7,0.7S39.2,18.5,38.8,18.5z"
		/>
	<path fill="#055894" d="M34.1,14.5H15.9c-0.4,0-0.7-0.3-0.7-0.7s0.3-0.7,0.7-0.7h18.3c0.4,0,0.7,0.3,0.7,0.7S34.5,14.5,34.1,14.5z"
		/>
	<path fill="#055894" d="M29.4,10.5h-8.8c-0.4,0-0.7-0.3-0.7-0.7s0.3-0.7,0.7-0.7h8.8c0.4,0,0.7,0.3,0.7,0.7S29.8,10.5,29.4,10.5z"
		/>
</g>
</svg>
