<?xml version="1.0" encoding="utf-8"?>
<!-- Generator: Adobe Illustrator 18.0.0, SVG Export Plug-In . SVG Version: 6.00 Build 0)  -->
<!DOCTYPE svg PUBLIC "-//W3C//DTD SVG 1.1//EN" "http://www.w3.org/Graphics/SVG/1.1/DTD/svg11.dtd">
<svg version="1.1" id="Layer_1" xmlns="http://www.w3.org/2000/svg" xmlns:xlink="http://www.w3.org/1999/xlink" x="0px" y="0px"
	 width="48px" height="52.7px" viewBox="0 0 48 52.7" enable-background="new 0 0 48 52.7" xml:space="preserve">
<g>
	<path fill="#055894" d="M24,1.4c5.5,0,9.6,3.1,11.6,4.9c2.9,2.7,4.8,6.1,4.8,8.7c0,2.5-1.8,4.3-5.3,5.3c-1.8,0.5-4.1,0.8-6.9,1v3.4
		h9.7c0.5,0,1,0.1,1.5,0.3v-0.7c-1.1-0.3-2-0.9-2-2.2c0-1.8,2-3.2,4.6-3.2c2.6,0,4.6,1.4,4.6,3.2c0,1.3-0.9,1.9-2,2.2V27
		c0,3.1-1.9,5.7-4.6,6.8c-0.6,0.3-1.3,0.5-2.1,0.5h-0.5c0,0,0,0,0,0h-6.3v0h-2.9v7.8c7.7,0.8,13.4,3.8,13.4,5.2c0,0.1,0,0.1,0,0.2
		c0,0,0,0,0,0c0,0,0,0.1,0,0.1c0,0,0,0,0,0c0,0,0,0-0.1,0.1c0,0,0,0-0.1,0c0,0-0.1,0-0.1,0c0,0-0.1,0-0.1,0c0,0-0.1,0-0.1,0
		c0,0-0.1,0-0.1,0c0,0-0.1,0-0.1,0c0,0-0.1,0-0.1,0c0,0-0.1,0-0.1,0c0,0-0.1,0-0.1,0c0,0-0.1,0-0.1,0c0,0-0.1,0-0.1,0
		c0,0-0.1,0-0.1,0c-0.1,0-0.2,0-0.2,0c0,0,0,0-0.1,0c-0.1,0-0.2,0-0.3,0c0,0-0.1,0-0.1,0c-0.1,0-0.2,0-0.3,0c0,0-0.1,0-0.1,0
		c-0.1,0-0.2,0-0.3,0c0,0-0.1,0-0.1,0c-0.1,0-0.3,0-0.4-0.1c0,0-0.1,0-0.1,0c-0.1,0-0.3,0-0.4-0.1c-0.1,0-0.1,0-0.2,0
		c-0.1,0-0.2,0-0.4-0.1c-0.1,0-0.1,0-0.2,0c-0.2,0-0.3-0.1-0.5-0.1c-0.1,0-0.1,0-0.2,0c-0.2,0-0.3-0.1-0.5-0.1c-0.1,0-0.3,0-0.4-0.1
		c-0.1,0-0.1,0-0.2,0c-0.2,0-0.3-0.1-0.5-0.1c0,0-0.1,0-0.1,0c-0.2,0-0.4-0.1-0.6-0.1c-0.1,0-0.1,0-0.2,0c-0.2,0-0.3,0-0.5-0.1
		c-0.1,0-0.1,0-0.2,0c-0.2,0-0.4-0.1-0.5-0.1c0,0-0.1,0-0.1,0c-0.2,0-0.4-0.1-0.7-0.1c-0.1,0-0.1,0-0.2,0c-0.2,0-0.4,0-0.5-0.1
		c-0.1,0-0.2,0-0.2,0c-0.2,0-0.4,0-0.5-0.1c-0.1,0-0.1,0-0.2,0c-0.2,0-0.5,0-0.7-0.1c-0.1,0-0.1,0-0.2,0c-0.2,0-0.4,0-0.6-0.1
		c-0.1,0-0.2,0-0.2,0c-0.2,0-0.4,0-0.6,0c-0.1,0-0.1,0-0.2,0c-0.2,0-0.4,0-0.6,0c0,0.1,0,0.1,0,0.2c0,1-0.3,2.2-0.8,3.1
		c-0.6,1.1-1.3,1.7-2.2,1.7s-1.6-0.6-2.2-1.7c-0.5-0.9-0.8-2.1-0.8-3.1c0-0.1,0-0.1,0-0.2c-0.2,0-0.4,0-0.5,0c-0.1,0-0.1,0-0.2,0
		c-0.2,0-0.4,0-0.6,0c-0.1,0-0.2,0-0.2,0c-0.2,0-0.4,0-0.6,0.1c0,0-0.1,0-0.1,0c-0.2,0-0.5,0-0.7,0.1c-0.1,0-0.1,0-0.2,0
		c-0.2,0-0.4,0-0.6,0.1c-0.1,0-0.1,0-0.2,0c-0.2,0-0.4,0-0.6,0.1c-0.1,0-0.1,0-0.2,0c-0.2,0-0.5,0.1-0.7,0.1c0,0-0.1,0-0.1,0
		c-0.2,0-0.4,0.1-0.6,0.1c-0.1,0-0.1,0-0.2,0c-0.2,0-0.4,0.1-0.5,0.1c0,0-0.1,0-0.1,0c-0.4,0.1-0.9,0.1-1.3,0.2c0,0-0.1,0-0.1,0
		c-0.5,0.1-0.9,0.1-1.3,0.2c-0.1,0-0.2,0-0.3,0.1c-0.1,0-0.1,0-0.2,0c-0.1,0-0.2,0-0.3,0c-0.1,0-0.1,0-0.2,0c-0.1,0-0.2,0-0.4,0.1
		c0,0-0.1,0-0.1,0c-0.1,0-0.3,0-0.4,0.1c0,0-0.1,0-0.1,0c-0.1,0-0.2,0-0.3,0c0,0-0.1,0-0.1,0c-0.1,0-0.2,0-0.3,0c0,0-0.1,0-0.1,0
		c-0.1,0-0.2,0-0.3,0c0,0,0,0-0.1,0c-0.1,0-0.2,0-0.2,0c0,0-0.1,0-0.1,0c0,0-0.1,0-0.1,0c0,0-0.1,0-0.1,0c0,0-0.1,0-0.1,0
		c-0.1,0-0.1,0-0.1,0c0,0-0.1,0-0.1,0c0,0-0.1,0-0.1,0c0,0-0.1,0-0.1,0c0,0-0.1,0-0.1,0c0,0-0.1,0-0.1,0c0,0-0.1,0-0.1,0
		c0,0,0,0-0.1,0c0,0,0,0-0.1-0.1c0,0,0,0,0,0c0,0,0-0.1,0-0.1c0,0,0,0,0,0c0,0,0-0.1,0-0.2c0-1.4,5.7-4.3,13.4-5.2v-7.8h-2.9v0h-6.3
		c0,0,0,0,0,0h-0.5c-0.8,0-1.5-0.2-2.1-0.5c-2.7-1.1-4.6-3.7-4.6-6.8v-2.7c-1.1-0.3-2-0.9-2-2.2c0-1.8,2-3.2,4.6-3.2
		c2.6,0,4.6,1.4,4.6,3.2c0,1.3-0.9,1.9-2,2.2V25c0.5-0.2,1-0.3,1.5-0.3h9.7v-3.4c-2.8-0.2-5.1-0.5-6.9-1c-3.5-1-5.3-2.8-5.3-5.3
		c0-2.5,1.9-5.9,4.8-8.7C14.4,4.5,18.5,1.4,24,1.4 M24,0c-5.9,0-10.4,3.3-12.5,5.3c-3.2,3-5.3,6.7-5.3,9.7c0,0.8,0.1,1.7,0.6,2.6
		c-0.3,0-0.5,0-0.8,0c-3.3,0-6,2-6,4.6c0,1.4,0.7,2.5,2,3.1V27c0,3.5,2.2,6.8,5.5,8.1c0.8,0.4,1.7,0.6,2.7,0.6h0.5l0,0h0h6.3h1.5
		v5.2c-3.1,0.4-6.2,1.3-8.7,2.3c-1.2,0.5-4.7,2-4.7,4.1c0,0.2,0,0.4,0.1,0.6c0,0.1,0.1,0.2,0.1,0.2c0,0.1,0.1,0.2,0.2,0.3
		c0.1,0.1,0.1,0.2,0.2,0.2c0,0,0.1,0.1,0.2,0.2C5.9,48.8,6,48.8,6,48.9c0,0,0.1,0.1,0.2,0.1c0.1,0,0.1,0,0.2,0.1
		c0.1,0,0.1,0,0.2,0.1c0.1,0,0.1,0,0.2,0c0.1,0,0.1,0,0.2,0c0,0,0.1,0,0.2,0c0.1,0,0.1,0,0.2,0c0,0,0.1,0,0.2,0c0,0,0.1,0,0.1,0
		c0,0,0.1,0,0.1,0l0,0c0,0,0.1,0,0.1,0c0.1,0,0.2,0,0.3,0l0,0l0,0l0.1,0c0.1,0,0.2,0,0.4,0l0.1,0l0,0c0.1,0,0.2,0,0.3,0l0.1,0
		c0.1,0,0.2,0,0.3,0l0.1,0c0.1,0,0.3,0,0.4-0.1l0.1,0l0,0c0.1,0,0.2,0,0.4-0.1l0.2,0l0.1,0l0.2,0l0.1,0l0.1,0l0.2,0l0.2,0l0.4-0.1
		l0.9-0.1l0.1,0l0,0c0.4-0.1,0.8-0.1,1.3-0.2l0.1,0c0.2,0,0.3-0.1,0.5-0.1l0.2,0c0.2,0,0.4-0.1,0.6-0.1l0,0l0,0
		c0.2,0,0.5-0.1,0.7-0.1l0.1,0l0.1,0c0.2,0,0.4,0,0.5-0.1l0.1,0l0.1,0c0.2,0,0.4,0,0.6-0.1l0.1,0l0,0c0.2,0,0.5,0,0.7-0.1l0.1,0
		l0.1,0c0.2,0,0.4,0,0.6-0.1l0.1,0l0.1,0c0.1,0.9,0.4,1.7,0.8,2.5c1.1,2.2,2.6,2.5,3.4,2.5c0.8,0,2.3-0.3,3.4-2.5
		c0.4-0.8,0.7-1.6,0.8-2.5l0.2,0c0.2,0,0.4,0,0.6,0.1l0.1,0l0.1,0c0.2,0,0.5,0,0.7,0.1l0.1,0l0.1,0c0.2,0,0.4,0,0.5,0.1l0.1,0l0.1,0
		c0.2,0,0.3,0,0.5,0.1l0.1,0l0.1,0c0.2,0,0.4,0.1,0.7,0.1l0,0l0.1,0c0.2,0,0.4,0,0.5,0.1l0.1,0l0.1,0c0.2,0,0.3,0,0.5,0.1l0,0l0.1,0
		c0.2,0,0.4,0.1,0.6,0.1l0,0l0.1,0l0.5,0.1l0.1,0l0.1,0l0.4,0.1l0.1,0l0.4,0.1l0.1,0l0.1,0l0.5,0.1l0.1,0l0.1,0l0.1,0l0.2,0l0.1,0
		l0,0c0.1,0,0.3,0,0.4,0.1l0,0l0.1,0c0.2,0,0.3,0,0.4,0.1l0,0l0,0l0.1,0c0.1,0,0.2,0,0.3,0l0.1,0c0.1,0,0.2,0,0.3,0l0,0l0.1,0
		c0.1,0,0.3,0,0.4,0l0.1,0l0,0l0,0c0.1,0,0.2,0,0.3,0c0,0,0.1,0,0.1,0l0,0c0,0,0.1,0,0.1,0c0,0,0.1,0,0.1,0c0.1,0,0.1,0,0.2,0
		c0.1,0,0.1,0,0.2,0c0.1,0,0.1,0,0.2,0c0.1,0,0.1,0,0.2,0c0.1,0,0.1,0,0.2,0c0.1,0,0.1,0,0.2-0.1l-0.4-1.3l0.4,1.3
		c0.1,0,0.1,0,0.2-0.1c0.1,0,0.2-0.1,0.2-0.1c0,0,0.1-0.1,0.2-0.1c0.1-0.1,0.2-0.2,0.2-0.2c0,0,0.1-0.1,0.2-0.2
		c0.1-0.1,0.1-0.2,0.2-0.3c0-0.1,0.1-0.1,0.1-0.2c0.1-0.2,0.1-0.4,0.1-0.6c0-2.1-3.5-3.6-4.7-4.1c-2.5-1.1-5.6-1.9-8.7-2.3v-5.2h1.5
		l6.3,0h0l0,0h0.5c0.9,0,1.8-0.2,2.7-0.6c3.3-1.3,5.5-4.5,5.5-8.1v-1.8c1.3-0.6,2-1.7,2-3.1c0-2.6-2.6-4.6-6-4.6c-0.3,0-0.5,0-0.8,0
		c0.4-0.9,0.6-1.8,0.6-2.6c0-2.9-2-6.6-5.3-9.7C34.4,3.3,29.9,0,24,0 M11.7,23.4c0.1-0.4,0.2-0.8,0.2-1.3c0-0.2,0-0.4-0.1-0.6
		c0.2,0.1,0.4,0.1,0.6,0.2c1.6,0.5,3.5,0.8,5.9,1v0.7H11.7z M29.6,22.6c2.4-0.2,4.3-0.5,5.9-1c0.2-0.1,0.4-0.1,0.6-0.2
		c0,0.2-0.1,0.4-0.1,0.6c0,0.5,0.1,0.9,0.2,1.3h-6.7V22.6z"/>
	<path fill="#055894" d="M20.3,25.7c-0.4,0-0.7-0.3-0.7-0.7v-4c0-0.4,0.3-0.7,0.7-0.7c0.4,0,0.7,0.3,0.7,0.7v4
		C21,25.4,20.7,25.7,20.3,25.7z"/>
	<path fill="#055894" d="M20.3,43.4c-0.4,0-0.7-0.3-0.7-0.7v-8.7c0-0.4,0.3-0.7,0.7-0.7c0.4,0,0.7,0.3,0.7,0.7v8.7
		C21,43,20.7,43.4,20.3,43.4z"/>
	<path fill="#055894" d="M27.7,43.1c-0.4,0-0.7-0.3-0.7-0.7v-8c0-0.4,0.3-0.7,0.7-0.7s0.7,0.3,0.7,0.7v8
		C28.4,42.8,28,43.1,27.7,43.1z"/>
	<path fill="#055894" d="M27.7,25.8c-0.4,0-0.7-0.3-0.7-0.7V21c0-0.4,0.3-0.7,0.7-0.7s0.7,0.3,0.7,0.7v4.1
		C28.4,25.5,28,25.8,27.7,25.8z"/>
	<path fill="#055894" d="M24,2.5c8.4,0,15.3,8.2,15.3,12.5c0,4.3-6.8,5.3-15.3,5.3c-8.4,0-15.3-1.1-15.3-5.3
		C8.7,10.7,15.6,2.5,24,2.5 M24,1.1c-5.6,0-9.8,3.2-11.8,5c-3,2.8-4.9,6.3-4.9,8.9c0,3.3,3,4.9,5.5,5.6c2.6,0.8,6.3,1.1,11.2,1.1
		s8.6-0.4,11.2-1.1c2.5-0.7,5.5-2.3,5.5-5.6c0-2.6-1.9-6.1-4.9-8.9C33.8,4.2,29.6,1.1,24,1.1"/>
	<path fill="#055894" d="M6,20c1.9,0,3.5,0.9,3.5,2.1c0,1.2-1.6,1.3-3.5,1.3s-3.5-0.1-3.5-1.3C2.5,20.9,4,20,6,20 M6,18.6
		c-2.8,0-4.9,1.5-4.9,3.5c0,0.6,0.2,1.9,2,2.4c0.8,0.2,1.7,0.3,2.8,0.3s2.1,0,2.8-0.3c1.8-0.5,2-1.9,2-2.4
		C10.8,20.1,8.7,18.6,6,18.6"/>
	<path fill="#055894" d="M42,20c1.9,0,3.5,0.9,3.5,2.1c0,1.2-1.6,1.3-3.5,1.3c-1.9,0-3.5-0.1-3.5-1.3C38.6,20.9,40.1,20,42,20
		 M42,18.6c-2.8,0-4.9,1.5-4.9,3.5c0,0.6,0.2,1.9,2,2.4c0.8,0.2,1.7,0.3,2.8,0.3c1.1,0,2.1,0,2.8-0.3c1.8-0.5,2-1.9,2-2.4
		C46.9,20.1,44.8,18.6,42,18.6"/>
	<path fill="#055894" d="M24,41.8L24,41.8c-9.7,0-17.6,3.8-17.6,5.4c0,0.4,0.4,0.6,1.2,0.6c2.2,0,7.2-1.3,13.2-1.6
		c0-0.5,0.1-1,0.3-1.4c-3.6,0.2-6.9,0.7-9.4,1.1c-0.8,0.1-1.5,0.2-2.1,0.3c0.8-0.4,1.8-0.8,3.1-1.3c3.4-1.1,7.4-1.8,11.2-1.8
		s7.8,0.6,11.2,1.8c1.3,0.4,2.3,0.9,3.1,1.3c-0.6-0.1-1.3-0.2-2.1-0.3c-2.5-0.4-5.8-0.9-9.5-1.1c0.2,0.4,0.3,0.9,0.3,1.4
		c6.1,0.4,11.1,1.6,13.3,1.6c0.8,0,1.2-0.2,1.2-0.6C41.6,45.6,33.7,41.8,24,41.8"/>
	<path fill="#055894" d="M26.7,44.8c-0.4-0.8-1.2-1.5-2.8-1.5c-1.6,0-2.4,0.6-2.8,1.5c0.9,0,1.8-0.1,2.8-0.1
		C24.9,44.7,25.8,44.8,26.7,44.8"/>
	<path fill="#055894" d="M25.6,46.4c0,1.8-1,3.6-1.7,3.6c-0.7,0-1.7-1.8-1.7-3.6c0-0.1,0-0.2,0-0.3c-0.5,0-0.9,0-1.4,0.1
		c0,0.1,0,0.1,0,0.2c0,2.1,1.2,5,3.1,5c1.9,0,3.1-2.9,3.1-5c0-0.1,0-0.1,0-0.2c-0.5,0-0.9,0-1.4-0.1C25.6,46.2,25.6,46.3,25.6,46.4"
		/>
	<path fill="#055894" d="M24,44.7c-1,0-1.9,0-2.8,0.1c-0.2,0.4-0.3,0.9-0.3,1.4c0.5,0,0.9,0,1.4-0.1C22.4,45,23,44.7,24,44.7
		c1,0,1.6,0.2,1.6,1.4c0.5,0,0.9,0,1.4,0.1c0-0.5-0.1-1-0.3-1.4C25.8,44.8,24.9,44.7,24,44.7"/>
	<path fill="#055894" d="M5.1,28.9c-0.2-0.6-0.3-1.2-0.3-1.9v-2.3h0.8h1.6v0.7c0.4-0.3,0.9-0.5,1.4-0.7v-1.4h-3H3.4V27
		c0,2.4,1.1,4.5,2.9,5.8c-0.8-0.9-1.2-2-1.2-3.3C5,29.3,5.1,29.1,5.1,28.9"/>
	<path fill="#055894" d="M42,23.3h-2.6v0.5v0.8c0.5,0.2,1,0.4,1.4,0.7v-0.7H42h1.3V27c0,0.7-0.1,1.3-0.3,1.9c0,0.2,0,0.4,0,0.6
		c0,1.3-0.5,2.4-1.2,3.3c1.8-1.3,2.9-3.4,2.9-5.8v-2.8v-0.8H42z"/>
	<path fill="#055894" d="M42.9,28.9c-0.2-1.5-1-2.7-2.1-3.5c-0.4-0.3-0.9-0.5-1.4-0.7c-0.5-0.2-1-0.2-1.5-0.2H10.1
		c-0.5,0-1,0.1-1.5,0.2c-0.5,0.2-1,0.4-1.4,0.7c-1.1,0.8-1.9,2.1-2.1,3.5c0,0.2,0,0.4,0,0.6c0,1.3,0.5,2.4,1.2,3.3
		c0.9,1.1,2.3,1.8,3.8,1.8h27.8c1.5,0,2.9-0.7,3.8-1.8c0.8-0.9,1.2-2,1.2-3.3C43,29.3,42.9,29.1,42.9,28.9 M40.8,31.8
		c-0.7,0.8-1.7,1.4-2.9,1.4h-6.8H16.9h-6.8c-1.2,0-2.2-0.5-2.9-1.4c-0.5-0.6-0.8-1.4-0.8-2.3c0-0.8,0.3-1.6,0.8-2.2
		c0.4-0.5,0.8-0.9,1.4-1.1c0.5-0.2,1-0.3,1.5-0.3h27.8c0.5,0,1.1,0.1,1.5,0.3c0.5,0.3,1,0.6,1.4,1.1c0.5,0.6,0.8,1.4,0.8,2.2
		C41.6,30.4,41.3,31.2,40.8,31.8"/>
	<line fill="#055894" x1="6" y1="30.9" x2="41.7" y2="30.9"/>
	<path fill="#055894" d="M41.7,31.6H6c-0.4,0-0.7-0.3-0.7-0.7c0-0.4,0.3-0.7,0.7-0.7h35.8c0.4,0,0.7,0.3,0.7,0.7
		C42.4,31.3,42.1,31.6,41.7,31.6"/>
</g>
</svg>
