<?xml version="1.0" encoding="utf-8"?>
<!-- Generator: Adobe Illustrator 18.0.0, SVG Export Plug-In . SVG Version: 6.00 Build 0)  -->
<!DOCTYPE svg PUBLIC "-//W3C//DTD SVG 1.1//EN" "http://www.w3.org/Graphics/SVG/1.1/DTD/svg11.dtd">
<svg version="1.1" id="Layer_1" xmlns="http://www.w3.org/2000/svg" xmlns:xlink="http://www.w3.org/1999/xlink" x="0px" y="0px"
	 width="41px" height="55.2px" viewBox="0 0 41 55.2" enable-background="new 0 0 41 55.2" xml:space="preserve">
<g>
	<path fill="#055894" d="M23.4,9.5c-0.5,0.5-1.4,0.5-1.9,0c-0.5-0.5-0.5-1.4,0-1.9C22,7,22.9,7,23.4,7.5C24,8.1,24,8.9,23.4,9.5"/>
	<path fill="#055894" d="M20.1,6.9c-0.5,0.5-1.4,0.5-1.9,0c-0.5-0.5-0.5-1.4,0-1.9c0.5-0.5,1.4-0.5,1.9,0
		C20.7,5.5,20.7,6.3,20.1,6.9"/>
	<path fill="#055894" d="M23.7,2.3c-0.5,0.5-1.4,0.5-1.9,0c-0.5-0.5-0.5-1.4,0-1.9c0.5-0.5,1.4-0.5,1.9,0
		C24.2,0.9,24.2,1.8,23.7,2.3"/>
	<path fill="#055894" d="M25.8,15.5v15.8l11.9,20.6H3.3l11.9-20.6V15.5H25.8 M25.8,12.2H15.2c-1.8,0-3.3,1.5-3.3,3.3v14.9L0.4,50.2
		c-0.6,1-0.6,2.3,0,3.3c0.6,1,1.7,1.6,2.8,1.6h34.4c1.2,0,2.3-0.6,2.8-1.6c0.6-1,0.6-2.3,0-3.3L29.1,30.4V15.5
		C29.1,13.7,27.6,12.2,25.8,12.2"/>
	<path fill="#055894" d="M29.2,15.5H11.8c-0.9,0-1.6-0.7-1.6-1.6c0-0.9,0.7-1.6,1.6-1.6h17.4c0.9,0,1.6,0.7,1.6,1.6
		C30.8,14.7,30.1,15.5,29.2,15.5z"/>
	<path fill="#055894" d="M19,19.9H15c-0.5,0-0.8-0.4-0.8-0.8c0-0.5,0.4-0.8,0.8-0.8H19c0.5,0,0.8,0.4,0.8,0.8
		C19.9,19.5,19.5,19.9,19,19.9z"/>
	<path fill="#055894" d="M17.1,22.9h-2.4c-0.5,0-0.8-0.4-0.8-0.8c0-0.5,0.4-0.8,0.8-0.8h2.4c0.5,0,0.8,0.4,0.8,0.8
		C17.9,22.5,17.6,22.9,17.1,22.9z"/>
	<path fill="#055894" d="M17.1,25.9h-2.4c-0.5,0-0.8-0.4-0.8-0.8c0-0.5,0.4-0.8,0.8-0.8h2.4c0.5,0,0.8,0.4,0.8,0.8
		C17.9,25.5,17.6,25.9,17.1,25.9z"/>
	<path fill="#055894" d="M19,28.9H15c-0.5,0-0.8-0.4-0.8-0.8c0-0.5,0.4-0.8,0.8-0.8H19c0.5,0,0.8,0.4,0.8,0.8
		C19.9,28.5,19.5,28.9,19,28.9z"/>
	<path fill="#055894" d="M14.7,31.9c-0.5,0-0.8-0.4-0.8-0.8c0-0.5,0.4-0.8,0.8-0.8l2.4,0h0c0.5,0,0.8,0.4,0.8,0.8
		c0,0.5-0.4,0.8-0.8,0.8L14.7,31.9L14.7,31.9z"/>
	<path fill="#055894" d="M17.1,34.9H15c-0.5,0-0.8-0.4-0.8-0.8s0.4-0.8,0.8-0.8h2.1c0.5,0,0.8,0.4,0.8,0.8S17.6,34.9,17.1,34.9z"/>
	<path fill="#055894" d="M19,37.9H15c-0.5,0-0.8-0.4-0.8-0.8c0-0.5,0.4-0.8,0.8-0.8H19c0.5,0,0.8,0.4,0.8,0.8
		C19.9,37.6,19.5,37.9,19,37.9z"/>
	<path fill="#055894" d="M31.5,40.9L31.5,40.9l-21.9,0c-0.5,0-0.8-0.4-0.8-0.8s0.4-0.8,0.8-0.8l0,0l21.9,0c0.5,0,0.8,0.4,0.8,0.8
		C32.3,40.6,31.9,40.9,31.5,40.9z"/>
	<path fill="#055894" d="M17.1,44H15c-0.5,0-0.8-0.4-0.8-0.8c0-0.5,0.4-0.8,0.8-0.8h2.1c0.5,0,0.8,0.4,0.8,0.8
		C17.9,43.6,17.6,44,17.1,44z"/>
	<path fill="#055894" d="M19,47H15c-0.5,0-0.8-0.4-0.8-0.8c0-0.5,0.4-0.8,0.8-0.8H19c0.5,0,0.8,0.4,0.8,0.8C19.9,46.6,19.5,47,19,47
		z"/>
</g>
</svg>
