<?xml version="1.0" encoding="utf-8"?>
<!-- Generator: Adobe Illustrator 19.2.0, SVG Export Plug-In . SVG Version: 6.00 Build 0)  -->
<svg version="1.1" id="Layer_1" xmlns="http://www.w3.org/2000/svg" xmlns:xlink="http://www.w3.org/1999/xlink" x="0px" y="0px"
	 width="71px" height="65.4px" viewBox="0 0 71 65.4" style="enable-background:new 0 0 71 65.4;" xml:space="preserve">
<style type="text/css">
	.st0{fill:#FFFFFF;}
</style>
<g>
	<path class="st0" d="M59.3,49v12.2h2V49c0-1.1-0.9-2-2-2h-9.9v2H59.3z"/>
	<path class="st0" d="M36.3,4.1v29h9.1v16h4V18.5h17.5v42.7h-7.6l0,0H43.7h-1.9h-5.5h-4.1H21.1v0.1h-17v-37h14.7V4.1H36.3 M36.3,0
		H18.8c-2.2,0-4.1,1.8-4.1,4.1v16.2H4.1c-2.2,0-4.1,1.8-4.1,4.1v37c0,2.2,1.8,4.1,4.1,4.1h17c0.4,0,0.7,0,1-0.1h10.1h4.1h5.5h1.9
		h15.6h7.6c2.2,0,4.1-1.8,4.1-4.1V18.5c0-2.2-1.8-4.1-4.1-4.1H49.4c-2.2,0-4.1,1.8-4.1,4.1V29h-4.9V4.1C40.4,1.8,38.6,0,36.3,0
		L36.3,0z"/>
	<path class="st0" d="M36.3,33v-2h-4.1c-1.1,0-2,0.9-2,2v28.2h2V33H36.3z"/>
	<path class="st0" d="M21.1,22.3h-2.3v2h2.3v36.9h2V24.3C23.1,23.2,22.2,22.3,21.1,22.3z"/>
	<path class="st0" d="M43.7,49v-2h-1.9c-1.1,0-2,0.9-2,2v12.2h2V49H43.7z"/>
	<rect x="22.2" y="9.9" class="st0" width="2.8" height="2.8"/>
	<rect x="22.2" y="14.3" class="st0" width="2.8" height="2.8"/>
	<rect x="26.8" y="14.3" class="st0" width="2.8" height="2.8"/>
	<rect x="7.9" y="27.9" class="st0" width="2.8" height="2.8"/>
	<rect x="7.9" y="32.3" class="st0" width="2.8" height="2.8"/>
	<rect x="12.4" y="32.3" class="st0" width="2.8" height="2.8"/>
	<rect x="7.9" y="36.9" class="st0" width="2.8" height="2.8"/>
	<rect x="12.4" y="36.9" class="st0" width="2.8" height="2.8"/>
	<rect x="7.9" y="46" class="st0" width="2.8" height="2.8"/>
	<rect x="12.4" y="46" class="st0" width="2.8" height="2.8"/>
	<g>
		<rect x="34.3" y="36.9" class="st0" width="2.8" height="2.8"/>
		<rect x="34.3" y="41.5" class="st0" width="2.8" height="2.8"/>
		<rect x="38.9" y="41.5" class="st0" width="2.8" height="2.8"/>
	</g>
	<rect x="46.2" y="52" class="st0" width="2.8" height="2.8"/>
	<g>
		<rect x="52.1" y="27.9" class="st0" width="2.8" height="2.8"/>
		<rect x="52.1" y="32.5" class="st0" width="2.8" height="2.8"/>
		<rect x="52.1" y="37" class="st0" width="2.8" height="2.8"/>
		<rect x="52.1" y="41.5" class="st0" width="2.8" height="2.8"/>
		<rect x="61.4" y="32.5" class="st0" width="2.8" height="2.8"/>
		<rect x="61.4" y="37" class="st0" width="2.8" height="2.8"/>
		<rect x="61.4" y="41.5" class="st0" width="2.8" height="2.8"/>
	</g>
	<rect x="12.4" y="50.5" class="st0" width="2.8" height="2.8"/>
</g>
</svg>
