<?xml version="1.0" encoding="utf-8"?>
<!-- Generator: Adobe Illustrator 18.0.0, SVG Export Plug-In . SVG Version: 6.00 Build 0)  -->
<!DOCTYPE svg PUBLIC "-//W3C//DTD SVG 1.1//EN" "http://www.w3.org/Graphics/SVG/1.1/DTD/svg11.dtd">
<svg version="1.1" id="Layer_1" xmlns="http://www.w3.org/2000/svg" xmlns:xlink="http://www.w3.org/1999/xlink" x="0px" y="0px"
	 width="71px" height="65.4px" viewBox="0 0 71 65.4" enable-background="new 0 0 71 65.4" xml:space="preserve">
<g>
	<path fill="none" d="M41.8,47h1.9V33h-5.3v28.2h1.4V49C39.8,47.9,40.7,47,41.8,47z"/>
	<rect x="32.3" y="33" fill="none" width="4.1" height="28.2"/>
	<rect x="41.8" y="49" fill="none" width="1.9" height="12.2"/>
	<rect x="49.4" y="49" fill="none" width="9.9" height="12.2"/>
	<polygon fill="none" points="47.4,49 45.7,49 45.7,61.2 47.4,61.2 47.4,61.2 	"/>
	<path fill="none" d="M61.3,49v12.2h5.6V18.5H49.4V47h9.9C60.4,47,61.3,47.9,61.3,49z"/>
	<path fill="none" d="M16.8,24.3H4.1v37h12.7c0,0,0-0.1,0-0.1V24.3z"/>
	<path fill="none" d="M32.3,31h4.1V4.1H18.8v18.2h2.3c1.1,0,2,0.9,2,2v36.9h7.1V33C30.2,31.9,31.1,31,32.3,31z"/>
	<rect x="18.8" y="24.3" fill="none" width="2.3" height="36.9"/>
	<path fill="#FFFFFF" d="M30.2,61.2h-7.1v0.1c0,0.9-0.6,1.6-1.3,1.9h10.5C31.1,63.3,30.2,62.3,30.2,61.2z"/>
	<path fill="#FFFFFF" d="M18.8,4.1h17.5V31h2V4.1c0-1.1-0.9-2-2-2H18.8c-1.1,0-2,0.9-2,2v18.2h2V4.1z"/>
	<path fill="#FFFFFF" d="M39.8,61.2h-1.4c0,1.1-0.9,2-2,2h5.5C40.7,63.3,39.8,62.3,39.8,61.2z"/>
	<rect x="36.3" y="31" fill="#FFFFFF" width="2" height="2"/>
	<path fill="#FFFFFF" d="M38.4,61.2h-2h-4.1h-2c0,1.1,0.9,2,2,2h4.1C37.5,63.3,38.4,62.3,38.4,61.2z"/>
	<path fill="#FFFFFF" d="M66.9,16.5H49.4c-1.1,0-2,0.9-2,2V47h2V18.5h17.5v42.7h-5.6v0c0,1.1-0.9,2-2,2h7.6c1.1,0,2-0.9,2-2V18.5
		C69,17.4,68.1,16.5,66.9,16.5z"/>
	<path fill="#FFFFFF" d="M16.8,61.4H4.1v-37h12.7v-2H4.1c-1.1,0-2,0.9-2,2v37c0,1.1,0.9,2,2,2h17c0.2,0,0.5-0.1,0.7-0.1h-3
		C17.7,63.3,16.8,62.4,16.8,61.4z"/>
	<path fill="#FFFFFF" d="M23.1,61.4v-0.1h-2v0.1h-4.3c0.1,1.1,0.9,1.9,2,1.9h3C22.6,63,23.1,62.2,23.1,61.4z"/>
	<rect x="16.8" y="22.3" fill="#FFFFFF" width="2" height="2"/>
	<rect x="45.7" y="47" fill="#FFFFFF" width="1.7" height="2"/>
	<path fill="#FFFFFF" d="M47.4,61.2h-1.7c0,1.1-0.9,2-2,2h15.6c0,0,0,0,0,0h-9.9C48.3,63.3,47.4,62.3,47.4,61.2z"/>
	<path fill="#FFFFFF" d="M59.3,49v12.2h2V49c0-1.1-0.9-2-2-2h-9.9v2H59.3z"/>
	<path fill="#FFFFFF" d="M45.7,61.2h-2h-1.9h-2c0,1.1,0.9,2,2,2h1.9C44.8,63.3,45.7,62.3,45.7,61.2z"/>
	<rect x="43.7" y="47" fill="#FFFFFF" width="2" height="2"/>
	<path fill="#FFFFFF" d="M61.3,61.2L61.3,61.2l-2,0v0H47.4c0,1.1,0.9,2,2,2h9.9C60.4,63.3,61.3,62.3,61.3,61.2z"/>
	<rect x="47.4" y="47" fill="#FFFFFF" width="2" height="2"/>
	<path fill="#FFFFFF" d="M36.3,4.1v29h9.1v16h4V18.5h17.5v42.7h-7.6v0H43.7h-1.9h-5.5h-4.1H21.1v0.1h-17v-37h14.7V4.1H36.3 M36.3,0
		H18.8c-2.2,0-4.1,1.8-4.1,4.1v16.2H4.1c-2.2,0-4.1,1.8-4.1,4.1v37c0,2.2,1.8,4.1,4.1,4.1h17c0.4,0,0.7,0,1-0.1h10.1h4.1h5.5h1.9
		h15.6l7.6,0c2.2,0,4.1-1.8,4.1-4.1V18.5c0-2.2-1.8-4.1-4.1-4.1H49.4c-2.2,0-4.1,1.8-4.1,4.1V29h-4.9V4.1C40.4,1.8,38.6,0,36.3,0
		L36.3,0z"/>
	<path fill="#FFFFFF" d="M36.3,33v-2h-4.1c-1.1,0-2,0.9-2,2v28.2h2V33H36.3z"/>
	<path fill="#FFFFFF" d="M21.1,22.3h-2.3v2h2.3v36.9h2V24.3C23.1,23.2,22.2,22.3,21.1,22.3z"/>
	<path fill="#FFFFFF" d="M43.7,49v-2h-1.9c-1.1,0-2,0.9-2,2v12.2h2V49H43.7z"/>
	<rect x="22.2" y="9.9" fill="#FFFFFF" width="2.8" height="2.8"/>
	<rect x="22.2" y="14.3" fill="#FFFFFF" width="2.8" height="2.8"/>
	<rect x="26.8" y="14.3" fill="#FFFFFF" width="2.8" height="2.8"/>
	<rect x="7.9" y="27.9" fill="#FFFFFF" width="2.8" height="2.8"/>
	<rect x="7.9" y="32.3" fill="#FFFFFF" width="2.8" height="2.8"/>
	<rect x="12.4" y="32.3" fill="#FFFFFF" width="2.8" height="2.8"/>
	<rect x="7.9" y="36.9" fill="#FFFFFF" width="2.8" height="2.8"/>
	<rect x="12.4" y="36.9" fill="#FFFFFF" width="2.8" height="2.8"/>
	<rect x="7.9" y="46.1" fill="#FFFFFF" width="2.8" height="2.8"/>
	<rect x="12.4" y="46.1" fill="#FFFFFF" width="2.8" height="2.8"/>
	<g>
		<rect x="34.3" y="36.9" fill="#FFFFFF" width="2.8" height="2.8"/>
		<rect x="34.3" y="41.5" fill="#FFFFFF" width="2.8" height="2.8"/>
		<rect x="38.9" y="41.5" fill="#FFFFFF" width="2.8" height="2.8"/>
	</g>
	<rect x="46.2" y="52" fill="#FFFFFF" width="2.8" height="2.8"/>
	<g>
		<rect x="52.1" y="27.9" fill="#FFFFFF" width="2.8" height="2.8"/>
		<rect x="52.1" y="32.5" fill="#FFFFFF" width="2.8" height="2.8"/>
		<rect x="52.1" y="37" fill="#FFFFFF" width="2.8" height="2.8"/>
		<rect x="52.1" y="41.6" fill="#FFFFFF" width="2.8" height="2.8"/>
		<rect x="61.4" y="32.5" fill="#FFFFFF" width="2.8" height="2.8"/>
		<rect x="61.4" y="37" fill="#FFFFFF" width="2.8" height="2.8"/>
		<rect x="61.4" y="41.6" fill="#FFFFFF" width="2.8" height="2.8"/>
	</g>
	<rect x="12.4" y="50.6" fill="#FFFFFF" width="2.8" height="2.8"/>
</g>
</svg>
