<?xml version="1.0" encoding="utf-8"?>
<!-- Generator: Adobe Illustrator 18.0.0, SVG Export Plug-In . SVG Version: 6.00 Build 0)  -->
<!DOCTYPE svg PUBLIC "-//W3C//DTD SVG 1.1//EN" "http://www.w3.org/Graphics/SVG/1.1/DTD/svg11.dtd">
<svg version="1.1" id="Layer_1" xmlns="http://www.w3.org/2000/svg" xmlns:xlink="http://www.w3.org/1999/xlink" x="0px" y="0px"
	 width="25px" height="25px" viewBox="0 0 25 25" enable-background="new 0 0 25 25" xml:space="preserve">
<path fill="#A9CEE8" d="M19.8,5.2c0.3,0.3,0.7,0.3,0.9,0c0.3-0.3,0.3-0.7,0-0.9c-0.3-0.3-0.7-0.3-0.9,0C19.6,4.5,19.6,4.9,19.8,5.2"
	/>
<path fill="#A9CEE8" d="M24.5,4L21,0.5C20.7,0.2,20.3,0,19.9,0c-0.4,0-0.8,0.2-1.1,0.5l-7.1,7.1L7.4,3.3C7.2,3.2,7.1,3,6.9,3L2.3,1
	C2.1,0.9,1.9,0.8,1.7,0.8h0h0h0C1.3,0.8,0.9,1,0.6,1.3C0.1,1.7,0,2.4,0.3,3l2,4.6c0.1,0.2,0.2,0.3,0.3,0.5l4.3,4.3l-6.4,6.4
	C0.2,19.1,0,19.5,0,19.9c0,0.4,0.2,0.8,0.5,1.1L4,24.5C4.3,24.8,4.7,25,5.1,25c0.4,0,0.8-0.2,1.1-0.5l6.4-6.4l6.1,6.1
	c0.5,0.5,1.2,0.8,1.9,0.8c0.7,0,1.4-0.3,1.9-0.8l0.9-0.9c1.1-1.1,1.1-2.8,0-3.9l-6.1-6.1l7.1-7.1C25.2,5.6,25.2,4.6,24.5,4 M1.6,1.6
	C1.6,1.6,1.7,1.6,1.6,1.6L1.6,1.6C1.7,1.6,1.6,1.6,1.6,1.6 M3.7,6.9l-2-4.6l4.6,2l0,0L3.7,6.9L3.7,6.9z M4.3,7.5L6.8,5l3.8,3.8
	L8,11.3L4.3,7.5z M22.4,20.5c0.5,0.5,0.5,1.2,0,1.6l-0.9,0.9c-0.2,0.2-0.5,0.3-0.8,0.3c-0.3,0-0.6-0.1-0.8-0.3L19,22.3v0l2.5-2.5
	L22.4,20.5z M21,19.2L21,19.2l-2.5,2.5l0,0h0L17,20.2l2.5-2.5L21,19.2z M18.7,16.9l0.3,0.3l-2.5,2.5l0,0l-0.3-0.3L18.7,16.9
	L18.7,16.9z M18.1,16.3L18.1,16.3l-2.5,2.5L13.7,17l2.5-2.5L18.1,16.3z M20.2,8.3l-1-1c-0.2-0.2-0.4-0.2-0.6,0
	c-0.2,0.2-0.2,0.4,0,0.6l1,1l-1.7,1.7l-1-1c-0.2-0.2-0.4-0.2-0.6,0c-0.2,0.2-0.2,0.4,0,0.6l1,1l-1.7,1.7l-1-1
	c-0.2-0.2-0.4-0.2-0.6,0c-0.2,0.2-0.2,0.4,0,0.6l1,1l-1.7,1.7l-1-1c-0.2-0.2-0.4-0.2-0.6,0c-0.2,0.2-0.2,0.4,0,0.6l1,1l-1.7,1.7
	l-1-1c-0.2-0.2-0.4-0.2-0.6,0c-0.2,0.2-0.2,0.4,0,0.6l1,1l-1.7,1.7l-1-1c-0.2-0.2-0.4-0.2-0.6,0c-0.2,0.2-0.2,0.4,0,0.6l1,1
	l-1.7,1.7l-1-1c-0.2-0.2-0.4-0.2-0.6,0c-0.2,0.2-0.2,0.4,0,0.6l1,1l-1,1l-3.5-3.5L19.9,1.6l3.5,3.5L20.2,8.3z"/>
</svg>
