<?xml version="1.0" encoding="utf-8"?>
<!-- Generator: Adobe Illustrator 16.0.0, SVG Export Plug-In . SVG Version: 6.00 Build 0)  -->
<!DOCTYPE svg PUBLIC "-//W3C//DTD SVG 1.1//EN" "http://www.w3.org/Graphics/SVG/1.1/DTD/svg11.dtd">
<svg version="1.1" id="Layer_1" xmlns="http://www.w3.org/2000/svg" xmlns:xlink="http://www.w3.org/1999/xlink" x="0px" y="0px"
	 width="31.999px" height="32px" viewBox="0 0 31.999 32" enable-background="new 0 0 31.999 32" xml:space="preserve">
<g>
	<path fill="#FFFFFF" d="M2.843,32c-0.728,0-1.455-0.277-2.01-0.833c-1.11-1.109-1.11-2.909,0-4.02L27.147,0.833
		c1.109-1.11,2.91-1.11,4.02,0c1.11,1.11,1.11,2.91,0,4.021L4.853,31.167C4.298,31.722,3.57,32,2.843,32z"/>
	<path fill="#FFFFFF" d="M29.156,32c-0.728,0-1.455-0.277-2.01-0.833L0.833,4.854c-1.11-1.11-1.11-2.91,0-4.021
		c1.11-1.11,2.91-1.11,4.02,0l26.313,26.314c1.11,1.11,1.11,2.91,0,4.02C30.611,31.722,29.884,32,29.156,32z"/>
</g>
<rect x="-14.956" y="-14.956" fill="none" width="61.912" height="61.911"/>
</svg>
