<?xml version="1.0" encoding="utf-8"?>
<!-- Generator: Adobe Illustrator 19.2.0, SVG Export Plug-In . SVG Version: 6.00 Build 0)  -->
<svg version="1.1" id="Layer_2" xmlns="http://www.w3.org/2000/svg" xmlns:xlink="http://www.w3.org/1999/xlink" x="0px" y="0px"
	 width="16px" height="16px" viewBox="0 0 16 16" style="enable-background:new 0 0 16 16;" xml:space="preserve">
<style type="text/css">
	.st0{fill:#FFFFFF;}
</style>
<g>
	<path class="st0" d="M1.4,16c-0.4,0-0.7-0.1-1-0.4c-0.6-0.6-0.6-1.5,0-2L13.6,0.4c0.6-0.6,1.5-0.6,2,0s0.6,1.5,0,2L2.4,15.6
		C2.1,15.9,1.8,16,1.4,16z"/>
	<path class="st0" d="M14.6,16c-0.4,0-0.7-0.1-1-0.4L0.4,2.4c-0.6-0.6-0.6-1.5,0-2c0.6-0.6,1.5-0.6,2,0l13.2,13.2
		c0.6,0.6,0.6,1.5,0,2C15.3,15.9,14.9,16,14.6,16z"/>
</g>
</svg>
