<?xml version="1.0" encoding="utf-8"?>
<!-- Generator: Adobe Illustrator 16.0.0, SVG Export Plug-In . SVG Version: 6.00 Build 0)  -->
<!DOCTYPE svg PUBLIC "-//W3C//DTD SVG 1.1//EN" "http://www.w3.org/Graphics/SVG/1.1/DTD/svg11.dtd">
<svg version="1.1" id="Layer_1" xmlns="http://www.w3.org/2000/svg" xmlns:xlink="http://www.w3.org/1999/xlink" x="0px" y="0px"
	 width="52px" height="36.758px" viewBox="0 0 52 36.758" enable-background="new 0 0 52 36.758" xml:space="preserve">
<g>
	<path fill="#055894" d="M44.669,3.902c1.895,0,3.43,1.535,3.43,3.429v22.097c0,1.894-1.535,3.429-3.43,3.429H7.331
		c-1.894,0-3.429-1.535-3.429-3.429V7.331c0-1.894,1.535-3.429,3.429-3.429H44.669 M44.669,0H7.331C3.289,0,0,3.289,0,7.331v22.097
		c0,4.042,3.289,7.33,7.331,7.33h37.338c4.043,0,7.331-3.288,7.331-7.33V7.331C52,3.289,48.712,0,44.669,0"/>
	<path fill="#055894" d="M26,21.317c-0.208,0-0.415-0.065-0.589-0.197L4.479,5.266l1.178-1.555L26,19.119L46.343,3.711l1.178,1.555
		L26.588,21.12C26.414,21.252,26.207,21.317,26,21.317z"/>
</g>
</svg>
