<?xml version="1.0" encoding="utf-8"?>
<!-- Generator: Adobe Illustrator 16.0.0, SVG Export Plug-In . SVG Version: 6.00 Build 0)  -->
<!DOCTYPE svg PUBLIC "-//W3C//DTD SVG 1.1//EN" "http://www.w3.org/Graphics/SVG/1.1/DTD/svg11.dtd">
<svg version="1.1" id="Layer_1" xmlns="http://www.w3.org/2000/svg" xmlns:xlink="http://www.w3.org/1999/xlink" x="0px" y="0px"
	 width="46px" height="45.994px" viewBox="0 0 46 45.994" enable-background="new 0 0 46 45.994" xml:space="preserve">
<path fill="#055894" d="M11.876,4.011c1.408,0,2.126,1.314,2.126,1.314s3.417,5.936,3.96,6.841c1.019,1.764-0.553,2.771-0.553,2.771
	s-1.697,1.16-2.801,1.886c-2.063,1.403-0.853,2.952-0.553,3.581c0.069,0.142,2.046,3.431,5.076,6.459
	c3.029,3.029,6.318,5.008,6.46,5.077c0.354,0.168,0.995,0.622,1.74,0.622c0.58,0,1.223-0.275,1.84-1.175
	c0.758-1.152,1.887-2.801,1.887-2.801s0.575-0.896,1.616-0.896c0.337,0,0.723,0.093,1.154,0.343c0.905,0.542,6.842,3.96,6.842,3.96
	s1.764,0.964,1.204,2.848c-0.32,1.315-1.128,2.565-1.59,3.189c-1.125,1.528-2.122,2.253-2.122,2.253
	c-1.247,1.155-2.939,1.7-4.923,1.7c-5.24,0-12.507-3.807-18.934-10.233c0,0-0.05-0.049-0.061-0.061v-0.001
	C5.378,22.822,1.505,12.375,5.713,7.833c0,0,0.724-0.997,2.252-2.122c0.624-0.461,1.874-1.269,3.189-1.589
	C11.412,4.044,11.653,4.011,11.876,4.011 M11.876,0c-0.586,0-1.178,0.083-1.76,0.246C8.124,0.751,6.424,1.862,5.581,2.484
	C3.987,3.658,3.025,4.765,2.637,5.253c-2.976,3.343-3.451,8.393-1.333,14.25c1.789,4.946,5.355,10.258,10.046,14.963
	c0.02,0.021,0.041,0.042,0.061,0.063l0.07,0.068c7.141,7.137,15.274,11.397,21.759,11.397c2.972,0,5.561-0.91,7.5-2.634
	c0.49-0.389,1.599-1.354,2.775-2.953c0.617-0.834,1.728-2.533,2.234-4.526c0.943-3.358-0.929-6.164-3.105-7.38
	c-1.664-0.958-6.039-3.481-6.754-3.909c-0.019-0.011-0.037-0.022-0.057-0.032c-1.012-0.585-2.074-0.881-3.159-0.881
	c-2.344,0-4.081,1.368-4.947,2.675c-0.108,0.157-0.549,0.803-1.041,1.531c-1.06-0.713-2.937-2.075-4.718-3.857
	c-1.784-1.784-3.145-3.66-3.857-4.719c0.719-0.484,1.367-0.927,1.527-1.036c2.287-1.51,3.687-4.842,1.799-8.111
	c-0.011-0.019-0.022-0.038-0.034-0.057c-0.428-0.714-2.95-5.09-3.908-6.754C16.623,1.793,14.642,0,11.876,0"/>
<path fill="#055894" d="M41.459,39.092c-0.168,0-0.338-0.042-0.495-0.132l-12.533-7.132c-0.481-0.273-0.649-0.886-0.375-1.367
	c0.273-0.481,0.885-0.649,1.367-0.376l12.533,7.132c0.481,0.274,0.649,0.887,0.376,1.368C42.148,38.909,41.808,39.092,41.459,39.092
	z"/>
<path fill="#055894" d="M15.04,18.071c-0.349,0-0.688-0.182-0.873-0.507L7.035,5.032C6.761,4.55,6.93,3.938,7.411,3.664
	C7.893,3.39,8.505,3.558,8.778,4.04l7.132,12.533c0.274,0.481,0.105,1.093-0.376,1.367C15.378,18.029,15.208,18.071,15.04,18.071z"
	/>
</svg>
