<?xml version="1.0" encoding="utf-8"?>
<!-- Generator: Adobe Illustrator 16.0.0, SVG Export Plug-In . SVG Version: 6.00 Build 0)  -->
<!DOCTYPE svg PUBLIC "-//W3C//DTD SVG 1.1//EN" "http://www.w3.org/Graphics/SVG/1.1/DTD/svg11.dtd">
<svg version="1.1" id="Layer_1" xmlns="http://www.w3.org/2000/svg" xmlns:xlink="http://www.w3.org/1999/xlink" x="0px" y="0px"
	 width="35px" height="46.36px" viewBox="0 0 35 46.36" enable-background="new 0 0 35 46.36" xml:space="preserve">
<g>
	<path fill="#055894" d="M17.5,46.36c-1.014,0-1.962-0.5-2.537-1.339L2.804,27.299c-0.012-0.018-0.023-0.036-0.035-0.054
		c-0.862-1.371-1.524-2.795-1.969-4.233C0.269,21.297,0,19.513,0,17.71C0,7.945,7.85,0,17.5,0C27.149,0,35,7.945,35,17.71
		c0,1.806-0.271,3.59-0.803,5.304c-0.44,1.43-1.092,2.837-1.933,4.178c-0.072,0.117-1.974,2.889-10.7,15.598l-1.532,2.232
		C19.467,45.857,18.519,46.36,17.5,46.36z M5.451,25.523l12.047,17.559l1.438-2.095c4.888-7.119,10.428-15.188,10.644-15.512
		c0.678-1.082,1.212-2.234,1.571-3.402c0.439-1.411,0.661-2.877,0.661-4.362c0-8.008-6.421-14.523-14.313-14.523
		c-7.892,0-14.313,6.515-14.313,14.523c0,1.483,0.221,2.95,0.657,4.36C4.205,23.234,4.745,24.395,5.451,25.523z"/>
	<path fill="#055894" d="M17.5,24.439c-3.434,0-6.227-2.792-6.227-6.226c0-3.432,2.793-6.223,6.227-6.223s6.227,2.792,6.227,6.223
		C23.727,21.646,20.934,24.439,17.5,24.439z M17.5,13.584c-2.555,0-4.633,2.077-4.633,4.629c0,2.554,2.079,4.632,4.633,4.632
		s4.633-2.078,4.633-4.632C22.133,15.661,20.055,13.584,17.5,13.584z"/>
</g>
</svg>
