<?xml version="1.0" encoding="utf-8"?>
<!-- Generator: Adobe Illustrator 19.2.1, SVG Export Plug-In . SVG Version: 6.00 Build 0)  -->
<svg version="1.1" id="Layer_1" xmlns="http://www.w3.org/2000/svg" xmlns:xlink="http://www.w3.org/1999/xlink" x="0px" y="0px"
	 width="24px" height="16.2px" viewBox="0 0 24 16.2" style="enable-background:new 0 0 24 16.2;" xml:space="preserve">
<style type="text/css">
	.st0{fill:#80B150;}
</style>
<g>
	<path class="st0" d="M16.3,1.3c1.7,0,3,1.3,3,3v1.9c0.4-0.4,0.8-0.6,1.4-0.6c1.1,0,1.9,0.9,1.9,1.9c0,0.8-0.5,1.5-1.2,1.8V14
		c0,0.8-0.6,0.9-1.4,0.9c-0.1,0-0.3,0-0.4,0c-0.1,0-0.3,0-0.4,0c-0.8,0-1.4-0.1-1.4-0.9v-0.2H6.1V14c0,0.8-0.6,0.9-1.4,0.9
		c-0.1,0-0.3,0-0.4,0c-0.1,0-0.3,0-0.4,0c-0.8,0-1.4-0.1-1.4-0.9V9.4c-0.7-0.3-1.2-1-1.2-1.8c0-1.1,0.9-1.9,1.9-1.9
		c0.4,0,0.8,0.2,1.2,0.4V4.3c0-1.7,1.3-3,3-3H16.3 M16.3,0H7.4C5.1,0,3.1,1.9,3.1,4.3v0C1.4,4.4,0,5.9,0,7.6c0,1,0.5,1.9,1.2,2.5V14
		c0,1.2,0.7,1.7,1.1,1.9c0.5,0.2,1.1,0.3,1.6,0.3c0.1,0,0.1,0,0.2,0c0.1,0,0.1,0,0.2,0c0.1,0,0.1,0,0.2,0c0.1,0,0.1,0,0.2,0
		c0.5,0,1.1,0,1.6-0.3c0.3-0.1,0.6-0.4,0.9-0.9h9.7c0.2,0.5,0.6,0.7,0.9,0.9c0.5,0.2,1.1,0.3,1.6,0.3c0.1,0,0.1,0,0.2,0
		c0.1,0,0.1,0,0.2,0c0.1,0,0.1,0,0.2,0c0.1,0,0.1,0,0.2,0c0.5,0,1.1,0,1.6-0.3c0.4-0.2,1.1-0.7,1.1-1.9v-3.9C23.5,9.5,24,8.6,24,7.6
		c0-1.8-1.5-3.3-3.3-3.3c0,0-0.1,0-0.1,0v0C20.7,1.9,18.7,0,16.3,0L16.3,0z"/>
	<g>
		<path class="st0" d="M16.8,9.9H7c-0.2,0-0.3-0.1-0.3-0.3S6.8,9.2,7,9.2h9.8c0.2,0,0.3,0.1,0.3,0.3S17,9.9,16.8,9.9z"/>
	</g>
</g>
</svg>
