<?xml version="1.0" encoding="UTF-8"?>
<svg width="26px" height="26px" viewBox="0 0 26 26" version="1.1" xmlns="http://www.w3.org/2000/svg" xmlns:xlink="http://www.w3.org/1999/xlink">
    <!-- Generator: sketchtool 51.3 (57544) - http://www.bohemiancoding.com/sketch -->
    <title>096936F4-50AF-488B-B801-445AFA4B6E39</title>
    <desc>Created with sketchtool.</desc>
    <defs>
        <polygon id="path-1" points="1.27139364e-05 0 25.9863325 0 25.9863325 25.9865232 1.27139364e-05 25.9865232"></polygon>
    </defs>
    <g id="Page-1" stroke="none" stroke-width="1" fill="none" fill-rule="evenodd">
        <g id="DESCRIPTION-mobile" transform="translate(-243.000000, -861.000000)">
            <g id="SOCIAL" transform="translate(243.000000, 861.000000)">
                <g id="FACEBOOK">
                    <mask id="mask-2" fill="white">
                        <use xlink:href="#path-1"></use>
                    </mask>
                    <g id="Clip-2"></g>
                    <path d="M22.4845457,-1.27139364e-05 L3.50174866,-1.27139364e-05 C1.56783178,-1.27139364e-05 1.27139364e-05,1.56774279 1.27139364e-05,3.50172323 L1.27139364e-05,22.4846474 C1.27139364e-05,24.4186914 1.56776822,25.9864469 3.50174866,25.9864469 L12.8639736,25.9864469 L12.8799296,16.7002513 L10.4673966,16.7002513 C10.1538709,16.7002513 9.89940147,16.4467355 9.89819364,16.1332733 L9.88662396,13.1399042 C9.88541614,12.8246621 10.1406484,12.5684763 10.4558905,12.5684763 L12.8640372,12.5684763 L12.8640372,9.67618289 C12.8640372,6.31970367 14.9139687,4.49207531 17.9081643,4.49207531 L20.3651325,4.49207531 C20.679421,4.49207531 20.934399,4.74692616 20.934399,5.06134181 L20.934399,7.58531247 C20.934399,7.89960098 20.6796117,8.15438826 20.3654504,8.15457897 L18.8575775,8.15527824 C17.2293037,8.15527824 16.913998,8.92904841 16.913998,10.0645936 L16.913998,12.5685399 L20.4920176,12.5685399 C20.8329418,12.5685399 21.0974553,12.8662367 21.0572792,13.2048088 L20.7024968,16.1981144 C20.6685506,16.4845594 20.4255873,16.7003785 20.1372352,16.7003785 L16.929954,16.7003785 L16.913998,25.9865741 L22.4846729,25.9865741 C24.4185897,25.9865741 25.9863452,24.418755 25.9863452,22.4849017 L25.9863452,3.50172323 C25.9862817,1.56774279 24.4185262,-1.27139364e-05 22.4845457,-1.27139364e-05" id="Fill-1" fill="#475993" mask="url(#mask-2)"></path>
                </g>
            </g>
        </g>
    </g>
</svg>