<?xml version="1.0" encoding="utf-8"?>
<!-- Generator: Adobe Illustrator 16.0.0, SVG Export Plug-In . SVG Version: 6.00 Build 0)  -->
<!DOCTYPE svg PUBLIC "-//W3C//DTD SVG 1.1//EN" "http://www.w3.org/Graphics/SVG/1.1/DTD/svg11.dtd">
<svg version="1.1" id="Isolation_Mode" xmlns="http://www.w3.org/2000/svg" xmlns:xlink="http://www.w3.org/1999/xlink" x="0px"
	 y="0px" width="26px" height="18px" viewBox="0 0 26 18" enable-background="new 0 0 26 18" xml:space="preserve">
<g>
	<g>
		<path fill="#363636" d="M26,1.93C26,0.777,24.901,0,23.547,0H2.453C1.099,0,0,0.777,0,1.93v0.08C0,3.162,1.099,4,2.453,4h21.094
			C24.901,4,26,3.162,26,2.01V1.93z"/>
	</g>
	<g>
		<path fill="#363636" d="M26,8.93C26,7.777,24.901,7,23.547,7H2.453C1.099,7,0,7.777,0,8.93v0.08C0,10.162,1.099,11,2.453,11
			h21.094C24.901,11,26,10.162,26,9.01V8.93z"/>
	</g>
	<g>
		<path fill="#363636" d="M26,15.834C26,14.682,24.901,14,23.547,14H2.453C1.099,14,0,14.682,0,15.834v0.08
			C0,17.066,1.099,18,2.453,18h21.094C24.901,18,26,17.066,26,15.914V15.834z"/>
	</g>
</g>
</svg>
