<?xml version="1.0" encoding="utf-8"?>
<!-- Generator: Adobe Illustrator 19.2.1, SVG Export Plug-In . SVG Version: 6.00 Build 0)  -->
<svg version="1.1" id="Layer_1" xmlns="http://www.w3.org/2000/svg" xmlns:xlink="http://www.w3.org/1999/xlink" x="0px" y="0px"
	 width="58px" height="56.8px" viewBox="0 0 58 56.8" style="enable-background:new 0 0 58 56.8;" xml:space="preserve">
<style type="text/css">
	.st0{fill:#C3C3C3;}
</style>
<g>
	<path class="st0" d="M29.7,27.6L51.4,5.9c0.1-0.1,0.1-0.3,0-0.4s-0.3-0.1-0.4,0L29.3,27.2L7.5,5.5c-0.1-0.1-0.3-0.1-0.4,0
		S7,5.8,7.1,5.9l21.8,21.8L7.1,49.4c-0.1,0.1-0.1,0.3,0,0.4c0.1,0.1,0.1,0.1,0.2,0.1s0.1,0,0.2-0.1L29.3,28L51,49.8
		c0.1,0.1,0.1,0.1,0.2,0.1c0.1,0,0.2,0,0.2-0.1c0.1-0.1,0.1-0.3,0-0.4L29.7,27.6z"/>
	<g>
		<g>
			<path class="st0" d="M47.2,25l-0.1,0.4h-0.8L46,29.9h-0.7l0.3-4.3l0.5-0.2h-1l0.1-0.4C45.2,25,47.2,25,47.2,25z"/>
			<path class="st0" d="M46.2,30.1h-1.1l0.4-4.5H45l0.1-0.9h2.4l-0.1,0.9h-0.8L46.2,30.1z M45.6,29.7h0.2l0.3-4l-0.2,0.1L45.6,29.7z
				"/>
		</g>
		<g>
			<path class="st0" d="M52.5,25l-0.2,1.1c-0.1,0.5-0.3,0.8-0.5,1.1c-0.3,0.3-0.6,0.4-1.1,0.4l1.1,2L51.2,30l-1.8-3.3
				c-0.1,0-0.2,0.1-0.3,0.2C49,27,49,27.1,48.9,27.1c-0.1,0.1-0.1,0.2-0.1,0.3c0,0.1-0.1,0.2-0.1,0.3l-0.4,2.2h-0.7l0.4-2.1
				c0.1-0.3,0.2-0.7,0.4-0.9c0.2-0.3,0.5-0.4,0.9-0.6l-0.6-1.1l0.5-0.4l1.3,2.3c0.2,0,0.4,0,0.5-0.1s0.3-0.1,0.3-0.2
				c0.1-0.1,0.2-0.2,0.2-0.3c0-0.1,0.1-0.2,0.1-0.4l0.2-1.2h0.7V25z"/>
			<path class="st0" d="M51.2,30.3L49.4,27c0,0-0.1,0-0.1,0.1c-0.1,0.1-0.1,0.1-0.2,0.2c0,0.1-0.1,0.2-0.1,0.2c0,0.1,0,0.2-0.1,0.2
				l-0.4,2.4h-1.1l0.4-2.3c0.1-0.4,0.2-0.7,0.4-1c0.2-0.2,0.4-0.4,0.7-0.6l-0.6-1l0.9-0.7l1.3,2.4c0.1,0,0.2,0,0.3-0.1
				c0.1,0,0.2-0.1,0.3-0.2s0.1-0.1,0.2-0.2c0-0.1,0.1-0.2,0.1-0.3l0.3-1.4h1.1l-0.2,1.4c-0.1,0.5-0.3,0.9-0.6,1.2
				c-0.2,0.2-0.6,0.4-0.9,0.5l1,1.9L51.2,30.3z M47.9,29.7h0.2l0.3-2c0-0.1,0-0.2,0.1-0.3c0-0.1,0.1-0.2,0.2-0.3
				c0.1-0.1,0.2-0.2,0.3-0.3c0,0,0.1-0.1,0.2-0.1c-0.2,0.1-0.4,0.2-0.6,0.4c-0.2,0.2-0.3,0.5-0.3,0.8L47.9,29.7z M49.6,26.5l1.7,3.2
				l0.2-0.1l-1.2-2.1l0,0l-1.2-2.2l-0.2,0.1L49.6,26.5L49.6,26.5z M52,25.2l-0.2,1c0,0.1-0.1,0.3-0.1,0.4c-0.1,0.2-0.1,0.3-0.2,0.4
				c-0.1,0.1-0.3,0.2-0.4,0.3H51c0.3-0.1,0.5-0.2,0.7-0.3c0.2-0.2,0.4-0.6,0.5-1l0.2-0.9H52V25.2z"/>
		</g>
		<g>
			<path class="st0" d="M57.2,29.5l-0.3,0.3h-1.5l0.1-0.4h1.1l0.5-3.1c0-0.2,0-0.4,0-0.5c-0.1-0.1-0.2-0.2-0.3-0.3
				c-0.1-0.1-0.2-0.1-0.4-0.1s-0.3,0-0.4,0c-0.1,0-0.3,0-0.4,0c-0.2,0-0.4,0-0.7,0l-0.8,4.5h-0.7l0.7-4.2l0.5-0.3h-1l0.1-0.3
				c0.1,0,0.3,0,0.5-0.1c0.2,0,0.4,0,0.7-0.1c0.2,0,0.5,0,0.7-0.1c0.2,0,0.4,0,0.5,0c0.3,0,0.5,0,0.7,0.1s0.4,0.1,0.5,0.3
				c0.1,0.1,0.2,0.3,0.3,0.5s0.1,0.4,0,0.7L57.2,29.5z"/>
			<path class="st0" d="M57,30.1h-1.9l0.2-0.9h1.1l0.5-2.9c0-0.2,0-0.3,0-0.4s-0.1-0.2-0.2-0.2c-0.1-0.1-0.2-0.1-0.3-0.1
				s-0.3,0-0.4,0h-0.4c-0.1,0-0.3,0-0.5,0l-0.8,4.5h-1.1l0.8-4.5h-0.5l0.1-0.7h0.2c0.1,0,0.3,0,0.5-0.1c0.2,0,0.4,0,0.6-0.1H55
				c0.2,0,0.5,0,0.7-0.1c0.2,0,0.4,0,0.5,0c0.3,0,0.5,0,0.8,0.1c0.2,0.1,0.5,0.2,0.6,0.3c0.2,0.1,0.3,0.3,0.4,0.6
				c0.1,0.3,0.1,0.5,0,0.8l-0.5,3.2L57,30.1z M56.7,29.7L56.7,29.7l0.3-0.2l0.5-3c0-0.2,0-0.5,0-0.6c0-0.2-0.1-0.3-0.2-0.4
				c-0.1-0.1-0.3-0.2-0.4-0.2c-0.2,0-0.4-0.1-0.7-0.1c-0.1,0-0.3,0-0.5,0s-0.4,0-0.7,0c0.2,0,0.4,0,0.5,0H56c0.1,0,0.3,0,0.4,0
				c0.2,0,0.3,0.1,0.5,0.2s0.3,0.2,0.4,0.4c0.1,0.2,0.1,0.4,0,0.7L56.7,29.7z M53.7,29.7h0.2l0.7-4l-0.2,0.2L53.7,29.7z"/>
		</g>
	</g>
	<g>
		<g>
			<path class="st0" d="M1,30.3H0.6l0.9-4.2c0-0.2,0.1-0.6,0.3-1.2c-0.1,0.1-0.2,0.2-0.3,0.2c-0.1,0.1-0.4,0.3-1,0.6l-0.2-0.3l1.6-1
				h0.4L1,30.3z"/>
			<path class="st0" d="M1.2,30.5H0.4l1-4.5c0-0.1,0.1-0.3,0.1-0.6C1.3,25.5,1,25.7,0.6,26l-0.2,0.1L0,25.4l1.9-1.2h0.7L1.2,30.5z"
				/>
		</g>
		<g>
			<path class="st0" d="M7.8,26.2c0,0.8-0.1,1.5-0.4,2.2s-0.6,1.2-1.1,1.5c-0.4,0.3-1,0.5-1.6,0.5c-0.3,0-0.6,0-0.7-0.1v-0.4
				C4.2,30,4.5,30,4.8,30c1.3,0,2.1-0.9,2.5-2.7l0,0c-0.4,0.5-0.9,0.8-1.5,0.8c-0.4,0-0.8-0.1-1-0.4S4.4,27,4.4,26.6
				s0.1-0.8,0.2-1.1c0.2-0.3,0.4-0.6,0.7-0.8c0.3-0.2,0.6-0.3,1-0.3c0.5,0,0.8,0.2,1.1,0.5C7.7,25.1,7.8,25.6,7.8,26.2z M6.3,24.7
				c-0.3,0-0.6,0.1-0.8,0.2c-0.2,0.2-0.4,0.4-0.5,0.6c-0.1,0.3-0.2,0.6-0.2,0.9c0,0.4,0.1,0.7,0.3,0.9c0.2,0.2,0.4,0.3,0.8,0.3
				c0.2,0,0.4,0,0.6-0.1s0.4-0.2,0.5-0.3c0.1-0.1,0.3-0.3,0.3-0.5c0.1-0.2,0.1-0.4,0.1-0.7c0-0.4-0.1-0.8-0.3-1S6.6,24.7,6.3,24.7z"
				/>
			<path class="st0" d="M4.7,30.6c-0.3,0-0.6,0-0.8-0.1H3.7v-0.8L4,29.8c0.2,0.1,0.5,0.1,0.7,0.1c1,0,1.7-0.6,2.1-1.8
				c-0.3,0.2-0.7,0.3-1.1,0.3c-0.5,0-0.9-0.2-1.2-0.5c-0.3-0.3-0.4-0.7-0.4-1.3c0-0.4,0.1-0.9,0.3-1.2c0.2-0.4,0.4-0.7,0.8-0.9
				c0.3-0.2,0.7-0.3,1.1-0.3c0.5,0,0.9,0.2,1.2,0.5C7.9,25,8,25.5,8,26.2c0,0.8-0.1,1.6-0.4,2.3c-0.3,0.7-0.7,1.3-1.1,1.6
				C6,30.4,5.4,30.6,4.7,30.6z M6.3,24.9c-0.3,0-0.5,0.1-0.7,0.2s-0.3,0.3-0.4,0.6C5.1,25.9,5,26.2,5,26.5s0.1,0.6,0.2,0.8
				c0.1,0.2,0.3,0.2,0.6,0.2c0.2,0,0.4,0,0.5-0.1c0.2-0.1,0.3-0.2,0.4-0.3C7,27,7,26.8,7.1,26.7c0-0.1,0.1-0.3,0.1-0.6
				c0-0.4-0.1-0.7-0.2-0.9C6.8,25,6.6,24.9,6.3,24.9z M7.4,27.1L7.4,27.1c0.1-0.1,0.1-0.3,0.2-0.4c0,0.1,0,0.1,0,0.2
				C7.5,27,7.4,27,7.4,27.1z"/>
		</g>
		<g>
			<path class="st0" d="M12.5,28.8h-1.1l-0.3,1.5h-0.4l0.3-1.5H8.3l0.1-0.4l3.5-4.1h0.5l-0.9,4.1h1.1L12.5,28.8z M11.1,28.4
				c0.2-1,0.4-1.7,0.5-2.2s0.2-1,0.3-1.4l0,0c-0.2,0.2-0.4,0.5-0.5,0.7l-2.6,3h2.3V28.4z"/>
			<path class="st0" d="M11.3,30.5h-0.8l0.3-1.5H8l0.2-0.7l3.6-4.2h0.8l-0.9,4.1h1.1L12.6,29h-1.1L11.3,30.5z M9.3,28.2H11
				c0.2-0.9,0.3-1.6,0.4-2.1c0-0.2,0.1-0.3,0.1-0.5L9.3,28.2z"/>
		</g>
		<g>
			<path class="st0" d="M13.5,28.6c0-0.8,0.1-1.5,0.4-2.2c0.3-0.7,0.6-1.2,1.1-1.5c0.4-0.3,0.9-0.5,1.5-0.5c0.3,0,0.6,0,0.7,0.1
				l-0.1,0.4c-0.2-0.1-0.5-0.1-0.7-0.1c-0.6,0-1.1,0.2-1.6,0.7c-0.4,0.5-0.7,1.1-0.9,2l0,0c0.2-0.3,0.4-0.4,0.7-0.6
				c0.3-0.1,0.5-0.2,0.8-0.2c0.4,0,0.8,0.1,1,0.4s0.4,0.6,0.4,1.1c0,0.4-0.1,0.8-0.2,1.1c-0.2,0.3-0.4,0.6-0.7,0.8
				c-0.3,0.2-0.6,0.3-1,0.3c-0.5,0-0.8-0.2-1.1-0.5C13.6,29.6,13.5,29.1,13.5,28.6z M15,30c0.3,0,0.6-0.1,0.8-0.2
				c0.2-0.2,0.4-0.4,0.5-0.6c0.1-0.3,0.2-0.6,0.2-0.9c0-0.4-0.1-0.7-0.3-0.9C16,27.1,15.8,27,15.4,27c-0.2,0-0.4,0-0.6,0.1
				c-0.2,0.1-0.4,0.2-0.5,0.3c-0.1,0.1-0.3,0.3-0.3,0.5c-0.1,0.2-0.1,0.4-0.1,0.7c0,0.4,0.1,0.8,0.3,1C14.4,29.9,14.7,30,15,30z"/>
			<path class="st0" d="M14.9,30.6c-0.5,0-0.9-0.2-1.2-0.6s-0.4-0.8-0.4-1.5c0-0.8,0.1-1.5,0.4-2.3c0.3-0.7,0.7-1.3,1.2-1.6
				c0.5-0.4,1-0.5,1.7-0.5c0.4,0,0.6,0,0.8,0.1l0.2,0.1l-0.1,0.8L17.2,25c-0.8-0.2-1.5,0-2,0.5c-0.3,0.3-0.5,0.7-0.7,1.2
				c0.1,0,0.1-0.1,0.2-0.1c0.3-0.1,0.6-0.2,0.9-0.2c0.5,0,0.9,0.2,1.2,0.5c0.3,0.3,0.4,0.7,0.4,1.3c0,0.5-0.1,0.9-0.3,1.2
				c-0.2,0.4-0.4,0.7-0.8,0.9C15.8,30.5,15.4,30.6,14.9,30.6z M15.4,27.2c-0.2,0-0.4,0-0.5,0.1c-0.2,0.1-0.3,0.2-0.5,0.3
				c-0.1,0.1-0.2,0.3-0.3,0.4c0,0.1-0.1,0.3-0.1,0.6c0,0.4,0.1,0.7,0.2,0.9c0.2,0.2,0.4,0.3,0.6,0.3c0.3,0,0.5-0.1,0.7-0.2
				s0.3-0.3,0.4-0.6c0.1-0.3,0.2-0.5,0.2-0.8s-0.1-0.6-0.2-0.8C15.9,27.3,15.7,27.2,15.4,27.2z M13.8,27.6c0,0.1,0,0.2,0,0.4v-0.1
				c0-0.1,0.1-0.2,0.1-0.2L13.8,27.6L13.8,27.6z"/>
		</g>
	</g>
	<path class="st0" d="M34.1,53.4c-0.2-0.4-1.9-3.3-2.6-4.3c-0.7-1-2.3-3.4-2.3-3.4L29,45.4c-0.3-2.1-0.3-4-0.1-5.9
		c0.2,0.5,0.5,0.8,0.6,1c-0.1,0.2-0.3,0.4-0.3,0.6c-0.2,0.8,0,1.7,0.6,2.6c0.9,1.2,2.3,1.6,3.2,1c0.9-0.7,0.8-2.1-0.1-3.3
		c-0.9-1.2-2.3-1.6-3.1-1c-0.2-0.2-0.7-0.7-0.8-1.5c0.1-0.7,0.2-1.3,0.4-1.9c0.3,0.3,1.6,1.8,2,2.1l0.1,0.1c0.5,0.4,1.6,0.9,2.2,1.2
		l0.2,0.1c0.1,0.1,0.4,0.3,0.5,0.4c0.5,0.4,1,0.9,1,0.9l1.3,1.3l-0.9-1.6c-0.1-0.1-1.5-2.8-2.7-3.8L33,37.6
		c-1.2-0.9-3.4-1.1-3.5-1.1l0,0c0.1-0.4,0.3-0.9,0.4-1.3h-0.1l0,0h-0.2h-0.3c-0.1,0.3-0.2,0.7-0.4,1h-0.1c-0.1,0-2.2,0-4.2,1.8
		s-4.4,6.8-4.5,7l-0.5,1.2l1-0.8c0.2-0.2,5.2-4.4,5.8-5.2c0.5-0.6,1.6-2,2.2-2.9c-0.2,0.8-0.3,1.6-0.4,2.4L27.8,40
		c-0.1,0.1-1.8,1.5-3.4,4.3c-1,1.7-1.6,3.6-2,5.5l-0.2,0.8l0.6-0.5c1-0.9,3.8-4.1,4.3-5.2c0.3-0.8,0.8-2.9,1-4c0,1.3,0,2.7,0.3,4.2
		l0,0l0.1,1c0,0.1,0.2,3.3,1.5,5.3c1.1,1.8,3.4,3.7,5,4.7l1.3,0.9l-0.9-1.3C34.7,54.4,34.4,53.8,34.1,53.4z M32.4,43.7
		c0.2-0.2,0.4-0.3,0.5-0.2s0.1,0.3-0.1,0.5c-0.2,0.2-0.4,0.3-0.5,0.2C32.2,44.1,32.3,43.9,32.4,43.7z"/>
	<path class="st0" d="M27.4,16.9l2,1.9l2-2l-0.3-9.9V6.7l0.2-0.1c0.1,0,0.1-0.1,0.1-0.2c0.3-0.8,1.2-2.9,2.3-3c0.1,0,0.2,0,0.2,0
		c1.6,0,3.2,1.1,3.5,1.3c0.1,0.1,0.2,0.1,0.3,0.1s0.2,0,0.2-0.1C38,4.6,38.1,4.4,38,4.2l0,0c-0.1-0.2-0.5-1.1-1.4-2.1
		c-1.3-1.4-3-2.1-4.8-2.1h-5l0,0c-0.2,0-0.4,0.1-0.4,0.3c-0.1,0.3-0.3,0.6-0.7,0.6c-0.3,0-0.5-0.2-0.6-0.4V0.4V0.3
		C25,0.2,24.9,0,24.7,0l0,0h-1.9h-0.3c-0.2,0-0.4,0.2-0.4,0.4v4.1c0,0.2,0.2,0.4,0.4,0.4h2.2l0,0c0.2,0,0.4-0.2,0.4-0.4V4.4V4.3
		C25.2,4.2,25.4,4,25.7,4l0,0l0,0l0,0l0,0c0.4,0,0.7,0.1,0.9,0.4c0.5,0.5,0.6,1.5,0.6,1.8c0,0.1,0,0.2,0.1,0.3c0,0,0,0,0.1,0
		l0.1,0.1v0.2L27.4,16.9z"/>
</g>
</svg>
