<?xml version="1.0" encoding="utf-8"?>
<!-- Generator: Adobe Illustrator 19.2.1, SVG Export Plug-In . SVG Version: 6.00 Build 0)  -->
<svg version="1.1" id="Layer_1" xmlns="http://www.w3.org/2000/svg" xmlns:xlink="http://www.w3.org/1999/xlink" x="0px" y="0px"
	 width="36px" height="16.9px" viewBox="0 0 36 16.9" style="enable-background:new 0 0 36 16.9;" xml:space="preserve">
<style type="text/css">
	.st0{fill:#064978;}
</style>
<g>
	<path class="st0" d="M0,8.4c0-0.3,0.1-0.6,0.3-0.7L9,0.2c0.4-0.4,1-0.3,1.4,0.1s0.3,1-0.1,1.4L2.5,8.4l7.8,6.7
		c0.4,0.4,0.4,1,0.1,1.4C10,16.9,9.4,17,9,16.6L0.3,9.2C0.1,9,0,8.7,0,8.4z"/>
	<path class="st0" d="M1.6,8.4c0-0.5,0.4-1,1-1H35c0.5,0,1,0.4,1,1c0,0.5-0.4,1-1,1H2.6C2,9.4,1.6,9,1.6,8.4z"/>
</g>
</svg>
