<?xml version="1.0" encoding="UTF-8"?>
<svg width="26px" height="26px" viewBox="0 0 26 26" version="1.1" xmlns="http://www.w3.org/2000/svg" xmlns:xlink="http://www.w3.org/1999/xlink">
    <!-- Generator: sketchtool 51.3 (57544) - http://www.bohemiancoding.com/sketch -->
    <title>E4002992-B985-4F28-B690-CC2009123BB0</title>
    <desc>Created with sketchtool.</desc>
    <defs>
        <polygon id="path-1" points="0 0 26 0 26 26 0 26"></polygon>
    </defs>
    <g id="Page-1" stroke="none" stroke-width="1" fill="none" fill-rule="evenodd">
        <g id="DESCRIPTION-mobile" transform="translate(-306.000000, -861.000000)">
            <g id="SOCIAL" transform="translate(243.000000, 861.000000)">
                <g id="IN" transform="translate(63.000000, 0.000000)">
                    <mask id="mask-2" fill="white">
                        <use xlink:href="#path-1"></use>
                    </mask>
                    <g id="Clip-2"></g>
                    <path d="M23.2713613,22.5051872 C23.2713613,22.852715 22.9895131,23.1344944 22.6420524,23.1344944 L19.5156545,23.1344944 C19.1681257,23.1344944 18.8863455,22.852715 18.8863455,22.5051872 L18.8863455,16.7764901 C18.8863455,15.9218955 19.1370209,13.0316832 16.653,13.0316832 C14.7262094,13.0316832 14.3353927,15.0099241 14.2569162,15.8977333 L14.2569162,22.5051872 C14.2569162,22.852715 13.9752042,23.1344944 13.6276073,23.1344944 L10.6038482,23.1344944 C10.2563194,23.1344944 9.97453927,22.852715 9.97453927,22.5051872 L9.97453927,10.1816959 C9.97453927,9.83416797 10.2563194,9.55238861 10.6038482,9.55238861 L13.6276073,9.55238861 C13.9751361,9.55238861 14.2569162,9.83416797 14.2569162,10.1816959 L14.2569162,11.2472166 C14.9713717,10.1750257 16.0331518,9.34752003 18.2938586,9.34752003 C23.3000157,9.34752003 23.2713613,14.024445 23.2713613,16.5942183 L23.2713613,22.5051872 Z M5.90431414,8.4011089 C4.3756911,8.4011089 3.1364712,7.16189225 3.1364712,5.63327321 C3.1364712,4.10465418 4.3756911,2.86543753 5.90431414,2.86543753 C7.43293717,2.86543753 8.67215707,4.10465418 8.67215707,5.63327321 C8.67215707,7.16189225 7.43300524,8.4011089 5.90431414,8.4011089 Z M8.04550262,22.4500564 C8.04550262,22.8280764 7.73908377,23.1344944 7.36106283,23.1344944 L4.44756545,23.1344944 C4.0695445,23.1344944 3.76312565,22.8280764 3.76312565,22.4500564 L3.76312565,10.2368947 C3.76312565,9.85880665 4.0695445,9.55238861 4.44756545,9.55238861 L7.36106283,9.55238861 C7.73908377,9.55238861 8.04550262,9.85880665 8.04550262,10.2368947 L8.04550262,22.4500564 Z M23.648089,0 L2.35191099,0 C1.053,0 0,1.05299724 0,2.35190484 L0,23.647959 C0,24.9469347 1.053,26 2.35191099,26 L23.6480209,26 C24.947,26 26,24.9469347 26,23.647959 L26,2.35190484 C26,1.05299724 24.947,0 23.648089,0 Z" id="Fill-1" fill="#0077B7" mask="url(#mask-2)"></path>
                </g>
            </g>
        </g>
    </g>
</svg>