<?xml version="1.0" encoding="utf-8"?>
<!-- Generator: Adobe Illustrator 16.0.0, SVG Export Plug-In . SVG Version: 6.00 Build 0)  -->
<!DOCTYPE svg PUBLIC "-//W3C//DTD SVG 1.1//EN" "http://www.w3.org/Graphics/SVG/1.1/DTD/svg11.dtd">
<svg version="1.1" id="Layer_1" xmlns="http://www.w3.org/2000/svg" xmlns:xlink="http://www.w3.org/1999/xlink" x="0px" y="0px"
	 width="50px" height="47.287px" viewBox="0 0 50 47.287" enable-background="new 0 0 50 47.287" xml:space="preserve">
<g>
	<path fill="#BABABA" d="M25,2.439l22.562,18.649h-4.184c0.043,0.21,0.066,0.427,0.066,0.649v19.809
		c0,1.824-1.479,3.302-3.301,3.302H9.857c-1.823,0-3.301-1.478-3.301-3.302V21.737c0-0.222,0.023-0.439,0.065-0.649H2.438
		l4.117-3.403V8.821h3.641v5.855L25,2.439 M25,0c-0.552,0-1.104,0.187-1.554,0.559L12.635,9.496V8.821
		c0-1.347-1.092-2.438-2.438-2.438H6.556c-1.347,0-2.438,1.092-2.438,2.438v7.716l-3.232,2.672
		c-0.792,0.655-1.089,1.738-0.741,2.705c0.348,0.968,1.266,1.613,2.294,1.613h1.679v18.019c0,3.165,2.575,5.74,5.74,5.74h30.286
		c3.164,0,5.739-2.575,5.739-5.74V23.527h1.679c1.028,0,1.946-0.646,2.295-1.613c0.348-0.968,0.052-2.05-0.741-2.705L26.553,0.559
		C26.102,0.187,25.55,0,25,0"/>
	<path fill="#BABABA" d="M30.007,47.152H19.73c-0.385,0-0.697-0.313-0.697-0.697V32.111c0-1.862,1.515-3.378,3.377-3.378h4.916
		c1.862,0,3.378,1.516,3.378,3.378v14.344C30.705,46.839,30.392,47.152,30.007,47.152z M20.427,45.758h8.884V32.111
		c0-1.094-0.891-1.984-1.984-1.984h-4.916c-1.094,0-1.984,0.891-1.984,1.984V45.758z"/>
	<path fill="#BABABA" d="M5.217,23.139c-0.2,0-0.399-0.086-0.537-0.252c-0.245-0.297-0.204-0.736,0.093-0.981L24.555,5.552
		c0.258-0.213,0.63-0.213,0.888,0l19.782,16.353c0.297,0.245,0.339,0.685,0.094,0.981c-0.246,0.296-0.685,0.337-0.981,0.093
		L25,6.993L5.661,22.979C5.531,23.086,5.374,23.139,5.217,23.139z"/>
	<path fill="#BABABA" d="M38.525,37.028h-2.776c-1.434,0-2.6-1.166-2.6-2.601v-2.776c0-1.435,1.166-2.601,2.6-2.601h2.776
		c1.434,0,2.601,1.166,2.601,2.601v2.776C41.125,35.862,39.958,37.028,38.525,37.028z M35.749,30.444
		c-0.665,0-1.206,0.541-1.206,1.207v2.776c0,0.666,0.541,1.207,1.206,1.207h2.776c0.666,0,1.207-0.541,1.207-1.207v-2.776
		c0-0.666-0.541-1.207-1.207-1.207H35.749z"/>
	<path fill="#BABABA" d="M14.251,37.028h-2.776c-1.434,0-2.6-1.166-2.6-2.601v-2.776c0-1.435,1.167-2.601,2.6-2.601h2.776
		c1.434,0,2.601,1.166,2.601,2.601v2.776C16.852,35.862,15.685,37.028,14.251,37.028z M11.475,30.444
		c-0.666,0-1.207,0.541-1.207,1.207v2.776c0,0.666,0.541,1.207,1.207,1.207h2.776c0.666,0,1.207-0.541,1.207-1.207v-2.776
		c0-0.666-0.542-1.207-1.207-1.207H11.475z"/>
	<path fill="#BABABA" d="M24,39.511h-1.659c-0.385,0-0.697-0.313-0.697-0.697s0.312-0.696,0.697-0.696H24
		c0.385,0,0.697,0.312,0.697,0.696S24.385,39.511,24,39.511z"/>
	<path fill="#BABABA" d="M43.444,22.434H6.556c-0.385,0-0.697-0.312-0.697-0.697s0.312-0.697,0.697-0.697h36.888
		c0.385,0,0.696,0.312,0.696,0.697S43.829,22.434,43.444,22.434z"/>
	<path fill="#BABABA" d="M38.785,18.468H11.215c-0.385,0-0.697-0.312-0.697-0.697s0.312-0.697,0.697-0.697h27.569
		c0.385,0,0.697,0.312,0.697,0.697S39.169,18.468,38.785,18.468z"/>
	<path fill="#BABABA" d="M34.126,14.501H15.873c-0.385,0-0.697-0.312-0.697-0.697s0.312-0.697,0.697-0.697h18.254
		c0.385,0,0.696,0.312,0.696,0.697S34.511,14.501,34.126,14.501z"/>
	<path fill="#BABABA" d="M29.39,10.534h-8.782c-0.385,0-0.697-0.312-0.697-0.697s0.312-0.697,0.697-0.697h8.782
		c0.385,0,0.697,0.312,0.697,0.697S29.775,10.534,29.39,10.534z"/>
</g>
</svg>
