<?xml version="1.0" encoding="utf-8"?>
<!-- Generator: Adobe Illustrator 18.0.0, SVG Export Plug-In . SVG Version: 6.00 Build 0)  -->
<!DOCTYPE svg PUBLIC "-//W3C//DTD SVG 1.1//EN" "http://www.w3.org/Graphics/SVG/1.1/DTD/svg11.dtd">
<svg version="1.1" id="Layer_1" xmlns="http://www.w3.org/2000/svg" xmlns:xlink="http://www.w3.org/1999/xlink" x="0px" y="0px"
	 width="27px" height="21.2px" viewBox="0 0 27 21.2" enable-background="new 0 0 27 21.2" xml:space="preserve">
<g>
	<path fill="#A9CEE8" d="M15.4,1.2c4.8,0,8.7,3.6,9.1,8.3c0.1,0.1,0.4,0.4,1.2,2.1c-2.9,3-8.7,8-11.9,8.4c-0.2,0-0.4,0-0.7,0
		c-3.7,0-12-2.6-12-5.1c2-2.5,3.3-4.4,3.3-4.4l0.1,0v-0.1c0-5.1,4.1-9.2,9.2-9.2H15.4 M15.4,0h-1.6C8.2,0,3.6,4.4,3.4,10
		c-0.3,0.5-1.5,2.1-3.1,4.2C0.1,14.4,0,14.6,0,14.9c0,1.7,1.8,3.3,5.4,4.6c2.7,1,5.8,1.7,7.8,1.7c0.3,0,0.6,0,0.8,0
		c4-0.5,10.5-6.5,12.6-8.7c0.4-0.4,0.4-0.9,0.2-1.4C26.3,9.9,26,9.3,25.7,9c-0.3-2.4-1.5-4.6-3.3-6.3C20.5,1,18,0,15.4,0"/>
	<path fill="#A9CEE8" d="M15.4,1.2c5.1,0,9.2,4.1,9.2,9.2v2.2c0,0-5,3.6-11.8,3.6c-1.1,0-2.2-0.1-3.3-0.3c-4-0.7-4.9-3.4-4.9-3.4
		v-2.2c0-5.1,4.1-9.2,9.2-9.2H15.4 M15.4,0.6h-1.6C8.4,0.6,4,5,4,10.4v2.2v0.1l0,0.1c0,0.1,1,3,5.3,3.8c1.1,0.2,2.3,0.3,3.4,0.3
		c7,0,12-3.6,12.2-3.8l0.2-0.2v-0.3v-2.2C25.2,5,20.8,0.6,15.4,0.6"/>
	<path fill="#A9CEE8" d="M8,7.4C8,7.4,8,7.4,8,7.4l1.1,0.3c0.2,0.1,0.4,0.4,0.3,0.7l-0.5,7.4l-1.8-0.6l0.5-7.4
		C7.7,7.5,7.8,7.4,8,7.4 M8,6.7L8,6.7c-0.5,0-0.9,0.4-0.9,1l-0.5,7.4c0,0.3,0.2,0.5,0.4,0.6l1.8,0.6c0.1,0,0.1,0,0.2,0
		c0.1,0,0.2,0,0.3-0.1c0.2-0.1,0.3-0.3,0.3-0.5L10,8.4c0-0.6-0.3-1.1-0.8-1.3l-1-0.3C8.2,6.8,8.1,6.7,8,6.7"/>
	<path fill="#A9CEE8" d="M7.4,7.7c0,0-0.1,0-0.1,0C7.2,7.6,7.1,7.5,7.2,7.3c0-0.1,0.6-1.6,2.3-3.1c1.5-1.4,4.3-3.1,8.6-3.3
		c0.2,0,0.3,0.1,0.3,0.3c0,0.2-0.1,0.3-0.3,0.3c-8,0.3-10.4,5.9-10.4,6C7.7,7.6,7.6,7.7,7.4,7.7z"/>
	<path fill="#A9CEE8" d="M9.2,16.4C9.2,16.4,9.2,16.4,9.2,16.4c-0.2,0-0.3-0.1-0.3-0.3C8.9,16,9,13,10.4,9.7c1.3-3,4-6.9,9.7-7.9
		c0.2,0,0.3,0.1,0.4,0.2c0,0.2-0.1,0.3-0.2,0.4c-4.3,0.8-7.4,3.3-9.2,7.5c-1.3,3.2-1.4,6.1-1.4,6.2C9.5,16.3,9.4,16.4,9.2,16.4z"/>
	<path fill="#A9CEE8" d="M18,5.4c-0.1,0-0.2,0-0.2-0.1c-0.1-0.1-0.1-0.3,0-0.4c0.1-0.1,2-1.7,4.6-1.5c0.2,0,0.3,0.2,0.3,0.3
		c0,0.2-0.2,0.3-0.3,0.3c-2.3-0.2-4.1,1.4-4.2,1.4C18.2,5.3,18.1,5.4,18,5.4z"/>
	<path fill="#A9CEE8" d="M20.5,6.2c-0.1,0-0.2,0-0.2-0.1c-0.1-0.1-0.1-0.3,0.1-0.4c0,0,1.2-0.9,2.9-1.1c0.2,0,0.3,0.1,0.3,0.3
		c0,0.2-0.1,0.3-0.3,0.3c-1.5,0.2-2.6,1-2.6,1C20.6,6.2,20.5,6.2,20.5,6.2z"/>
	<path fill="#A9CEE8" d="M4.5,18.5c-0.1,0-0.1,0-0.2-0.1c-0.1-0.1-0.2-0.3-0.1-0.4l2.2-2.9C6.6,15,6.8,15,6.9,15.1
		C7,15.2,7,15.4,6.9,15.5l-2.2,2.9C4.7,18.5,4.6,18.5,4.5,18.5z"/>
	<path fill="#A9CEE8" d="M6.7,19.5c-0.1,0-0.1,0-0.2-0.1c-0.1-0.1-0.2-0.3-0.1-0.4l2.2-2.9c0.1-0.1,0.3-0.2,0.4-0.1
		c0.1,0.1,0.2,0.3,0.1,0.4l-2.2,2.9C6.8,19.4,6.7,19.5,6.7,19.5z"/>
</g>
</svg>
