<?xml version="1.0" encoding="utf-8"?>
<!-- Generator: Adobe Illustrator 18.0.0, SVG Export Plug-In . SVG Version: 6.00 Build 0)  -->
<!DOCTYPE svg PUBLIC "-//W3C//DTD SVG 1.1//EN" "http://www.w3.org/Graphics/SVG/1.1/DTD/svg11.dtd">
<svg version="1.1" id="Layer_1" xmlns="http://www.w3.org/2000/svg" xmlns:xlink="http://www.w3.org/1999/xlink" x="0px" y="0px"
	 width="21.8px" height="22px" viewBox="0 0 21.8 22" enable-background="new 0 0 21.8 22" xml:space="preserve">
<g>
	<path fill="#F1F1F1" d="M19.7,9.9h-3c0,0.8,0,1.4,0.1,2.3c0.1,0.9,0.3,1.8,0.7,2.6c0.4,0.9,1,1.7,1.6,2.4c0.6,0.7,1.4,1.3,2.6,1.6
		V22c-2.1-0.4-3.3-1.1-4.5-1.9c-1.2-0.8-2.2-1.8-2.9-2.9c-0.7-1.1-1.3-2.3-1.6-3.5c-0.3-1.3-0.5-2.5-0.5-3.8V0h7.4V9.9z"/>
	<path fill="#F1F1F1" d="M7.4,9.9H4.3c0,0.8,0,1.4,0.1,2.3c0.1,0.9,0.3,1.8,0.7,2.6c0.4,0.9,0.8,1.7,1.4,2.4C7.2,18,8.2,18.5,9,18.8
		V22c-1.6-0.4-3.1-1.1-4.3-1.9c-1.2-0.8-2.1-1.8-2.8-2.9c-0.7-1.1-1.2-2.3-1.5-3.5C0.1,12.4,0,11.1,0,9.9V0h7.4V9.9z"/>
</g>
</svg>
