<?xml version="1.0" encoding="utf-8"?>
<!-- Generator: Adobe Illustrator 19.2.1, SVG Export Plug-In . SVG Version: 6.00 Build 0)  -->
<svg version="1.1" id="Layer_1" xmlns="http://www.w3.org/2000/svg" xmlns:xlink="http://www.w3.org/1999/xlink" x="0px" y="0px"
	 width="32px" height="32.3px" viewBox="0 0 32 32.3" style="enable-background:new 0 0 32 32.3;" xml:space="preserve">
<style type="text/css">
	.st0{fill:#99C86A;}
</style>
<g>
	<path class="st0" d="M29,14.5h-4.4c0,1.2,0.1,2.1,0.2,3.4c0.1,1.3,0.5,2.6,1.1,3.9c0.6,1.3,1.4,2.4,2.4,3.5c0.9,1.1,2,1.9,3.8,2.3
		v4.7c-3-0.7-4.8-1.6-6.6-2.8c-1.8-1.2-3.2-2.6-4.3-4.2c-1.1-1.6-1.9-3.3-2.3-5.2c-0.4-1.8-0.7-3.7-0.7-5.6V0H29V14.5z"/>
	<path class="st0" d="M10.9,14.5H6.3c0,1.2,0.1,2.1,0.2,3.4c0.1,1.3,0.5,2.6,1.1,3.9c0.6,1.3,1.2,2.4,2.1,3.5
		c0.9,1.1,2.4,1.9,3.6,2.3v4.7c-2.4-0.7-4.6-1.6-6.3-2.8c-1.8-1.2-3.1-2.6-4.2-4.2c-1.1-1.6-1.8-3.3-2.2-5.2C0.2,18.2,0,16.4,0,14.5
		V0h10.9V14.5z"/>
</g>
</svg>
