<?xml version="1.0" encoding="utf-8"?>
<!-- Generator: Adobe Illustrator 16.0.0, SVG Export Plug-In . SVG Version: 6.00 Build 0)  -->
<!DOCTYPE svg PUBLIC "-//W3C//DTD SVG 1.1//EN" "http://www.w3.org/Graphics/SVG/1.1/DTD/svg11.dtd">
<svg version="1.1" id="Layer_1" xmlns="http://www.w3.org/2000/svg" xmlns:xlink="http://www.w3.org/1999/xlink" x="0px" y="0px"
	 width="64px" height="90.229px" viewBox="0 0 64 90.229" enable-background="new 0 0 64 90.229" xml:space="preserve">
<g>
	<path fill="#D0CC68" d="M52.604,56.458C59.566,50.583,64,41.801,64,32C64,14.355,49.645,0,32,0C14.354,0,0,14.355,0,32
		c0,9.801,4.434,18.583,11.396,24.458L2.224,79.812c-0.351,0.892-0.134,1.906,0.549,2.579c0.683,0.671,1.7,0.871,2.587,0.507
		l10.413-4.284l4.715,10.226c0.392,0.849,1.242,1.39,2.171,1.39c0.023,0,0.046,0,0.07,0c0.957-0.028,1.806-0.625,2.157-1.517
		L32,70.6l7.113,18.112c0.35,0.892,1.198,1.488,2.155,1.516c0.024,0.001,0.048,0.001,0.071,0.001c0.93,0,1.778-0.541,2.171-1.39
		l4.716-10.226l10.413,4.284c0.885,0.364,1.902,0.164,2.588-0.507c0.682-0.673,0.898-1.688,0.548-2.579L52.604,56.458z
		 M22.484,81.746l-3.328-7.217c-0.537-1.165-1.896-1.699-3.083-1.21l-7.348,3.022l6.674-16.993
		c4.134,2.519,8.883,4.117,13.962,4.534l0.068,0.175L22.484,81.746z M32,59.216C16.992,59.216,4.783,47.007,4.783,32
		S16.992,4.783,32,4.783c15.008,0,27.218,12.209,27.218,27.217S47.007,59.216,32,59.216z M47.925,73.319
		c-1.186-0.49-2.545,0.044-3.082,1.21l-3.328,7.217l-6.946-17.688l0.069-0.175c5.079-0.417,9.828-2.016,13.962-4.535l6.674,16.994
		L47.925,73.319z"/>
	<path fill="#D0CC68" d="M32,7.917C18.721,7.917,7.917,18.72,7.917,32S18.721,56.083,32,56.083c13.28,0,24.083-10.804,24.083-24.083
		S45.28,7.917,32,7.917z M40.761,44.98l-8.437-4.434L23.89,44.98l1.611-9.393l-6.824-6.653l9.43-1.371l4.218-8.545l4.219,8.545
		l9.43,1.371l-6.824,6.653L40.761,44.98z"/>
</g>
</svg>
