<?xml version="1.0" encoding="utf-8"?>
<!-- Generator: Adobe Illustrator 19.2.1, SVG Export Plug-In . SVG Version: 6.00 Build 0)  -->
<svg version="1.1" id="Layer_1" xmlns="http://www.w3.org/2000/svg" xmlns:xlink="http://www.w3.org/1999/xlink" x="0px" y="0px"
	 width="36px" height="16.9px" viewBox="0 0 36 16.9" style="enable-background:new 0 0 36 16.9;" xml:space="preserve">
<style type="text/css">
	.st0{fill:#312720;}
</style>
<g>
	<path class="st0" d="M36,8.4c0,0.3-0.1,0.6-0.3,0.7L27,16.6c-0.4,0.4-1,0.3-1.4-0.1s-0.3-1,0.1-1.4l7.8-6.7l-7.8-6.7
		c-0.4-0.4-0.4-1-0.1-1.4c0.4-0.4,1-0.5,1.4-0.1l8.7,7.4C35.9,7.8,36,8.1,36,8.4z"/>
	<path class="st0" d="M34.4,8.4c0,0.5-0.4,1-1,1H1c-0.5,0-1-0.4-1-1c0-0.5,0.4-1,1-1h32.4C34,7.4,34.4,7.8,34.4,8.4z"/>
</g>
</svg>
