<svg xmlns="http://www.w3.org/2000/svg" viewBox="0 0 9.86 10.44"><defs><style>.cls-1{fill:#045893;}</style></defs><title>right_arr_b2</title><g id="Layer_2" data-name="Layer 2"><g id="Layer_1-2" data-name="Layer 1"><path class="cls-1" d="M9.61,5.83,5.25,10.19a.91.91,0,0,1-.61.25.88.88,0,0,1-.6-.25l-.5-.5a.89.89,0,0,1-.26-.61.87.87,0,0,1,.26-.61l2-2H.78A.8.8,0,0,1,0,5.65V4.79a.8.8,0,0,1,.78-.86H5.5l-2-2a.82.82,0,0,1,0-1.2L4,.25A.84.84,0,0,1,4.64,0a.86.86,0,0,1,.61.25L9.61,4.62a.82.82,0,0,1,.25.6A.86.86,0,0,1,9.61,5.83Z"/></g></g></svg>