<?xml version="1.0" encoding="utf-8"?>
<!-- Generator: Adobe Illustrator 18.0.0, SVG Export Plug-In . SVG Version: 6.00 Build 0)  -->
<!DOCTYPE svg PUBLIC "-//W3C//DTD SVG 1.1//EN" "http://www.w3.org/Graphics/SVG/1.1/DTD/svg11.dtd">
<svg version="1.1" id="Layer_1" xmlns="http://www.w3.org/2000/svg" xmlns:xlink="http://www.w3.org/1999/xlink" x="0px" y="0px"
	 width="22px" height="24.8px" viewBox="0 0 22 24.8" enable-background="new 0 0 22 24.8" xml:space="preserve">
<g>
	<path fill="#A9CEE8" d="M11.6,0.8c1,0,1.7,0.7,1.8,1.7h1.5c0.1,0,0.1,0,0.2,0c0,0,0,0,0.1,0c0,0,0.1,0,0.1,0c0,0,0,0,0.1,0
		c0,0,0.1,0,0.1,0c0,0,0,0,0,0c0.1,0,0.1,0,0.2,0.1c0,0,0,0,0,0c0,0,0.1,0,0.1,0.1c0,0,0,0,0,0c0,0,0.1,0,0.1,0.1c0,0,0,0,0,0
		c0,0,0.1,0,0.1,0.1c0,0,0,0,0,0c0,0,0.1,0.1,0.1,0.1c0,0,0,0,0,0c0,0,0.1,0.1,0.1,0.1c0,0,0,0,0,0c0,0,0,0.1,0.1,0.1c0,0,0,0,0,0
		c0,0,0,0.1,0.1,0.1c0,0,0,0,0,0c0,0,0,0.1,0.1,0.1c0,0,0,0,0,0c0,0,0,0.1,0,0.1h4c0.2,0,0.4,0.1,0.5,0.3c0.1,0.2,0.1,0.5-0.1,0.6
		c-0.1,0.1-1.5,1.9-3.3,2.9c-0.1,1-0.5,1.7-1,2.1v0.8h3.9h0c0.3,0,0.6,0.3,0.6,0.6c0,0.2-0.1,0.3-0.1,0.4c-0.2,0.2-1.6,1.9-3.3,2.9
		c-0.1,1-0.5,1.7-1,2.1v0.8h3.9c0.2,0,0.4,0.1,0.5,0.3c0.1,0.2,0.1,0.5-0.1,0.6c-0.1,0.1-1.5,1.9-3.3,2.9c-0.1,1.1-0.7,2-1.4,2.2
		c-0.3,0.5-0.9,0.8-1.5,0.8H7.1c-0.6,0-1.2-0.3-1.5-0.8c-0.7-0.2-1.3-1.1-1.4-2.2c-1.8-1-3.3-2.8-3.3-2.9c-0.1-0.2-0.2-0.4-0.1-0.6
		c0.1-0.2,0.3-0.3,0.5-0.3h3.9v-0.8c-0.5-0.3-0.9-1.1-1-2.1c-1.8-1-3.3-2.8-3.3-2.9c-0.1-0.2-0.2-0.4-0.1-0.6
		c0.1-0.2,0.3-0.3,0.5-0.3h3.9V9.6c-0.5-0.3-0.9-1.1-1-2.1C2.4,6.5,1,4.7,0.9,4.7C0.7,4.5,0.7,4.2,0.8,4c0.1-0.2,0.3-0.3,0.5-0.3h4
		c0,0,0-0.1,0-0.1c0,0,0,0,0,0c0,0,0-0.1,0.1-0.1c0,0,0,0,0,0c0,0,0-0.1,0.1-0.1c0,0,0,0,0,0c0,0,0-0.1,0.1-0.1c0,0,0,0,0,0
		C5.7,3,5.8,3,5.8,3c0,0,0,0,0,0c0,0,0.1-0.1,0.1-0.1c0,0,0,0,0,0c0,0,0.1,0,0.1-0.1c0,0,0,0,0,0c0,0,0.1,0,0.1-0.1c0,0,0,0,0,0
		c0,0,0.1,0,0.1-0.1c0,0,0,0,0,0c0,0,0.1,0,0.2-0.1c0,0,0,0,0,0c0,0,0.1,0,0.1,0c0,0,0,0,0.1,0c0,0,0.1,0,0.1,0c0,0,0,0,0.1,0
		c0.1,0,0.1,0,0.2,0h1.5c0.1-0.9,0.9-1.7,1.8-1.7H11.6 M11.6,0h-1.2C9.3,0,8.4,0.7,8,1.7H7.1c-0.1,0-0.2,0-0.2,0c0,0,0,0-0.1,0l0,0
		c-0.1,0-0.1,0-0.2,0c0,0-0.1,0-0.1,0c-0.1,0-0.1,0-0.2,0l0,0c0,0,0,0-0.1,0c-0.1,0-0.2,0.1-0.2,0.1c0,0,0,0,0,0c0,0,0,0,0,0
		C6,1.9,6,1.9,5.9,2c0,0,0,0-0.1,0l0,0c0,0-0.1,0.1-0.1,0.1c0,0,0,0-0.1,0c0,0-0.1,0.1-0.1,0.1l0,0c0,0,0,0,0,0c0,0,0,0,0,0
		C5.4,2.3,5.3,2.4,5.3,2.4c0,0,0,0,0,0c0,0-0.1,0.1-0.1,0.1c0,0,0,0,0,0l0,0c0,0-0.1,0.1-0.1,0.1c0,0,0,0,0,0.1c0,0,0,0,0,0.1H1.4
		c-0.5,0-1,0.3-1.2,0.8c-0.2,0.5-0.2,1,0.2,1.4C0.5,5.3,1.8,6.9,3.5,8c0.1,0.7,0.4,1.2,0.7,1.7H1.4c-0.5,0-1,0.3-1.2,0.8
		c-0.2,0.5-0.2,1,0.2,1.4c0.2,0.2,1.5,1.8,3.2,2.9c0.1,0.7,0.4,1.2,0.7,1.7H1.4c-0.5,0-1,0.3-1.2,0.8c-0.2,0.5-0.2,1,0.2,1.4
		c0.2,0.2,1.5,1.8,3.2,2.9c0.2,1.2,0.8,2.1,1.6,2.4c0.5,0.6,1.2,0.9,1.9,0.9h7.8c0.7,0,1.5-0.3,1.9-0.9c0.8-0.3,1.4-1.2,1.6-2.4
		c1.8-1.1,3.1-2.7,3.2-2.9c0.3-0.4,0.4-1,0.2-1.4c-0.2-0.5-0.7-0.8-1.2-0.8h-2.9c0.3-0.4,0.6-1,0.7-1.7c1.7-1.1,3-2.6,3.2-2.8
		c0.2-0.2,0.3-0.6,0.3-0.9c0-0.8-0.6-1.4-1.4-1.4h-2.9c0.3-0.4,0.6-1,0.7-1.7c1.8-1.1,3.1-2.7,3.2-2.9c0.3-0.4,0.4-1,0.2-1.4
		c-0.2-0.5-0.7-0.8-1.2-0.8h-3.5c0,0,0,0,0-0.1c0,0,0,0,0-0.1c0,0-0.1-0.1-0.1-0.1l0,0c0,0,0,0,0,0c0,0-0.1-0.1-0.1-0.1c0,0,0,0,0,0
		c-0.1-0.1-0.1-0.1-0.2-0.1c0,0,0,0,0,0c0,0,0,0,0,0l0,0c0,0-0.1-0.1-0.1-0.1c0,0,0,0-0.1,0c0,0-0.1-0.1-0.1-0.1l0,0c0,0,0,0-0.1,0
		c-0.1,0-0.1-0.1-0.2-0.1c0,0,0,0,0,0c0,0,0,0,0,0c-0.1,0-0.1-0.1-0.2-0.1c0,0,0,0-0.1,0l0,0c-0.1,0-0.1,0-0.2,0c0,0-0.1,0-0.1,0
		c-0.1,0-0.1,0-0.2,0l0,0c0,0,0,0-0.1,0c-0.1,0-0.2,0-0.2,0H14C13.6,0.7,12.7,0,11.6,0"/>
	<path fill="#A9CEE8" d="M8.5,6.6c0-0.1,0-0.1,0-0.2C8.5,6.4,8.5,6.5,8.5,6.6"/>
	<path fill="#A9CEE8" d="M8.6,6.3C8.6,6.3,8.6,6.2,8.6,6.3C8.6,6.2,8.6,6.3,8.6,6.3"/>
	<path fill="#A9CEE8" d="M13.4,6.4c0,0.1,0,0.1,0,0.2C13.5,6.5,13.4,6.4,13.4,6.4"/>
	<path fill="#A9CEE8" d="M13.4,6.2C13.4,6.2,13.4,6.3,13.4,6.2C13.4,6.3,13.4,6.2,13.4,6.2"/>
	<path fill="#A9CEE8" d="M14.1,6.6c0-0.1,0-0.2,0-0.3C14.1,6.4,14.1,6.5,14.1,6.6"/>
	<path fill="#A9CEE8" d="M8.6,6.4C8.6,6.3,8.6,6.3,8.6,6.4C8.6,6.3,8.6,6.3,8.6,6.4"/>
	<path fill="#A9CEE8" d="M13.4,6.3C13.4,6.3,13.4,6.3,13.4,6.3C13.4,6.3,13.4,6.3,13.4,6.3"/>
	<path fill="#A9CEE8" d="M7.9,6.6c0-0.1,0-0.2,0-0.3C7.9,6.4,7.9,6.5,7.9,6.6"/>
	<path fill="#A9CEE8" d="M14,6.3c-0.1-1.6-1.5-2.8-3-2.8c-1.6,0-2.9,1.2-3,2.8c0,0.1,0,0.2,0,0.3c0,1.7,1.4,3.1,3.1,3.1
		c1.7,0,3.1-1.4,3.1-3.1C14.1,6.5,14.1,6.4,14,6.3 M11,9C9.6,9,8.5,7.9,8.5,6.6c0-0.1,0-0.1,0-0.2c0,0,0,0,0-0.1c0,0,0-0.1,0-0.1
		C8.8,5,9.8,4.1,11,4.1c1.2,0,2.2,0.9,2.4,2.1c0,0,0,0.1,0,0.1c0,0,0,0,0,0.1c0,0.1,0,0.1,0,0.2C13.5,7.9,12.4,9,11,9"/>
	<path fill="#A9CEE8" d="M8.6,13.1C8.6,13,8.6,13,8.6,13.1C8.6,13,8.6,13,8.6,13.1"/>
	<path fill="#A9CEE8" d="M13.4,13.6c0,0.1,0,0.1,0,0.2C13.5,13.7,13.4,13.6,13.4,13.6"/>
	<path fill="#A9CEE8" d="M13.4,13.4C13.4,13.5,13.4,13.5,13.4,13.4C13.4,13.5,13.4,13.5,13.4,13.4"/>
	<path fill="#A9CEE8" d="M8.5,13.3c0-0.1,0-0.1,0-0.2C8.5,13.2,8.5,13.3,8.5,13.3"/>
	<path fill="#A9CEE8" d="M13.4,13.5C13.4,13.5,13.4,13.6,13.4,13.5C13.4,13.6,13.4,13.5,13.4,13.5"/>
	<path fill="#A9CEE8" d="M14.1,13.8c0-0.1,0-0.2,0-0.3C14.1,13.6,14.1,13.7,14.1,13.8"/>
	<path fill="#A9CEE8" d="M8.6,13.1C8.6,13.1,8.6,13.1,8.6,13.1C8.6,13.1,8.6,13.1,8.6,13.1"/>
	<path fill="#A9CEE8" d="M7.9,13.3c0-0.1,0-0.2,0-0.3C7.9,13.1,7.9,13.2,7.9,13.3"/>
	<path fill="#A9CEE8" d="M14,13c-0.1-1.6-1.5-2.8-3-2.8c-1.6,0-2.9,1.2-3,2.8c0,0.1,0,0.2,0,0.3c0,1.7,1.4,3.1,3.1,3.1
		c1.7,0,3.1-1.4,3.1-3.1C14.1,13.2,14.1,13.1,14,13 M11,15.7c-1.4,0-2.5-1.1-2.5-2.5c0-0.1,0-0.1,0-0.2c0,0,0,0,0-0.1
		c0,0,0-0.1,0-0.1c0.2-1.2,1.2-2.1,2.4-2.1c1.2,0,2.2,0.9,2.4,2.1c0,0,0,0.1,0,0.1c0,0,0,0,0,0.1c0,0.1,0,0.1,0,0.2
		C13.5,14.6,12.4,15.7,11,15.7"/>
	<path fill="#A9CEE8" d="M8.6,19.7C8.6,19.6,8.6,19.6,8.6,19.7C8.6,19.6,8.6,19.6,8.6,19.7"/>
	<path fill="#A9CEE8" d="M13.4,20.2c0,0.1,0,0.1,0,0.2C13.5,20.3,13.4,20.2,13.4,20.2"/>
	<path fill="#A9CEE8" d="M13.4,20C13.4,20.1,13.4,20.1,13.4,20C13.4,20.1,13.4,20.1,13.4,20"/>
	<path fill="#A9CEE8" d="M8.5,19.9c0-0.1,0-0.1,0-0.2C8.5,19.8,8.5,19.9,8.5,19.9"/>
	<path fill="#A9CEE8" d="M13.4,20.1C13.4,20.1,13.4,20.2,13.4,20.1C13.4,20.2,13.4,20.1,13.4,20.1"/>
	<path fill="#A9CEE8" d="M14.1,20.4c0-0.1,0-0.2,0-0.3C14.1,20.2,14.1,20.3,14.1,20.4"/>
	<path fill="#A9CEE8" d="M8.6,19.7C8.6,19.7,8.6,19.7,8.6,19.7C8.6,19.7,8.6,19.7,8.6,19.7"/>
	<path fill="#A9CEE8" d="M7.9,19.9c0-0.1,0-0.2,0-0.3C7.9,19.7,7.9,19.8,7.9,19.9"/>
	<path fill="#A9CEE8" d="M14,19.6c-0.1-1.6-1.5-2.8-3-2.8c-1.6,0-2.9,1.2-3,2.8c0,0.1,0,0.2,0,0.3c0,1.7,1.4,3.1,3.1,3.1
		c1.7,0,3.1-1.4,3.1-3.1C14.1,19.8,14.1,19.7,14,19.6 M11,22.4c-1.4,0-2.5-1.1-2.5-2.5c0-0.1,0-0.1,0-0.2c0,0,0,0,0-0.1
		c0,0,0-0.1,0-0.1c0.2-1.2,1.2-2.1,2.4-2.1c1.2,0,2.2,0.9,2.4,2.1c0,0,0,0.1,0,0.1c0,0,0,0,0,0.1c0,0.1,0,0.1,0,0.2
		C13.5,21.3,12.4,22.4,11,22.4"/>
	<path fill="#A9CEE8" d="M16.7,8.8v0.8c0.5-0.3,0.9-1.1,1-2.1c-0.2,0.1-0.4,0.2-0.7,0.3C17,8.2,16.9,8.5,16.7,8.8"/>
	<polyline fill="#A9CEE8" points="16.1,4.3 16.1,9.8 16.1,9.8 16.1,7.5 16.1,4.3 16.1,4.3 	"/>
	<path fill="#A9CEE8" d="M16.7,15.5v0.8c0.5-0.3,0.9-1.1,1-2.1c-0.2,0.1-0.4,0.2-0.7,0.3C17,15,16.9,15.3,16.7,15.5"/>
	<polyline fill="#A9CEE8" points="16.1,11 16.1,16.6 16.1,16.6 16.1,14.3 16.1,11 16.1,11 	"/>
	<path fill="#A9CEE8" d="M16.1,17.8v4.5c0,0,0,0,0-0.1v-1.2L16.1,17.8C16.1,17.8,16.1,17.8,16.1,17.8"/>
	<path fill="#A9CEE8" d="M16.7,22.3L16.7,22.3c0,0.4-0.1,0.7-0.3,1c0.7-0.2,1.3-1.1,1.4-2.2c-0.2,0.1-0.4,0.2-0.7,0.3
		C17,21.8,16.9,22.1,16.7,22.3"/>
	<polygon fill="#A9CEE8" points="5.9,4.3 5.9,4.3 5.9,7.5 5.9,9.8 5.9,9.8 	"/>
	<path fill="#A9CEE8" d="M4.9,7.8C4.7,7.7,4.5,7.6,4.2,7.5c0.1,1,0.5,1.7,1,2.1V8.8C5.1,8.5,5,8.2,4.9,7.8"/>
	<path fill="#A9CEE8" d="M4.9,14.6c-0.2-0.1-0.5-0.2-0.7-0.3c0.1,1,0.5,1.7,1,2.1v-0.8C5.1,15.3,5,15,4.9,14.6"/>
	<polygon fill="#A9CEE8" points="5.9,11 5.9,11 5.9,14.3 5.9,16.6 5.9,16.6 	"/>
	<path fill="#A9CEE8" d="M5.9,17.8v3.3v1.2c0,0,0,0,0,0L5.9,17.8C5.9,17.8,5.9,17.8,5.9,17.8"/>
	<path fill="#A9CEE8" d="M5.3,22.3c-0.2-0.2-0.3-0.5-0.4-0.9c-0.2-0.1-0.4-0.2-0.7-0.3c0.1,1.1,0.7,2,1.4,2.2
		C5.4,23,5.3,22.7,5.3,22.3L5.3,22.3z"/>
	<path fill="#A9CEE8" d="M6.6,2.5C6.6,2.5,6.6,2.5,6.6,2.5C6.6,2.5,6.6,2.5,6.6,2.5"/>
	<path fill="#A9CEE8" d="M5.9,4.3L5.9,4.3l-0.6,0v0.2C5.5,4.3,5.7,4.3,5.9,4.3"/>
	<path fill="#A9CEE8" d="M5.5,3.4C5.5,3.4,5.5,3.4,5.5,3.4C5.5,3.4,5.5,3.4,5.5,3.4"/>
	<path fill="#A9CEE8" d="M16.7,4.5V4.3h-0.6v0C16.3,4.3,16.5,4.3,16.7,4.5"/>
	<path fill="#A9CEE8" d="M5.4,3.6C5.4,3.6,5.4,3.5,5.4,3.6C5.4,3.5,5.4,3.6,5.4,3.6"/>
	<polygon fill="#A9CEE8" points="16.7,5.3 16.7,5.3 16.7,7.3 16.7,7.3 	"/>
	<path fill="#A9CEE8" d="M15.7,2.6C15.8,2.6,15.8,2.7,15.7,2.6C15.8,2.7,15.8,2.6,15.7,2.6"/>
	<path fill="#A9CEE8" d="M5.9,11L5.9,11l-0.6,0v0.2C5.5,11.1,5.7,11,5.9,11"/>
	<path fill="#A9CEE8" d="M15.9,2.7C15.9,2.7,15.9,2.7,15.9,2.7C15.9,2.7,15.9,2.7,15.9,2.7"/>
	<polyline fill="#A9CEE8" points="15.6,2.6 15.6,2.6 15.6,2.6 	"/>
	<path fill="#A9CEE8" d="M16,2.8C16,2.8,16,2.8,16,2.8C16,2.8,16,2.8,16,2.8"/>
	<path fill="#A9CEE8" d="M15.1,2.4C15.1,2.4,15.1,2.4,15.1,2.4C15.1,2.4,15.1,2.4,15.1,2.4"/>
	<path fill="#A9CEE8" d="M15.2,2.5C15.2,2.5,15.3,2.5,15.2,2.5C15.3,2.5,15.2,2.5,15.2,2.5"/>
	<path fill="#A9CEE8" d="M15.4,2.5C15.4,2.5,15.4,2.5,15.4,2.5C15.4,2.5,15.4,2.5,15.4,2.5"/>
	<path fill="#A9CEE8" d="M16.7,11.2V11h-0.6v0C16.3,11,16.5,11.1,16.7,11.2"/>
	<path fill="#A9CEE8" d="M6.7,2.5C6.7,2.5,6.8,2.5,6.7,2.5C6.8,2.5,6.7,2.5,6.7,2.5"/>
	<polygon fill="#A9CEE8" points="16.7,12.1 16.7,12.1 16.7,14.1 16.7,14.1 	"/>
	<path fill="#A9CEE8" d="M16.6,3.5C16.6,3.5,16.6,3.6,16.6,3.5C16.6,3.6,16.6,3.5,16.6,3.5"/>
	<path fill="#A9CEE8" d="M16.5,3.3C16.5,3.4,16.5,3.4,16.5,3.3C16.5,3.4,16.5,3.4,16.5,3.3"/>
	<path fill="#A9CEE8" d="M16.3,3.1C16.3,3.1,16.3,3.1,16.3,3.1C16.3,3.1,16.3,3.1,16.3,3.1"/>
	<path fill="#A9CEE8" d="M16.4,3.2C16.4,3.2,16.4,3.2,16.4,3.2C16.4,3.2,16.4,3.2,16.4,3.2"/>
	<path fill="#A9CEE8" d="M16.2,3C16.2,3,16.2,3,16.2,3C16.2,3,16.2,3,16.2,3"/>
	<polyline fill="#A9CEE8" points="5.3,12.1 5.3,14.1 5.3,14.1 5.3,12.1 5.3,12.1 	"/>
	<path fill="#A9CEE8" d="M6.9,2.4C6.9,2.4,6.9,2.4,6.9,2.4C6.9,2.4,6.9,2.4,6.9,2.4"/>
	<polyline fill="#A9CEE8" points="5.3,18.8 5.3,20.9 5.3,20.9 5.3,18.8 5.3,18.8 	"/>
	<path fill="#A9CEE8" d="M5.9,17.8L5.9,17.8l-0.6,0V18C5.5,17.9,5.7,17.8,5.9,17.8"/>
	<polygon fill="#A9CEE8" points="16.7,18.8 16.7,18.8 16.7,20.9 16.7,20.9 	"/>
	<path fill="#A9CEE8" d="M5.8,3C5.8,3,5.8,3,5.8,3C5.8,3,5.8,3,5.8,3"/>
	<path fill="#A9CEE8" d="M6.1,2.8C6.1,2.7,6.1,2.7,6.1,2.8C6.1,2.7,6.1,2.7,6.1,2.8"/>
	<path fill="#A9CEE8" d="M5.9,2.9C6,2.8,6,2.8,5.9,2.9C6,2.8,6,2.8,5.9,2.9"/>
	<path fill="#A9CEE8" d="M6.2,2.7C6.2,2.7,6.2,2.6,6.2,2.7C6.2,2.6,6.2,2.7,6.2,2.7"/>
	<path fill="#A9CEE8" d="M16.1,17.8c0.2,0,0.4,0.1,0.6,0.2v-0.2L16.1,17.8L16.1,17.8z"/>
	<path fill="#A9CEE8" d="M5.7,3.1C5.7,3.1,5.7,3.1,5.7,3.1C5.7,3.1,5.7,3.1,5.7,3.1"/>
	<polyline fill="#A9CEE8" points="6.4,2.6 6.4,2.6 6.4,2.6 	"/>
	<path fill="#A9CEE8" d="M5.6,3.3C5.6,3.2,5.6,3.2,5.6,3.3C5.6,3.2,5.6,3.2,5.6,3.3"/>
	<path fill="#A9CEE8" d="M16.7,5.3V4.5c-0.2-0.1-0.4-0.2-0.6-0.2v3.3c0.2,0,0.4-0.1,0.6-0.2L16.7,5.3C16.7,5.3,16.7,5.3,16.7,5.3"/>
	<path fill="#A9CEE8" d="M16.7,12.1v-0.8c-0.2-0.1-0.4-0.2-0.6-0.2v3.3c0.2,0,0.4-0.1,0.6-0.2L16.7,12.1
		C16.7,12.1,16.7,12.1,16.7,12.1"/>
	<path fill="#A9CEE8" d="M16.7,18.8V18c-0.2-0.1-0.4-0.2-0.6-0.2v3.3c0.2,0,0.4-0.1,0.6-0.2L16.7,18.8
		C16.7,18.8,16.7,18.8,16.7,18.8"/>
	<path fill="#A9CEE8" d="M5.3,4.5v0.8c0,0,0,0,0,0v2.1c0.2,0.1,0.4,0.1,0.6,0.2V4.3C5.7,4.3,5.5,4.3,5.3,4.5"/>
	<path fill="#A9CEE8" d="M5.3,11.2v0.8c0,0,0,0,0,0v2.1c0.2,0.1,0.4,0.1,0.6,0.2V11C5.7,11,5.5,11.1,5.3,11.2"/>
	<path fill="#A9CEE8" d="M5.3,18v0.8c0,0,0,0,0,0v2.1C5.5,21,5.7,21,5.9,21.1v-3.3C5.7,17.8,5.5,17.9,5.3,18"/>
	<path fill="#A9CEE8" d="M15.9,2.8C16,2.8,16,2.8,15.9,2.8C16,2.8,16,2.8,15.9,2.8"/>
	<path fill="#A9CEE8" d="M16.7,4.3h3.9c0,0-1.3,1.5-2.9,2.5c0,0.1,0,0.1,0,0.2c0,0.2,0,0.3,0,0.5c1.8-1,3.3-2.8,3.3-2.9
		c0.1-0.2,0.2-0.4,0.1-0.6c-0.1-0.2-0.3-0.3-0.5-0.3h-4c0,0,0-0.1,0-0.1C16.7,3.8,16.7,4,16.7,4.3L16.7,4.3z"/>
	<path fill="#A9CEE8" d="M6.1,2.7C6.1,2.7,6.2,2.7,6.1,2.7C6.2,2.7,6.1,2.7,6.1,2.7"/>
	<path fill="#A9CEE8" d="M16.3,3.1C16.3,3.1,16.4,3.2,16.3,3.1C16.4,3.2,16.3,3.1,16.3,3.1"/>
	<path fill="#A9CEE8" d="M16.1,2.9c0,0,0.1,0.1,0.1,0.1C16.1,2.9,16.1,2.9,16.1,2.9"/>
	<path fill="#A9CEE8" d="M16.2,3c0,0,0.1,0.1,0.1,0.1C16.3,3,16.2,3,16.2,3"/>
	<path fill="#A9CEE8" d="M6.4,2.6c0,0,0.1,0,0.2-0.1C6.5,2.5,6.5,2.5,6.4,2.6"/>
	<path fill="#A9CEE8" d="M14.9,2.4c0.1,0,0.1,0,0.2,0C15,2.4,14.9,2.4,14.9,2.4"/>
	<path fill="#A9CEE8" d="M15.1,2.4c0,0,0.1,0,0.1,0C15.2,2.5,15.2,2.4,15.1,2.4"/>
	<path fill="#A9CEE8" d="M6.9,2.4c0.1,0,0.1,0,0.2,0C7.1,2.4,7,2.4,6.9,2.4"/>
	<path fill="#A9CEE8" d="M6,2.8C6,2.8,6,2.8,6,2.8C6,2.8,6,2.8,6,2.8"/>
	<path fill="#A9CEE8" d="M20.6,11L20.6,11L20.6,11c0,0-1.3,1.5-2.9,2.5c0,0.1,0,0.1,0,0.2c0,0.2,0,0.3,0,0.5c1.8-1,3.2-2.7,3.3-2.9
		c0.1-0.1,0.1-0.2,0.1-0.4c0-0.3-0.3-0.6-0.6-0.6h0h-3.9V11H20.6z"/>
	<path fill="#A9CEE8" d="M15.3,2.5c0,0,0.1,0,0.1,0C15.4,2.5,15.3,2.5,15.3,2.5"/>
	<path fill="#A9CEE8" d="M15.4,2.5c0.1,0,0.1,0,0.2,0.1C15.5,2.5,15.5,2.5,15.4,2.5"/>
	<path fill="#A9CEE8" d="M15.6,2.6c0,0,0.1,0,0.1,0.1C15.7,2.6,15.7,2.6,15.6,2.6"/>
	<path fill="#A9CEE8" d="M15.8,2.7C15.8,2.7,15.9,2.7,15.8,2.7C15.9,2.7,15.8,2.7,15.8,2.7"/>
	<path fill="#A9CEE8" d="M16.7,21.5c0.1,0,0.3-0.1,0.4-0.1c0-0.2,0.1-0.5,0.1-0.7c-0.2,0.1-0.3,0.1-0.5,0.2V21.5z"/>
	<path fill="#A9CEE8" d="M4.2,13.6c-1.6-1-2.9-2.5-2.9-2.5h3.9v-0.6H1.4c-0.2,0-0.4,0.1-0.5,0.3c-0.1,0.2-0.1,0.5,0.1,0.6
		c0.1,0.1,1.5,1.9,3.3,2.9c0-0.2,0-0.3,0-0.5C4.2,13.7,4.2,13.6,4.2,13.6"/>
	<path fill="#A9CEE8" d="M5.6,3.2C5.6,3.2,5.7,3.1,5.6,3.2C5.7,3.1,5.6,3.2,5.6,3.2"/>
	<path fill="#A9CEE8" d="M6.3,2.6c0,0,0.1,0,0.1-0.1C6.3,2.6,6.3,2.6,6.3,2.6"/>
	<path fill="#A9CEE8" d="M20.6,17.2h-3.9v0.6h3.9c0,0-1.3,1.5-2.9,2.5c0,0.1,0,0.1,0,0.2c0,0.2,0,0.3,0,0.5c1.8-1,3.3-2.8,3.3-2.9
		c0.1-0.2,0.2-0.4,0.1-0.6C21.1,17.3,20.9,17.2,20.6,17.2"/>
	<path fill="#A9CEE8" d="M5.3,14.1C5.1,14.1,5,14,4.8,13.9c0,0.3,0,0.5,0.1,0.7c0.1,0.1,0.3,0.1,0.4,0.1V14.1z"/>
	<path fill="#A9CEE8" d="M5.7,3.1C5.7,3,5.8,3,5.8,3C5.8,3,5.7,3,5.7,3.1"/>
	<path fill="#A9CEE8" d="M4.2,20.3c-1.6-1-2.9-2.5-2.9-2.5h3.9v-0.6H1.4c-0.2,0-0.4,0.1-0.5,0.3c-0.1,0.2-0.1,0.5,0.1,0.6
		C1,18.3,2.4,20,4.2,21.1c0-0.2,0-0.3,0-0.5C4.2,20.5,4.2,20.4,4.2,20.3"/>
	<path fill="#A9CEE8" d="M5.4,3.5c0,0,0-0.1,0.1-0.1C5.5,3.4,5.5,3.5,5.4,3.5"/>
	<path fill="#A9CEE8" d="M5.3,20.9c-0.2-0.1-0.3-0.1-0.5-0.2c0,0.3,0,0.5,0.1,0.7c0.1,0.1,0.3,0.1,0.4,0.1V20.9z"/>
	<path fill="#A9CEE8" d="M16.7,8c0.1,0,0.3-0.1,0.4-0.1c0-0.2,0.1-0.5,0.1-0.7c-0.2,0.1-0.3,0.1-0.5,0.2V8z"/>
	<path fill="#A9CEE8" d="M16.4,3.3C16.4,3.3,16.5,3.3,16.4,3.3C16.5,3.3,16.4,3.3,16.4,3.3"/>
	<path fill="#A9CEE8" d="M16.5,3.4c0,0,0,0.1,0.1,0.1C16.5,3.5,16.5,3.4,16.5,3.4"/>
	<path fill="#A9CEE8" d="M5.5,3.3C5.5,3.3,5.6,3.3,5.5,3.3C5.6,3.3,5.5,3.3,5.5,3.3"/>
	<path fill="#A9CEE8" d="M5.3,7.3C5.1,7.3,5,7.2,4.8,7.1c0,0.3,0,0.5,0.1,0.7C5,7.9,5.2,7.9,5.3,8V7.3z"/>
	<path fill="#A9CEE8" d="M5.8,3c0,0,0.1-0.1,0.1-0.1C5.9,2.9,5.9,2.9,5.8,3"/>
	<path fill="#A9CEE8" d="M16.7,14.8c0.1,0,0.3-0.1,0.4-0.1c0-0.2,0.1-0.5,0.1-0.7c-0.2,0.1-0.3,0.1-0.5,0.2V14.8z"/>
	<path fill="#A9CEE8" d="M6.8,2.5c0,0,0.1,0,0.1,0C6.8,2.4,6.8,2.5,6.8,2.5"/>
	<path fill="#A9CEE8" d="M6.6,2.5c0,0,0.1,0,0.1,0C6.7,2.5,6.6,2.5,6.6,2.5"/>
	<path fill="#A9CEE8" d="M4.2,6.8c-1.6-1-2.9-2.5-2.9-2.5h3.9v0c0-0.2,0-0.5,0.1-0.7c0,0,0,0.1,0,0.1h-4C1.1,3.7,0.9,3.8,0.8,4
		C0.7,4.2,0.7,4.5,0.9,4.7C1,4.7,2.4,6.5,4.2,7.5c0-0.2,0-0.3,0-0.5C4.2,6.9,4.2,6.9,4.2,6.8"/>
	<path fill="#A9CEE8" d="M17.8,6.8c-0.2,0.1-0.4,0.2-0.6,0.3c0,0.3,0,0.5-0.1,0.7c0.2-0.1,0.5-0.2,0.7-0.3c0-0.2,0-0.3,0-0.5
		C17.8,6.9,17.8,6.9,17.8,6.8"/>
	<path fill="#A9CEE8" d="M17.8,13.6c-0.2,0.1-0.4,0.2-0.6,0.3c0,0.3,0,0.5-0.1,0.7c0.2-0.1,0.5-0.2,0.7-0.3c0-0.2,0-0.3,0-0.5
		C17.8,13.7,17.8,13.6,17.8,13.6"/>
	<path fill="#A9CEE8" d="M17.8,20.3c-0.2,0.1-0.4,0.2-0.6,0.3c0,0.3,0,0.5-0.1,0.7c0.2-0.1,0.5-0.2,0.7-0.3c0-0.2,0-0.3,0-0.5
		C17.8,20.5,17.8,20.4,17.8,20.3"/>
	<path fill="#A9CEE8" d="M4.8,7.1C4.6,7,4.4,6.9,4.2,6.8c0,0.1,0,0.1,0,0.2c0,0.2,0,0.3,0,0.5c0.2,0.1,0.4,0.2,0.7,0.3
		C4.9,7.6,4.8,7.4,4.8,7.1"/>
	<path fill="#A9CEE8" d="M4.8,13.9c-0.2-0.1-0.4-0.2-0.6-0.3c0,0.1,0,0.1,0,0.2c0,0.2,0,0.3,0,0.5c0.2,0.1,0.4,0.2,0.7,0.3
		C4.9,14.4,4.8,14.2,4.8,13.9"/>
	<path fill="#A9CEE8" d="M4.8,20.7c-0.2-0.1-0.4-0.2-0.6-0.3c0,0.1,0,0.1,0,0.2c0,0.2,0,0.3,0,0.5c0.2,0.1,0.4,0.2,0.7,0.3
		C4.9,21.2,4.8,20.9,4.8,20.7"/>
	<path fill="#A9CEE8" d="M5.9,11V9.8c-0.2,0-0.4-0.1-0.6-0.2v0.8V11H5.9z"/>
	<path fill="#A9CEE8" d="M5.3,4.3h0.6v0C5.9,3.6,6.4,3,7.1,3h2.1V2.6c0-0.7,0.5-1.2,1.2-1.2h1.2c0.7,0,1.2,0.5,1.2,1.2V3h2.1
		c0.7,0,1.2,0.5,1.2,1.2v0h0.6v0c0-0.2,0-0.5-0.1-0.7c0,0,0,0,0,0c0,0,0-0.1-0.1-0.1c0,0,0,0,0,0c0,0,0-0.1-0.1-0.1c0,0,0,0,0,0
		c0,0,0-0.1-0.1-0.1c0,0,0,0,0,0c0,0-0.1-0.1-0.1-0.1c0,0,0,0,0,0c0,0-0.1-0.1-0.1-0.1c0,0,0,0,0,0c0,0-0.1,0-0.1-0.1c0,0,0,0,0,0
		c0,0-0.1,0-0.1-0.1c0,0,0,0,0,0c0,0-0.1,0-0.1-0.1c0,0,0,0,0,0c0,0-0.1,0-0.2-0.1c0,0,0,0,0,0c0,0-0.1,0-0.1,0c0,0,0,0-0.1,0
		c0,0-0.1,0-0.1,0c0,0,0,0-0.1,0c-0.1,0-0.1,0-0.2,0h-1.5c-0.1-0.9-0.9-1.7-1.8-1.7h-1.2c-1,0-1.7,0.7-1.8,1.7H7.1
		c-0.1,0-0.1,0-0.2,0c0,0,0,0-0.1,0c0,0-0.1,0-0.1,0c0,0,0,0-0.1,0c0,0-0.1,0-0.1,0c0,0,0,0,0,0c-0.1,0-0.1,0-0.2,0.1c0,0,0,0,0,0
		c0,0-0.1,0-0.1,0.1c0,0,0,0,0,0c0,0-0.1,0-0.1,0.1c0,0,0,0,0,0c0,0-0.1,0-0.1,0.1c0,0,0,0,0,0c0,0-0.1,0.1-0.1,0.1c0,0,0,0,0,0
		c0,0-0.1,0.1-0.1,0.1c0,0,0,0,0,0c0,0,0,0.1-0.1,0.1c0,0,0,0,0,0c0,0,0,0.1-0.1,0.1c0,0,0,0,0,0c0,0,0,0.1-0.1,0.1c0,0,0,0,0,0
		C5.3,3.8,5.3,4,5.3,4.3L5.3,4.3z"/>
	<path fill="#A9CEE8" d="M5.9,17.8v-1.3c-0.2,0-0.4-0.1-0.6-0.2v0.8v0.6H5.9z"/>
	<path fill="#A9CEE8" d="M16.1,17.8h0.6v-0.6v-0.8c-0.2,0.1-0.4,0.2-0.6,0.2V17.8z"/>
	<path fill="#A9CEE8" d="M16.1,22.3c0,0.6-0.6,1.2-1.2,1.2H12c-0.3,0.1-0.7,0.2-1,0.2c-0.4,0-0.7-0.1-1-0.2H7.1
		c-0.7,0-1.2-0.5-1.2-1.2v1c-0.1,0-0.2,0-0.3,0c0.3,0.5,0.9,0.8,1.5,0.8h7.8c0.6,0,1.2-0.3,1.5-0.8c-0.1,0-0.2,0-0.3,0V22.3z"/>
	<path fill="#A9CEE8" d="M16.1,11h0.6v-0.6V9.6c-0.2,0.1-0.4,0.2-0.6,0.2V11z"/>
	<polygon fill="#A9CEE8" points="5.3,14.8 5.3,15.5 5.3,15.5 5.3,14.1 5.3,14.1 	"/>
	<polygon fill="#A9CEE8" points="5.3,8 5.3,8.8 5.3,8.8 5.3,7.3 5.3,7.3 	"/>
	<polygon fill="#A9CEE8" points="16.7,7.3 16.7,7.3 16.7,8.8 16.7,8.8 16.7,8 	"/>
	<polygon fill="#A9CEE8" points="16.7,14.1 16.7,14.1 16.7,15.5 16.7,15.5 16.7,14.8 	"/>
	<path fill="#A9CEE8" d="M5.3,21.5v0.7c0,0,0,0,0,0v-1.4c0,0,0,0,0,0V21.5z"/>
	<path fill="#A9CEE8" d="M16.7,21.5v-0.6c0,0,0,0,0,0v1.4c0,0,0,0,0-0.1V21.5z"/>
	<path fill="#A9CEE8" d="M16.7,8.8V7.3c-0.2,0.1-0.4,0.1-0.6,0.2v2.3c0.2,0,0.4-0.1,0.6-0.2L16.7,8.8C16.7,8.8,16.7,8.8,16.7,8.8"/>
	<path fill="#A9CEE8" d="M16.7,15.5v-1.4c-0.2,0.1-0.4,0.1-0.6,0.2v2.3c0.2,0,0.4-0.1,0.6-0.2L16.7,15.5
		C16.7,15.5,16.7,15.5,16.7,15.5"/>
	<path fill="#A9CEE8" d="M16.7,20.9c-0.2,0.1-0.4,0.1-0.6,0.2v1.2c0,0,0,0,0,0.1v1c0.1,0,0.2,0,0.3,0c0.2-0.3,0.3-0.6,0.3-1V20.9z"
		/>
	<path fill="#A9CEE8" d="M5.9,7.5c-0.2,0-0.4-0.1-0.6-0.2v1.4c0,0,0,0,0,0v0.8c0.2,0.1,0.4,0.2,0.6,0.2V7.5z"/>
	<path fill="#A9CEE8" d="M5.9,14.3c-0.2,0-0.4-0.1-0.6-0.2v1.4c0,0,0,0,0,0v0.8c0.2,0.1,0.4,0.2,0.6,0.2V14.3z"/>
	<path fill="#A9CEE8" d="M5.9,22.3C5.9,22.3,5.9,22.3,5.9,22.3l0-1.2c-0.2,0-0.4-0.1-0.6-0.2v1.4c0,0.4,0.1,0.7,0.3,1
		c0.1,0,0.2,0,0.3,0V22.3z"/>
</g>
</svg>
