<?xml version="1.0" encoding="utf-8"?>
<!-- Generator: Adobe Illustrator 16.0.0, SVG Export Plug-In . SVG Version: 6.00 Build 0)  -->
<!DOCTYPE svg PUBLIC "-//W3C//DTD SVG 1.1//EN" "http://www.w3.org/Graphics/SVG/1.1/DTD/svg11.dtd">
<svg version="1.1" id="Layer_1" xmlns="http://www.w3.org/2000/svg" xmlns:xlink="http://www.w3.org/1999/xlink" x="0px" y="0px"
	 width="29px" height="29px" viewBox="0 0 29 29" enable-background="new 0 0 29 29" xml:space="preserve">
<g>
	<defs>
		<rect id="SVGID_1_" x="0.001" y="0.002" width="29" height="29.001"/>
	</defs>
	<clipPath id="SVGID_2_">
		<use xlink:href="#SVGID_1_"  overflow="visible"/>
	</clipPath>
	<path clip-path="url(#SVGID_2_)" fill="#C3C3C3" d="M26.266,13.013h-4.021c0,1.084,0.065,1.854,0.191,3.04
		c0.127,1.186,0.446,2.347,0.953,3.489c0.51,1.145,1.313,2.199,2.138,3.176c0.829,0.972,1.833,1.668,3.475,2.093v4.192
		c-2.736-0.593-4.362-1.441-5.953-2.541c-1.59-1.102-2.929-2.371-3.885-3.811c-0.953-1.44-1.707-2.985-2.089-4.637
		c-0.382-1.652-0.658-3.325-0.658-5.018V0.002h9.849V13.013z"/>
	<path clip-path="url(#SVGID_2_)" fill="#C3C3C3" d="M9.85,13.013H5.74c0,1.084,0.065,1.854,0.191,3.04
		c0.128,1.186,0.447,2.347,0.953,3.489c0.511,1.145,1.084,2.199,1.909,3.176c0.829,0.972,2.151,1.668,3.246,2.093v4.192
		c-2.189-0.593-4.133-1.441-5.725-2.541c-1.589-1.102-2.815-2.371-3.769-3.811c-0.954-1.44-1.607-2.985-1.988-4.637
		c-0.382-1.652-0.557-3.325-0.557-5.018V0.002H9.85V13.013z"/>
</g>
</svg>
