<?xml version="1.0" encoding="UTF-8"?>
<svg width="26px" height="26px" viewBox="0 0 26 26" version="1.1" xmlns="http://www.w3.org/2000/svg" xmlns:xlink="http://www.w3.org/1999/xlink">
    <!-- Generator: sketchtool 51.3 (57544) - http://www.bohemiancoding.com/sketch -->
    <title>0F99B6A3-2CD9-4EA7-BF3F-84D692F7C942</title>
    <desc>Created with sketchtool.</desc>
    <defs>
        <polygon id="path-1" points="0 0 25.9691089 0 25.9691089 25.9485149 0 25.9485149"></polygon>
    </defs>
    <g id="Page-1" stroke="none" stroke-width="1" fill="none" fill-rule="evenodd">
        <g id="DESCRIPTION-mobile" transform="translate(-274.000000, -861.000000)">
            <g id="SOCIAL" transform="translate(243.000000, 861.000000)">
                <g id="WHATSAPP" transform="translate(31.000000, 0.000000)">
                    <path d="M17.0312768,15.5073113 C16.8665244,15.9603806 16.063356,16.3928558 15.713257,16.434044 C15.3632095,16.4752321 15.3632095,16.7224123 13.3655343,15.9603806 C11.3885046,15.1778578 10.1322669,13.1801826 10.0292966,13.0360242 C9.92632634,12.9124598 9.22612832,11.9857271 9.22612832,11.0384004 C9.22612832,10.0910737 9.72038574,9.6174103 9.90573228,9.43206376 C10.0910788,9.24671723 10.2970194,9.18493505 10.4205838,9.18493505 C10.5441481,9.18493505 10.6883065,9.20552911 10.7912768,9.20552911 C10.9148412,9.20552911 11.0589996,9.14374693 11.2237521,9.53503406 C11.3885046,9.92632119 11.7797917,10.8736479 11.8209798,10.9766182 C11.8621679,11.0795885 11.903356,11.1825588 11.8415739,11.3061232 C11.7797917,11.4296875 11.7386036,11.5120638 11.6562273,11.6356281 C11.553257,11.7385984 11.4502867,11.8827568 11.3679105,11.9651331 C11.2649402,12.0681034 11.1619699,12.1710737 11.2855343,12.3564202 C11.4090986,12.5417667 11.8003857,13.1801826 12.3770194,13.6950341 C13.1184055,14.3540954 13.7568214,14.560036 13.9421679,14.6630063 C14.1275659,14.7659766 14.2510788,14.7453311 14.3540491,14.6217667 C14.4776135,14.4982024 14.848358,14.0657271 14.9718709,13.8597865 C15.0954352,13.67444 15.2395937,13.6950341 15.4043461,13.7568162 C15.5896927,13.8185984 16.5370194,14.2922618 16.74296,14.3952321 C16.9283065,14.4982024 17.072465,14.5393905 17.1137046,14.6217667 C17.1754352,14.6630063 17.1754352,15.054242 17.0312768,15.5073113 M13.1184055,6.13701426 C9.43206891,6.13701426 6.4459303,9.10255881 6.4459303,12.7683014 C6.4459303,14.209937 6.91959366,15.5690935 7.72276198,16.6605786 L6.87840554,19.1318657 L9.45266297,18.3081034 C10.50296,19.0083014 11.7797917,19.39964 13.1389996,19.39964 C16.8253362,19.39964 19.8320689,16.434044 19.8320689,12.7683014 C19.8114749,9.10255881 16.8047937,6.13701426 13.1184055,6.13701426" id="Fill-1" fill="#7AD06D"></path>
                    <g>
                        <mask id="mask-2" fill="white">
                            <use xlink:href="#path-1"></use>
                        </mask>
                        <g id="Clip-4"></g>
                        <path d="M13.1184055,20.6558261 C11.7180095,20.6558261 10.4205838,20.3057271 9.26731644,19.6673113 L4.86018772,21.0677073 L6.30177188,16.8459251 C5.5809798,15.6514697 5.16909861,14.2511251 5.16909861,12.7683014 C5.16909861,8.40236079 8.73187089,4.88077663 13.1184055,4.88077663 C17.5049402,4.88077663 21.0677125,8.40236079 21.0677125,12.7683014 C21.0677125,17.1342935 17.5049402,20.6558261 13.1184055,20.6558261 M19.4407818,-1.54455446e-05 L6.50771248,-1.54455446e-05 C2.92434614,-1.54455446e-05 -1.02970297e-05,2.92434099 -1.02970297e-05,6.50770733 L-1.02970297e-05,19.4614222 C-1.02970297e-05,23.024143 2.92434614,25.9485509 6.50771248,25.9485509 L19.4613758,25.9485509 C23.0447422,25.9485509 25.9691501,23.024143 25.9691501,19.4407766 L25.9691501,6.50770733 C25.9485046,2.92434099 23.0241481,-1.54455446e-05 19.4407818,-1.54455446e-05" id="Fill-3" fill="#7AD06D" mask="url(#mask-2)"></path>
                    </g>
                </g>
            </g>
        </g>
    </g>
</svg>