<?xml version="1.0" encoding="utf-8"?>
<!-- Generator: Adobe Illustrator 16.0.0, SVG Export Plug-In . SVG Version: 6.00 Build 0)  -->
<!DOCTYPE svg PUBLIC "-//W3C//DTD SVG 1.1//EN" "http://www.w3.org/Graphics/SVG/1.1/DTD/svg11.dtd">
<svg version="1.1" id="Layer_1" xmlns="http://www.w3.org/2000/svg" xmlns:xlink="http://www.w3.org/1999/xlink" x="0px" y="0px"
	 width="12px" height="12px" viewBox="0 0 12 12" enable-background="new 0 0 12 12" xml:space="preserve">
<g>
	<path fill="#055894" d="M1.066,12c-0.273,0-0.545-0.104-0.754-0.313c-0.416-0.416-0.416-1.092,0-1.508l9.868-9.868
		c0.416-0.417,1.092-0.417,1.508,0c0.416,0.416,0.416,1.091,0,1.507L1.82,11.688C1.612,11.896,1.339,12,1.066,12z"/>
	<path fill="#055894" d="M10.934,12c-0.272,0-0.546-0.104-0.754-0.313L0.313,1.82c-0.417-0.416-0.417-1.091,0-1.507
		c0.417-0.417,1.091-0.417,1.507,0l9.868,9.868c0.416,0.416,0.416,1.092,0,1.508C11.48,11.896,11.207,12,10.934,12z"/>
</g>
</svg>
