<?xml version="1.0" encoding="utf-8"?>
<!-- Generator: Adobe Illustrator 19.2.1, SVG Export Plug-In . SVG Version: 6.00 Build 0)  -->
<svg version="1.1" id="Layer_2" xmlns="http://www.w3.org/2000/svg" xmlns:xlink="http://www.w3.org/1999/xlink" x="0px" y="0px"
	 width="55px" height="55px" viewBox="0 0 55 55" style="enable-background:new 0 0 55 55;" xml:space="preserve">
<style type="text/css">
	.st0{fill:#0962A2;}
</style>
<g>
	<path class="st0" d="M29.1,5.7"/>
	<path class="st0" d="M31.1,52.6c-3.3,0-13-5.9-13.7-9.6c0-0.2,0-0.4-0.2-0.6c0,0.2-0.2,0.4-0.2,0.8c-0.2,1-0.6,2.6-1.2,3.9
		c-0.2,0.4-0.4,0.4-0.8,0.4l0,0c-1.2,0-3.3-2.4-5.1-5.3c-2.2-3.9-6.5-14.1,0.6-26.3l0,0c1.2-2.4,4.3-6.3,10.4-8s13.2-0.8,21,2.7
		c0.2,0,0.2,0.2,0.2,0.4c-0.8,2.9-3.5,4.3-4.9,4.7c2.7,1,11,4.1,14.1,10v0.2c0,0,0,0.2-0.2,0.2c-3.1,1.6-4.7,2.2-5.5,2.4
		c1.4,1.6,7.1,8.8,7.1,17.3c0,0.2,0,0.2-0.2,0.2c-1.4,0.6-2.9,0.8-4.7,0.8c-6.3,0-13.3-3.1-15.1-3.9c0,1.6,0.2,6.5-0.4,9
		C32.4,52.1,32,52.6,31.1,52.6C31.2,52.6,31.1,52.6,31.1,52.6z M17.3,41.7L17.3,41.7c0.4,0,0.4,0.4,0.6,1.4
		c0.8,3.5,10.2,9.2,13.2,9.2l0,0c0.8,0,0.8-0.4,0.8-0.4c0.6-2.7,0.4-9.2,0.4-9.2s0-0.2,0.2-0.2h0.2c0.2,0,12.2,5.9,19.4,3.3
		c-0.2-9.2-7.3-17.1-7.3-17.1v-0.2l0.2-0.2c0,0,1.2,0,5.5-2.2C47,19.5,36.2,16.3,36,16.3c-0.2,0-0.2-0.2-0.2-0.2
		c0-0.2,0-0.2,0.2-0.2c0,0,4.1-0.8,5.3-4.3c-20.8-10-29.1,2-30.4,4.5c-6.9,12-2.7,22-0.6,25.7C12,45,14.2,47,15.2,47
		c0.2,0,0.2,0,0.4-0.2c0.6-1.2,1-2.7,1.2-3.7C16.9,42,16.9,41.7,17.3,41.7z"/>
	<path class="st0" d="M9.9,15.3c-0.2,0-0.4,0-0.6-0.2C6.9,13.8,1.8,9.7,0,1.6C-0.2,1,0.4,0.2,1,0c0.8-0.2,1.4,0.4,1.6,1
		c1.6,7.1,6.1,10.6,7.9,11.8c0.6,0.4,0.8,1.2,0.4,1.8C10.6,15.2,10.2,15.3,9.9,15.3z"/>
	<path class="st0" d="M52.6,46.4c-0.2,0-0.4-0.2-0.6-0.4C38.7,23.8,21.2,20.3,21,20.1c-0.2,0-0.4-0.2-0.6-0.6c0-0.2-0.2-2,2-5.3
		c-5.1-1-8.4,0-10.2,0.6c-0.4,0-0.6,0.2-0.8,0.2c-0.4,0-0.8-0.2-0.8-0.6c-0.2-0.2,0-0.6,0.4-0.6c0.2,0,0.4-0.2,0.8-0.2
		c2.2-0.6,5.9-1.8,12,0c0.2,0,0.4,0.2,0.4,0.4s0,0.4,0,0.6c-1.8,2.4-2.2,3.9-2.2,4.5c1.4,0.4,5.3,1.6,10.2,4.5
		c5.7,3.3,13.9,10,21,21.8c0.2,0.4,0,0.8-0.2,1C52.8,46.4,52.6,46.4,52.6,46.4z"/>
	<path class="st0" d="M26.9,7.3c4.1,0,9,1,14.7,3.7c-1.2,3.9-5.5,4.7-5.5,4.7s11.2,3.3,14.7,10.2c-4.5,2.4-5.7,2.4-5.9,2.4l0,0
		c0,0,7.3,7.9,7.3,17.5c-1.4,0.6-2.9,0.8-4.5,0.8c-7.1,0-15.3-4.1-15.3-4.1s0.2,6.5-0.4,9.4c0,0.4-0.4,0.6-1.2,0.6
		c-3.3,0-12.8-5.7-13.5-9.4c-0.2-0.8-0.2-1.2-0.4-1.2c-0.4,0-0.6,2.9-1.6,5.1c-0.2,0.2-0.4,0.4-0.6,0.4c-2.9,0-14.1-14.7-4.5-31.2
		C13,11.8,18.3,7.3,26.9,7.3 M26.9,4.6c-8,0-14.9,3.7-18.6,10C5.3,19.7,4,25.2,4.2,30.7c0.2,5.5,2,9.8,3.3,12.4
		c1.8,3.3,4.7,6.9,7.5,6.9c1.2,0,2.4-0.6,2.9-1.8l0,0c1.2,1.2,2.7,2.4,4.1,3.1c2.7,1.8,6.5,3.7,9,3.7c2.4,0,3.3-1.6,3.5-2.7
		c0.4-1.6,0.4-3.9,0.4-5.9c3.3,1.2,8,2.7,12.8,2.7c2,0,3.9-0.2,5.5-0.8c1-0.4,1.8-1.4,1.8-2.6c0-6.9-3.3-12.8-5.7-16.1
		c0.8-0.4,1.8-0.8,2.7-1.4c0.6-0.4,1.2-1,1.4-1.6c0.2-0.6,0.2-1.4-0.2-2c-2.4-4.5-7.3-7.7-11-9.4c0.8-1,1.6-2.2,2-3.5
		c0.4-1.2-0.2-2.6-1.4-3.1C37.1,5.9,31.8,4.6,26.9,4.6L26.9,4.6z"/>
	<path class="st0" d="M50.9,26.3h-0.2c-10.6-5.1-21-3.1-21-3.1c-0.4,0-0.6-0.2-0.8-0.6c-0.2-0.4,0.2-0.8,0.6-0.8s10.8-2.2,21.8,3.1
		c0.4,0.2,0.4,0.6,0.4,0.8C51.5,26.1,51.1,26.3,50.9,26.3z"/>
	<path class="st0" d="M26.3,44.2c-0.2,0-0.4-0.2-0.6-0.4c-5.7-9-5.3-17.5-5.3-17.9c0-0.4,0.4-0.6,0.6-0.6c0.4,0,0.6,0.4,0.6,0.8
		c0,0-0.2,8.4,5.1,17.1c0.2,0.4,0.2,0.8-0.2,1C26.5,44.2,26.5,44.2,26.3,44.2z"/>
</g>
</svg>
