<?xml version="1.0" encoding="utf-8"?>
<!-- Generator: Adobe Illustrator 16.0.0, SVG Export Plug-In . SVG Version: 6.00 Build 0)  -->
<!DOCTYPE svg PUBLIC "-//W3C//DTD SVG 1.1//EN" "http://www.w3.org/Graphics/SVG/1.1/DTD/svg11.dtd">
<svg version="1.1" id="Layer_1" xmlns="http://www.w3.org/2000/svg" xmlns:xlink="http://www.w3.org/1999/xlink" x="0px" y="0px"
	 width="70px" height="36.736px" viewBox="0 0 70 36.736" enable-background="new 0 0 70 36.736" xml:space="preserve">
<g>
	<path fill="#414142" d="M49.797,28.562H9.64c-0.4,0-0.726-0.325-0.726-0.726S9.239,27.11,9.64,27.11h40.157
		c0.4,0,0.726,0.325,0.726,0.726S50.197,28.562,49.797,28.562z"/>
	<path fill="#414142" d="M61.207,24.077H8.855c-0.401,0-0.727-0.325-0.727-0.726s0.325-0.726,0.727-0.726h52.352
		c0.401,0,0.727,0.325,0.727,0.726S61.608,24.077,61.207,24.077z M61.207,20.251H8.855c-0.401,0-0.727-0.325-0.727-0.727
		c0-0.401,0.325-0.726,0.727-0.726h52.352c0.401,0,0.727,0.325,0.727,0.726C61.934,19.926,61.608,20.251,61.207,20.251z
		 M61.207,16.429H8.855c-0.401,0-0.727-0.325-0.727-0.727c0-0.401,0.325-0.726,0.727-0.726h52.352c0.401,0,0.727,0.325,0.727,0.726
		C61.934,16.104,61.608,16.429,61.207,16.429z M61.207,12.603H8.855c-0.401,0-0.727-0.325-0.727-0.726
		c0-0.401,0.325-0.727,0.727-0.727h52.352c0.401,0,0.727,0.325,0.727,0.727C61.934,12.277,61.608,12.603,61.207,12.603z
		 M61.207,8.78H8.855c-0.401,0-0.727-0.325-0.727-0.727c0-0.401,0.325-0.726,0.727-0.726h52.352c0.401,0,0.727,0.325,0.727,0.726
		C61.934,8.455,61.608,8.78,61.207,8.78z"/>
	<g>
		<defs>
			<rect id="SVGID_1_" width="70" height="36.736"/>
		</defs>
		<clipPath id="SVGID_2_">
			<use xlink:href="#SVGID_1_"  overflow="visible"/>
		</clipPath>
		<path clip-path="url(#SVGID_2_)" fill="#414142" d="M57.688,28.553c0,0.877-0.713,1.593-1.591,1.593
			c-0.88,0-1.592-0.716-1.592-1.593c0-0.881,0.712-1.592,1.592-1.592C56.975,26.961,57.688,27.672,57.688,28.553"/>
		<path clip-path="url(#SVGID_2_)" fill="#414142" d="M62.216,28.553c0,0.877-0.714,1.593-1.592,1.593
			c-0.882,0-1.594-0.716-1.594-1.593c0-0.881,0.712-1.592,1.594-1.592C61.502,26.961,62.216,27.672,62.216,28.553"/>
		<path clip-path="url(#SVGID_2_)" fill="#414142" d="M4.853,36.736L4.853,36.736C2.177,36.736,0,34.56,0,31.885V4.852
			C0,2.176,2.177,0,4.852,0h60.296C67.823,0,70,2.176,70,4.852v27.033c0,2.674-2.177,4.85-4.853,4.85L4.853,36.736z M4.852,2.905
			c-1.073,0-1.946,0.874-1.946,1.947v27.033c0,1.073,0.874,1.947,1.947,1.947l60.295-0.002c1.073,0,1.947-0.873,1.947-1.945V4.852
			c0-1.073-0.874-1.947-1.947-1.947H4.852z"/>
	</g>
</g>
</svg>
