<?xml version="1.0" encoding="utf-8"?>
<!-- Generator: Adobe Illustrator 16.0.0, SVG Export Plug-In . SVG Version: 6.00 Build 0)  -->
<!DOCTYPE svg PUBLIC "-//W3C//DTD SVG 1.1//EN" "http://www.w3.org/Graphics/SVG/1.1/DTD/svg11.dtd">
<svg version="1.1" id="Layer_1" xmlns="http://www.w3.org/2000/svg" xmlns:xlink="http://www.w3.org/1999/xlink" x="0px" y="0px"
	 width="61px" height="31.424px" viewBox="0 0 61 31.424" enable-background="new 0 0 61 31.424" xml:space="preserve">
<g>
	<path fill="#414142" d="M30.837,7.027c-0.401,0-0.728-0.325-0.728-0.727V0.727C30.11,0.326,30.436,0,30.837,0
		s0.728,0.326,0.728,0.727V6.3C31.565,6.702,31.239,7.027,30.837,7.027z"/>
	<path fill="#424243" d="M28.006,3.514c0,1.433-1.161,2.595-2.593,2.595c-1.433,0-2.594-1.162-2.594-2.595
		c0-1.432,1.161-2.594,2.594-2.594C26.845,0.92,28.006,2.082,28.006,3.514"/>
	<path fill="#424243" d="M38.882,3.514c0,1.433-1.16,2.595-2.595,2.595c-1.432,0-2.593-1.162-2.593-2.595
		c0-1.432,1.161-2.594,2.593-2.594C37.722,0.92,38.882,2.082,38.882,3.514"/>
	<path fill="#414142" d="M46.429,31.424H14.57c-4.892,0-8.872-3.979-8.872-8.872v-9.843h2.909v9.843
		c0,3.288,2.675,5.963,5.963,5.963h31.859c3.288,0,5.963-2.675,5.963-5.963v-9.843h2.909v9.843
		C55.301,27.444,51.322,31.424,46.429,31.424z"/>
	<path fill="#414142" d="M59.545,13.941H1.455C0.651,13.941,0,13.29,0,12.487s0.651-1.455,1.455-1.455h58.091
		c0.804,0,1.455,0.651,1.455,1.455S60.349,13.941,59.545,13.941z"/>
</g>
</svg>
