<?xml version="1.0" encoding="utf-8"?>
<!-- Generator: Adobe Illustrator 16.0.0, SVG Export Plug-In . SVG Version: 6.00 Build 0)  -->
<!DOCTYPE svg PUBLIC "-//W3C//DTD SVG 1.1//EN" "http://www.w3.org/Graphics/SVG/1.1/DTD/svg11.dtd">
<svg version="1.1" id="Layer_1" xmlns="http://www.w3.org/2000/svg" xmlns:xlink="http://www.w3.org/1999/xlink" x="0px" y="0px"
	 width="32px" height="46.237px" viewBox="0 0 32 46.237" enable-background="new 0 0 32 46.237" xml:space="preserve">
<g>
	<path fill="#414142" d="M28.03,46.237H3.968c-2.188,0-3.967-1.781-3.967-3.971L0,3.969C0,1.781,1.78,0,3.968,0H28.03
		C30.219,0,32,1.78,32,3.969v38.297C32,44.456,30.219,46.237,28.03,46.237z M3.968,3.619c-0.192,0-0.349,0.157-0.349,0.35
		L3.62,42.266c0,0.193,0.156,0.352,0.348,0.352H28.03c0.193,0,0.351-0.158,0.351-0.352V3.969c0-0.193-0.157-0.35-0.351-0.35H3.968z"
		/>
	<path fill="#414142" d="M30.19,38.782H1.81c-0.499,0-0.904-0.404-0.904-0.904s0.405-0.905,0.904-0.905H30.19
		c0.5,0,0.905,0.405,0.905,0.905S30.69,38.782,30.19,38.782z M30.19,10.34H1.81c-0.499,0-0.904-0.405-0.904-0.905
		c0-0.5,0.405-0.905,0.904-0.905H30.19c0.5,0,0.905,0.405,0.905,0.905C31.096,9.936,30.69,10.34,30.19,10.34z"/>
	<path fill="#414142" d="M26.694,6.244c0,0.761-0.617,1.377-1.378,1.377s-1.377-0.617-1.377-1.377s0.616-1.377,1.377-1.377
		S26.694,5.483,26.694,6.244"/>
</g>
</svg>
