<?xml version="1.0" encoding="utf-8"?>
<!-- Generator: Adobe Illustrator 16.0.0, SVG Export Plug-In . SVG Version: 6.00 Build 0)  -->
<!DOCTYPE svg PUBLIC "-//W3C//DTD SVG 1.1//EN" "http://www.w3.org/Graphics/SVG/1.1/DTD/svg11.dtd">
<svg version="1.1" id="Layer_1" xmlns="http://www.w3.org/2000/svg" xmlns:xlink="http://www.w3.org/1999/xlink" x="0px" y="0px"
	 width="31px" height="44.755px" viewBox="0 0 31 44.755" enable-background="new 0 0 31 44.755" xml:space="preserve">
<g>
	<path fill="#414142" d="M26.073,44.755H4.928C2.211,44.755,0,42.544,0,39.827V4.928C0,2.21,2.211,0,4.928,0h21.146
		C28.79,0,31,2.21,31,4.928v34.899C31,42.544,28.79,44.755,26.073,44.755z M4.928,3.285c-0.906,0-1.643,0.737-1.643,1.643v34.899
		c0,0.906,0.736,1.643,1.643,1.643h21.146c0.905,0,1.643-0.736,1.643-1.643V4.928c0-0.906-0.737-1.643-1.643-1.643H4.928z"/>
	<path fill="#414142" d="M9.374,22.765c0,1.091-0.885,1.976-1.976,1.976c-1.092,0-1.977-0.884-1.977-1.976
		c0-1.092,0.885-1.976,1.977-1.976C8.489,20.789,9.374,21.673,9.374,22.765"/>
</g>
</svg>
