<?xml version="1.0" encoding="utf-8"?>
<!-- Generator: Adobe Illustrator 16.0.0, SVG Export Plug-In . SVG Version: 6.00 Build 0)  -->
<!DOCTYPE svg PUBLIC "-//W3C//DTD SVG 1.1//EN" "http://www.w3.org/Graphics/SVG/1.1/DTD/svg11.dtd">
<svg version="1.1" id="Layer_1" xmlns="http://www.w3.org/2000/svg" xmlns:xlink="http://www.w3.org/1999/xlink" x="0px" y="0px"
	 width="33px" height="42.989px" viewBox="0 0 33 42.989" enable-background="new 0 0 33 42.989" xml:space="preserve">
<g>
	<path fill="#414142" d="M16.5,42.989c-0.658,0-1.305-0.154-1.869-0.447L9.624,39.99c-1.382-0.733-2.225-2.13-2.225-3.657v-5.036
		c0-0.043,0.001-0.085,0.005-0.128c0.005-0.29-0.116-0.885-0.249-1.079c-0.014-0.009-0.026-0.018-0.039-0.026l-0.178-0.122
		C2.585,26.834,0,21.815,0,16.5C0,7.402,7.401,0,16.5,0C25.598,0,33,7.402,33,16.5c0,4.857-2.133,9.451-5.852,12.604
		c-0.058,0.049-0.119,0.094-0.183,0.134l-0.557,0.352c-0.023,0.015-0.047,0.029-0.07,0.042c-0.117,0.086-0.677,0.561-0.677,1.846
		v4.855c0,1.554-0.864,2.956-2.256,3.659l-5.063,2.558C17.783,42.839,17.159,42.989,16.5,42.989z M10.636,31.297h0.002v5.036
		c0,0.326,0.185,0.627,0.481,0.785l4.991,2.544c0.228,0.116,0.535,0.12,0.761,0.004l5.074-2.563c0.295-0.149,0.479-0.444,0.479-0.77
		v-4.855c0-2.471,1.21-4.031,2.263-4.615l-0.007-0.01l0.458-0.29c2.94-2.534,4.624-6.195,4.624-10.062
		c0-7.313-5.949-13.262-13.262-13.262S3.238,9.188,3.238,16.5c0,4.271,2.078,8.304,5.559,10.79l0.114,0.078
		C10.548,28.381,10.639,30.725,10.636,31.297z M26.31,29.648c-0.229,0.122-0.483,0.188-0.743,0.191
		C25.936,29.835,26.208,29.705,26.31,29.648z"/>
	<path fill="#414142" d="M24.043,33.118H9.019c-0.447,0-0.81-0.362-0.81-0.81s0.362-0.81,0.81-0.81h15.024
		c0.447,0,0.81,0.362,0.81,0.81S24.49,33.118,24.043,33.118z"/>
	<path fill="#414142" d="M24.043,37.143H9.019c-0.447,0-0.81-0.362-0.81-0.81s0.362-0.81,0.81-0.81h15.024
		c0.447,0,0.81,0.362,0.81,0.81S24.49,37.143,24.043,37.143z"/>
</g>
</svg>
