<?xml version="1.0" encoding="utf-8"?>
<!-- Generator: Adobe Illustrator 16.0.0, SVG Export Plug-In . SVG Version: 6.00 Build 0)  -->
<!DOCTYPE svg PUBLIC "-//W3C//DTD SVG 1.1//EN" "http://www.w3.org/Graphics/SVG/1.1/DTD/svg11.dtd">
<svg version="1.1" id="Layer_1" xmlns="http://www.w3.org/2000/svg" xmlns:xlink="http://www.w3.org/1999/xlink" x="0px" y="0px"
	 width="54px" height="40.001px" viewBox="0 0 54 40.001" enable-background="new 0 0 54 40.001" xml:space="preserve">
<path fill="#414142" d="M49.986,39.175H4.085c-1.776,0-3.222-1.446-3.222-3.224v-7.439c0-1.777,1.445-3.223,3.222-3.223h45.901
	c1.777,0,3.224,1.445,3.224,3.223v7.439C53.21,37.729,51.764,39.175,49.986,39.175z M4.085,26.943c-0.864,0-1.567,0.704-1.567,1.568
	v7.439c0,0.865,0.703,1.569,1.567,1.569h45.901c0.866,0,1.57-0.704,1.57-1.569v-7.439c0-0.864-0.704-1.568-1.57-1.568H4.085z"/>
<path fill="#414142" d="M49.986,26.943H4.085c-1.776,0-3.222-1.446-3.222-3.224v-7.438c0-1.777,1.445-3.223,3.222-3.223h45.901
	c1.777,0,3.224,1.446,3.224,3.223v7.438C53.21,25.497,51.764,26.943,49.986,26.943z M4.085,14.712c-0.864,0-1.567,0.704-1.567,1.569
	v7.438c0,0.865,0.703,1.569,1.567,1.569h45.901c0.866,0,1.57-0.704,1.57-1.569v-7.438c0-0.865-0.704-1.569-1.57-1.569H4.085z"/>
<path fill="#414142" d="M49.986,14.712H4.085c-1.776,0-3.222-1.446-3.222-3.224V4.05c0-1.777,1.445-3.224,3.222-3.224h45.901
	c1.777,0,3.224,1.446,3.224,3.224v7.438C53.21,13.266,51.764,14.712,49.986,14.712z M4.085,2.48c-0.864,0-1.567,0.704-1.567,1.57
	v7.438c0,0.866,0.703,1.57,1.567,1.57h45.901c0.866,0,1.57-0.704,1.57-1.57V4.05c0-0.866-0.704-1.57-1.57-1.57H4.085z"/>
<path fill="#414142" d="M49.949,40.001h-45.9C1.816,40.001,0,38.185,0,35.951v-7.439c0-0.896,0.292-1.725,0.786-2.396
	C0.292,25.444,0,24.616,0,23.72v-7.438c0-0.896,0.292-1.725,0.786-2.396C0.292,13.214,0,12.385,0,11.489V4.05
	C0,1.817,1.816,0,4.049,0h45.9C52.184,0,54,1.817,54,4.05v7.438c0,0.896-0.292,1.725-0.787,2.396c0.495,0.671,0.787,1.5,0.787,2.396
	v7.438c0,0.896-0.292,1.725-0.787,2.396c0.495,0.671,0.787,1.5,0.787,2.396v7.439C54,38.185,52.184,40.001,49.949,40.001z
	 M5.702,26.116c0,0.913-0.74,1.654-1.653,1.654c-0.409,0-0.741,0.332-0.741,0.741v7.439c0,0.41,0.332,0.742,0.741,0.742h45.9
	c0.41,0,0.743-0.332,0.743-0.742v-7.439c0-0.409-0.333-0.741-0.743-0.741c-0.913,0-1.653-0.741-1.653-1.654s0.74-1.653,1.653-1.653
	c0.41,0,0.743-0.333,0.743-0.743v-7.438c0-0.409-0.333-0.742-0.743-0.742c-0.913,0-1.653-0.741-1.653-1.654
	c0-0.914,0.74-1.654,1.653-1.654c0.41,0,0.743-0.333,0.743-0.743V4.05c0-0.41-0.333-0.743-0.743-0.743h-45.9
	c-0.409,0-0.741,0.333-0.741,0.743v7.438c0,0.41,0.332,0.743,0.741,0.743c0.913,0,1.653,0.74,1.653,1.654
	c0,0.913-0.74,1.654-1.653,1.654c-0.409,0-0.741,0.333-0.741,0.742v7.438c0,0.41,0.332,0.743,0.741,0.743
	C4.962,24.463,5.702,25.203,5.702,26.116z"/>
</svg>
