<?xml version="1.0" encoding="utf-8"?>
<!-- Generator: Adobe Illustrator 16.0.0, SVG Export Plug-In . SVG Version: 6.00 Build 0)  -->
<!DOCTYPE svg PUBLIC "-//W3C//DTD SVG 1.1//EN" "http://www.w3.org/Graphics/SVG/1.1/DTD/svg11.dtd">
<svg version="1.1" id="Layer_1" xmlns="http://www.w3.org/2000/svg" xmlns:xlink="http://www.w3.org/1999/xlink" x="0px" y="0px"
	 width="42px" height="48.376px" viewBox="0 0 42 48.376" enable-background="new 0 0 42 48.376" xml:space="preserve">
<g>
	<path fill="#414142" d="M10.51,47.818C4.715,47.818,0,43.103,0,37.308c0-5.796,4.715-10.511,10.51-10.511s10.51,4.715,10.51,10.511
		C21.02,43.103,16.305,47.818,10.51,47.818z M10.51,30.396c-3.811,0-6.911,3.101-6.911,6.912c0,3.81,3.101,6.91,6.911,6.91
		s6.91-3.101,6.91-6.91C17.42,33.497,14.32,30.396,10.51,30.396z"/>
	<path fill="#414142" d="M12.16,28.018H8.562V17.552c-0.798-0.564-1.318-1.493-1.318-2.54V3.113C7.243,1.396,8.642,0,10.361,0
		c1.719,0,3.117,1.396,3.117,3.113v11.899c0,1.047-0.521,1.976-1.318,2.541V28.018z"/>
	<path fill="#414142" d="M34.715,43.127c-0.373,0-0.675-0.302-0.675-0.675v-6.479c0-0.372,0.302-0.675,0.675-0.675
		c0.372,0,0.675,0.303,0.675,0.675v6.479C35.39,42.826,35.087,43.127,34.715,43.127z M31.111,43.127
		c-0.373,0-0.675-0.302-0.675-0.675v-6.479c0-0.372,0.302-0.675,0.675-0.675c0.372,0,0.675,0.303,0.675,0.675v6.479
		C31.786,42.826,31.483,43.127,31.111,43.127z"/>
	<rect x="31.199" y="12.807" fill="#414142" width="3.6" height="15.995"/>
	<path fill="#414142" d="M32.999,48.376c-1.64,0-5.67-0.215-7.663-2.199c-0.913-0.909-1.338-2.508-1.338-5.032
		c0-3.761,1.08-10.279,3.036-12.226c1.738-1.731,4.75-1.918,5.965-1.918c1.214,0,4.227,0.187,5.964,1.918
		c1.955,1.946,3.036,8.465,3.037,12.226c0,2.524-0.426,4.122-1.338,5.032C38.669,48.162,34.64,48.376,32.999,48.376z M27.913,43.661
		c0.616,0.562,2.533,1.116,5.086,1.116s4.47-0.555,5.086-1.115c0.926-1.587-0.315-10.74-1.665-12.195
		c-0.43-0.429-1.745-0.865-3.421-0.865s-2.992,0.437-3.426,0.868C28.227,32.921,26.986,42.075,27.913,43.661z"/>
	<path fill="#414142" d="M32.855,18.125c-1.719,0-3.118-1.396-3.118-3.112V3.113C29.737,1.396,31.137,0,32.855,0
		c1.72,0,3.118,1.396,3.118,3.113v11.899C35.974,16.728,34.575,18.125,32.855,18.125z"/>
</g>
</svg>
