<?xml version="1.0" encoding="utf-8"?>
<!-- Generator: Adobe Illustrator 19.2.1, SVG Export Plug-In . SVG Version: 6.00 Build 0)  -->
<svg version="1.1" id="Layer_2" xmlns="http://www.w3.org/2000/svg" xmlns:xlink="http://www.w3.org/1999/xlink" x="0px" y="0px"
	 width="74px" height="74px" viewBox="0 0 74 74" style="enable-background:new 0 0 74 74;" xml:space="preserve">
<style type="text/css">
	.st0{fill:#322721;}
	.st1{fill:none;}
</style>
<ellipse transform="matrix(0.7071 -0.7071 0.7071 0.7071 -4.3462 41.5479)" class="st0" cx="48" cy="26" rx="1.6" ry="1.6"/>
<g>
	<rect x="38.9" y="57.5" transform="matrix(0.707 -0.7072 0.7072 0.707 -28.3583 47.4931)" class="st1" width="8.5" height="0.9"/>
	<polygon class="st1" points="46.1,17.1 41.5,12.5 36.5,17.6 22.6,3.7 17.3,9 35.8,27.4 	"/>
	<polygon class="st1" points="16.4,25.2 16.3,25.1 5.6,20.4 10.3,31.2 10.3,31.2 	"/>
	<rect x="42.3" y="58.9" transform="matrix(0.7071 -0.7072 0.7072 0.7071 -29.7568 50.8687)" class="st1" width="8.5" height="5"/>
	<polygon class="st1" points="46.6,38.2 65,56.7 70.3,51.4 56.4,37.5 61.5,32.5 56.9,27.9 	"/>
	<path class="st1" d="M46.6,67.4l2,2c0.5,0.5,1.2,0.8,2,0.8c0.7,0,1.4-0.3,2-0.8l2.1-2.1c1.1-1.1,1.1-2.8,0-3.9l-2-2L46.6,67.4z"/>
	<polygon class="st0" points="44.5,53.3 44.5,53.3 38,46.8 38,46.8 	"/>
	<path class="st0" d="M39.1,9.6c0.1-0.1,0.1-0.1,0.2-0.1C39.3,9.5,39.2,9.6,39.1,9.6z"/>
	<polygon class="st0" points="51.3,60.1 51.3,60.1 47.8,56.6 47.8,56.6 	"/>
	<polygon class="st0" points="46.5,55.3 46.5,55.3 45.9,54.7 45.9,54.7 	"/>
	<polygon class="st0" points="54.6,63.4 52.6,61.4 52.6,61.4 	"/>
	<path class="st0" d="M40.1,9.1C40.2,9,40.3,9,40.4,9C40.3,9,40.2,9,40.1,9.1z"/>
	<path class="st0" d="M40.8,8.9c0.1,0,0.2,0,0.3,0C41,8.8,40.9,8.8,40.8,8.9z"/>
	<path class="st0" d="M41.1,8.8c0.1,0,0.2,0,0.4,0C41.4,8.8,41.3,8.8,41.1,8.8z"/>
	<path class="st0" d="M41.5,8.8c0.1,0,0.2,0,0.4,0C41.7,8.8,41.6,8.8,41.5,8.8z"/>
	<polygon class="st0" points="40.9,41.2 41.9,40.3 41.9,40.3 	"/>
	<path class="st0" d="M39.7,9.2c0.1,0,0.2-0.1,0.3-0.1C39.9,9.1,39.8,9.2,39.7,9.2z"/>
	<path class="st0" d="M42,8.8c0.1,0,0.2,0,0.3,0C42.1,8.8,42,8.8,42,8.8z"/>
	<path class="st0" d="M40.4,8.9c0.1,0,0.2,0,0.3-0.1C40.6,8.9,40.5,8.9,40.4,8.9z"/>
	<polygon class="st0" points="58.2,23.9 50.1,15.8 44.1,9.9 61.5,27.3 	"/>
	<path class="st0" d="M39.4,9.4c0.1-0.1,0.2-0.1,0.3-0.2C39.6,9.3,39.5,9.4,39.4,9.4z"/>
	<path class="st0" d="M65.2,32.5c0,0.4-0.1,0.7-0.2,1.1C65.2,33.2,65.2,32.9,65.2,32.5z"/>
	<path class="st0" d="M43.7,9.5c0.1,0,0.1,0.1,0.2,0.2C43.8,9.6,43.7,9.5,43.7,9.5z"/>
	<path class="st0" d="M42.3,8.9c0.1,0,0.2,0,0.3,0.1C42.5,8.9,42.4,8.9,42.3,8.9z"/>
	<path class="st0" d="M43.3,9.2c0.1,0.1,0.2,0.1,0.3,0.2C43.5,9.4,43.4,9.3,43.3,9.2z"/>
	<path class="st0" d="M42.6,9c0.1,0,0.2,0.1,0.3,0.1C42.8,9,42.7,9,42.6,9z"/>
	<path class="st0" d="M43,9.1c0.1,0,0.2,0.1,0.3,0.1C43.2,9.2,43.1,9.1,43,9.1z"/>
	<polygon class="st0" points="38.9,9.9 36.5,12.3 36.5,12.3 	"/>
	<polygon class="st0" points="34.5,31.4 31.6,34.2 34.5,31.4 	"/>
	<path class="st0" d="M39.3,45.5l16.6,16.6c1.8,1.8,1.8,4.7,0,6.5l-2.1,2.1c-0.9,0.9-2,1.4-3.3,1.4c-1.2,0-2.4-0.5-3.3-1.4
		L30.6,54.1L13.2,71.6c-0.4,0.4-0.8,0.5-1.3,0.5c-0.5,0-1-0.2-1.3-0.5l-8.1-8.1c-0.3-0.3-0.5-0.8-0.5-1.3c0-0.5,0.2-1,0.5-1.3
		l17.5-17.5L9,32.5c-0.2-0.2-0.3-0.4-0.4-0.6L3.8,21.1c-0.3-0.7-0.2-1.5,0.4-2.1c0.4-0.4,0.8-0.5,1.3-0.5c0.3,0,0.5,0.1,0.8,0.2
		l10.8,4.8c0.2,0.1,0.4,0.2,0.6,0.4l10.9,10.9l4.6-4.6L14.7,11.6l17.1,17.1l-3.3,3.3L19,22.5c-0.3-0.3-0.7-0.6-1.1-0.8L7.1,17
		c-0.5-0.2-1-0.3-1.5-0.3c-1,0-1.9,0.4-2.6,1.1c-1.1,1.1-1.4,2.7-0.8,4.1l4.8,10.8c0.2,0.4,0.4,0.8,0.8,1.1l9.6,9.6L1.1,59.5
		C0.4,60.2,0,61.2,0,62.1c0,1,0.4,1.9,1.1,2.6l8.1,8.1c0.7,0.7,1.7,1.1,2.6,1.1c1,0,1.9-0.4,2.6-1.1l16.1-16.1l15.3,15.3
		c1.2,1.2,2.9,1.9,4.6,1.9c1.7,0,3.4-0.7,4.6-1.9l2.1-2.1c2.5-2.5,2.5-6.6,0-9.2L41.9,45.5l3.3-3.3l-1.3-1.3L39.3,45.5z"/>
	<path class="st0" d="M65.2,32.5c0-1-0.4-1.9-1.1-2.6l-2.6-2.6l2.6,2.6C64.8,30.6,65.2,31.5,65.2,32.5z"/>
	<polygon class="st0" points="17.3,9 35.8,27.4 35.8,27.4 	"/>
	<path class="st0" d="M41.9,8.8C41.9,8.8,41.9,8.8,41.9,8.8C41.9,8.8,41.9,8.8,41.9,8.8z"/>
	<path class="st0" d="M42.2,8.9C42.3,8.9,42.3,8.9,42.2,8.9C42.3,8.9,42.3,8.9,42.2,8.9z"/>
	<polygon class="st0" points="45.2,42.2 62.4,59.3 45.2,42.2 	"/>
	<path class="st0" d="M41,8.8C41.1,8.8,41.1,8.8,41,8.8C41.1,8.8,41.1,8.8,41,8.8z"/>
	<polygon class="st0" points="36.5,12.3 25.2,1.1 36.5,12.3 	"/>
	<polygon class="st0" points="46.6,38.2 65,56.7 46.6,38.2 	"/>
	<path class="st0" d="M43.3,9.2C43.3,9.2,43.3,9.2,43.3,9.2C43.3,9.2,43.3,9.2,43.3,9.2z"/>
	<path class="st0" d="M43.9,9.6C44,9.7,44,9.8,44.1,9.9C44,9.8,44,9.7,43.9,9.6z"/>
	<path class="st0" d="M38.9,9.9C39,9.8,39,9.7,39.1,9.6C39,9.7,39,9.8,38.9,9.9z"/>
	<path class="st0" d="M43.6,9.4C43.6,9.4,43.6,9.5,43.6,9.4C43.6,9.5,43.6,9.4,43.6,9.4z"/>
	<path class="st0" d="M42.6,8.9C42.6,9,42.6,9,42.6,8.9C42.6,9,42.6,9,42.6,8.9z"/>
	<polygon class="st0" points="61.5,32.5 56.9,27.9 56.9,27.9 	"/>
	<path class="st0" d="M42.9,9.1C42.9,9.1,42.9,9.1,42.9,9.1C42.9,9.1,42.9,9.1,42.9,9.1z"/>
	<polygon class="st0" points="46.1,17.1 46.1,17.1 41.5,12.5 46.1,17.1 	"/>
	<path class="st0" d="M40.4,9C40.4,9,40.4,9,40.4,9C40.4,9,40.4,9,40.4,9z"/>
	<path class="st0" d="M40.7,8.9C40.7,8.9,40.7,8.9,40.7,8.9C40.7,8.9,40.7,8.9,40.7,8.9z"/>
	<polygon class="st0" points="55.6,26.6 47.4,18.4 47.4,18.4 55.6,26.6 	"/>
	<path class="st0" d="M39.7,9.3C39.7,9.2,39.7,9.2,39.7,9.3C39.7,9.2,39.7,9.2,39.7,9.3z"/>
	<path class="st0" d="M40,9.1C40,9.1,40.1,9.1,40,9.1C40.1,9.1,40,9.1,40,9.1z"/>
	<path class="st0" d="M39.3,9.5C39.4,9.5,39.4,9.4,39.3,9.5C39.4,9.4,39.4,9.5,39.3,9.5z"/>
	<path class="st0" d="M67.6,59.3l5.3-5.3c0.5-0.5,0.9-1.2,1-1.9c-0.1,0.7-0.5,1.4-1,1.9L67.6,59.3z"/>
	<polygon class="st0" points="43.2,39 43.2,39 45.2,36.9 45.2,36.9 	"/>
	<path class="st0" d="M72.9,48.8L61.7,37.5l2.4-2.4c0.5-0.5,0.8-1,0.9-1.6c0.1-0.3,0.2-0.7,0.2-1.1c0-1-0.4-1.9-1.1-2.6l-2.6-2.6
		L44.1,9.9C44,9.8,44,9.7,43.9,9.6c-0.1-0.1-0.1-0.1-0.2-0.2c0,0-0.1,0-0.1-0.1c-0.1-0.1-0.2-0.1-0.3-0.2c0,0,0,0,0,0
		c-0.1-0.1-0.2-0.1-0.3-0.1c0,0,0,0,0,0C42.8,9,42.7,9,42.6,9c0,0,0,0-0.1,0c-0.1,0-0.2,0-0.3-0.1c0,0-0.1,0-0.1,0
		c-0.1,0-0.2,0-0.3,0c0,0-0.1,0-0.1,0c-0.1,0-0.2,0-0.4,0c-0.1,0-0.2,0-0.4,0c0,0-0.1,0-0.1,0c-0.1,0-0.2,0-0.3,0c0,0-0.1,0-0.1,0
		c-0.1,0-0.2,0-0.3,0.1c0,0,0,0-0.1,0c-0.1,0-0.2,0.1-0.3,0.1c0,0,0,0,0,0c-0.1,0-0.2,0.1-0.3,0.1c0,0,0,0,0,0
		c-0.1,0-0.2,0.1-0.3,0.2c0,0-0.1,0-0.1,0.1c-0.1,0-0.1,0.1-0.2,0.1C39,9.7,39,9.8,38.9,9.9l-2.4,2.4h0l0,0L25.2,1.1
		C24.5,0.4,23.6,0,22.6,0c-1,0-1.9,0.4-2.6,1.1l-5.3,5.3C14,7.1,13.6,8,13.6,9s0.4,1.9,1.1,2.6l18.4,18.4l2.6-2.6L17.3,9l5.3-5.3
		l13.8,13.8l5.1-5.1l4.6,4.6c0.3-0.3,0.8-0.5,1.3-0.5c0.5,0,1,0.2,1.3,0.5l8.1,8.1c0.7,0.7,0.7,1.9,0,2.6h0l4.6,4.6l-5.1,5.1
		l13.8,13.8L65,56.7L46.6,38.2l-2.6,2.6l1.3,1.3l0,0l17.1,17.1c0.7,0.7,1.7,1.1,2.6,1.1s1.9-0.4,2.6-1.1l5.3-5.3
		c0.5-0.5,0.9-1.2,1-1.9c0-0.2,0.1-0.5,0.1-0.7C74,50.4,73.6,49.5,72.9,48.8z"/>
	<polygon class="st0" points="37.1,28.8 37.1,28.8 34.5,31.4 34.5,31.4 	"/>
	<polygon class="st0" points="38.1,44.1 40.9,41.2 38.1,44.1 	"/>
	<polygon class="st0" points="20.9,61.2 20.9,61.2 24.1,58.1 24.1,58.1 	"/>
	<polygon class="st0" points="15.5,66.6 15.5,66.6 19.6,62.5 19.6,62.5 	"/>
	<polygon class="st0" points="31.6,34.2 29.9,36 29.9,36 	"/>
	<polygon class="st0" points="11.9,70.3 14.2,67.9 14.2,67.9 	"/>
	<rect x="34.3" y="22" transform="matrix(0.7071 -0.7071 0.7071 0.7071 -4.0366 36.1443)" class="st0" width="14.6" height="1.9"/>
	<polygon class="st0" points="25.4,56.7 25.4,56.7 29.2,53 29.2,53 	"/>
	<path class="st0" d="M48,34.9c0.4,0.4,0.4,1,0,1.3c-0.2,0.2-0.4,0.3-0.7,0.3c-0.2,0-0.5-0.1-0.7-0.3l-0.4-0.4l-1.1,1.1l1.3,1.3
		l10.3-10.3l-1.3-1.3l-7.9,7.9L48,34.9z"/>
	<polygon class="st0" points="21.2,44.7 3.7,62.1 21.2,44.7 	"/>
	<polygon class="st0" points="38,44.1 38,44.1 38.1,44.1 38.1,44.1 	"/>
	<polygon class="st0" points="29.2,53 29.2,53 29.3,52.8 29.3,52.8 	"/>
	<path class="st0" d="M43.6,40.7c-0.2,0.2-0.4,0.3-0.7,0.3c-0.2,0-0.5-0.1-0.7-0.3l-0.4-0.4l-0.9,0.9l-2.9,2.9l0.4,0.4l-0.4-0.4
		L38,44.1l1.3,1.3l4.6-4.6L43.6,40.7C43.6,40.6,43.6,40.7,43.6,40.7z"/>
	<polygon class="st0" points="38,46.8 38,46.8 36.7,45.5 36.7,45.5 	"/>
	<polygon class="st0" points="29.9,36 31.6,34.2 34.5,31.4 33.2,30.1 28.5,34.7 	"/>
	<path class="st0" d="M29.2,53l0.4,0.4L29.2,53l-3.8,3.8l0.4,0.4c0.4,0.4,0.4,1,0,1.3c-0.2,0.2-0.4,0.3-0.7,0.3
		c-0.2,0-0.5-0.1-0.7-0.3l-0.4-0.4l-3.1,3.1l0.4,0.4c0.4,0.4,0.4,1,0,1.3c-0.2,0.2-0.4,0.3-0.7,0.3c-0.2,0-0.5-0.1-0.7-0.3l-0.4-0.4
		l-4.1,4.1l0.4,0.4c0.4,0.4,0.4,1,0,1.3c-0.2,0.2-0.4,0.3-0.7,0.3c-0.2,0-0.5-0.1-0.7-0.3l-0.4-0.4l-2.4,2.4l-8.1-8.1l17.5-17.5
		l-1.3-1.3L2.4,60.8c-0.3,0.3-0.5,0.8-0.5,1.3c0,0.5,0.2,1,0.5,1.3l8.1,8.1c0.4,0.4,0.8,0.5,1.3,0.5c0.5,0,1-0.2,1.3-0.5l17.5-17.5
		l-1.3-1.3L29.2,53z"/>
	<polygon class="st0" points="55.6,26.6 56.9,27.9 56.9,27.9 55.6,26.6 	"/>
	<polygon class="st0" points="45.2,36.9 45.2,36.9 46.6,38.2 46.6,38.2 	"/>
	<polygon class="st0" points="37.1,28.8 35.8,27.4 35.8,27.4 37.1,28.8 	"/>
	<polygon class="st0" points="46.1,17.1 47.4,18.4 47.4,18.4 46.1,17.1 46.1,17.1 	"/>
	<rect x="33.3" y="28.5" transform="matrix(0.7072 -0.707 0.707 0.7072 -10.5164 33.4522)" class="st0" width="3.7" height="1.9"/>
	<path class="st0" d="M55.6,26.6l1.3,1.3h0c0.7-0.7,0.7-1.9,0-2.6l-8.1-8.1c-0.3-0.3-0.8-0.5-1.3-0.5c-0.5,0-1,0.2-1.3,0.5l1.3,1.3
		L55.6,26.6z"/>
	<path class="st0" d="M43.2,39l0.4,0.4c0.3,0.3,0.4,0.9,0.1,1.2l0.3,0.3l2.6-2.6l-1.3-1.3L43.2,39z"/>
	<path class="st0" d="M45.2,32c-0.4-0.4-1-0.4-1.3,0c-0.4,0.4-0.4,1,0,1.3l2.5,2.5l1.3-1.3L45.2,32z"/>
	<path class="st0" d="M47.4,36.5c0.2,0,0.5-0.1,0.7-0.3c0.4-0.4,0.4-1,0-1.3l-0.4-0.4l-1.3,1.3l0.4,0.4
		C46.9,36.4,47.1,36.5,47.4,36.5z"/>
	<path class="st0" d="M39.5,36.4C39.5,36.4,39.4,36.5,39.5,36.4c-0.5,0.4-0.5,1-0.1,1.4l2.5,2.5l0.7-0.7L39.5,36.4z"/>
	<polygon class="st0" points="42.6,39.5 41.9,40.3 41.9,40.3 42.6,39.5 	"/>
	<path class="st0" d="M43.2,39l-2.5-2.5c-0.3-0.3-0.9-0.4-1.2-0.1l3.1,3.1L43.2,39z"/>
	<polygon class="st0" points="42.6,39.5 42.6,39.5 43.2,39 43.2,39 	"/>
	<path class="st0" d="M41.9,40.3l0.4,0.4c0.2,0.2,0.4,0.3,0.7,0.3c0.2,0,0.5-0.1,0.7-0.3c0,0,0.1-0.1,0.1-0.1l-1.1-1.1L41.9,40.3z"
		/>
	<path class="st0" d="M43.7,40.6c0.3-0.4,0.3-0.9-0.1-1.2L43.2,39l-0.6,0.6L43.7,40.6z"/>
	<path class="st0" d="M21.6,54.3c-0.4,0.4-0.4,1,0,1.3l2.5,2.5l1.3-1.3l-2.5-2.5C22.6,53.9,22,53.9,21.6,54.3z"/>
	<polygon class="st0" points="24.1,58.1 24.1,58.1 25.4,56.7 25.4,56.7 	"/>
	<path class="st0" d="M24.5,58.5c0.2,0.2,0.4,0.3,0.7,0.3c0.2,0,0.5-0.1,0.7-0.3c0.4-0.4,0.4-1,0-1.3l-0.4-0.4l-1.3,1.3L24.5,58.5z"
		/>
	<path class="st0" d="M17.1,58.7c-0.4,0.4-0.4,1,0,1.3l2.5,2.5l1.3-1.3l-2.5-2.5C18.1,58.4,17.5,58.4,17.1,58.7z"/>
	<polygon class="st0" points="19.6,62.5 19.6,62.5 20.9,61.2 20.9,61.2 	"/>
	<path class="st0" d="M20,62.9c0.2,0.2,0.4,0.3,0.7,0.3c0.2,0,0.5-0.1,0.7-0.3c0.4-0.4,0.4-1,0-1.3l-0.4-0.4l-1.3,1.3L20,62.9z"/>
	<path class="st0" d="M11.7,64.1c-0.4,0.4-0.4,1,0,1.3l2.5,2.5l1.3-1.3l-2.5-2.5C12.7,63.8,12.1,63.8,11.7,64.1z"/>
	<polygon class="st0" points="14.2,67.9 14.2,67.9 15.5,66.6 15.5,66.6 	"/>
	<path class="st0" d="M14.6,68.3c0.2,0.2,0.4,0.3,0.7,0.3c0.2,0,0.5-0.1,0.7-0.3c0.4-0.4,0.4-1,0-1.3l-0.4-0.4l-1.3,1.3L14.6,68.3z"
		/>
	<polygon class="st0" points="27.2,36 27.2,36 17.7,26.5 17.7,26.5 	"/>
	<rect x="32.3" y="35" transform="matrix(0.7071 -0.7071 0.7071 0.7071 -19.0682 35.4489)" class="st0" width="1.9" height="11.5"/>
	<rect x="25" y="42.3" transform="matrix(0.7071 -0.7071 0.7071 0.7071 -26.4139 32.4062)" class="st0" width="1.9" height="11.5"/>
	<polygon class="st0" points="16.4,25.2 16.3,25.1 16.4,25.2 	"/>
	<polygon class="st0" points="10.3,31.2 10.3,31.2 10.3,31.2 	"/>
	<polygon class="st0" points="46.6,67.4 48.6,69.4 46.6,67.4 	"/>
	<polygon class="st0" points="32,52.8 32,52.8 38.5,59.4 38.5,59.4 	"/>
	<polygon class="st0" points="11.7,32.5 11.7,32.5 21.2,42 21.2,42 	"/>
	<polygon class="st0" points="41.7,62.6 41.7,62.6 45.3,66.1 45.3,66.1 	"/>
	<polygon class="st0" points="39.8,60.7 39.8,60.7 40.4,61.3 40.4,61.3 	"/>
	<path class="st0" d="M11.7,32.5L11,33.2l-1.3-1.3l0.6-0.6l0,0L5.6,20.4l10.8,4.8l0,0l0.8-0.8l1.3,1.3l-0.8,0.8l9.5,9.5l1.3-1.3
		L17.7,23.8c-0.2-0.2-0.4-0.3-0.6-0.4L6.3,18.7c-0.2-0.1-0.5-0.2-0.8-0.2c-0.5,0-1,0.2-1.3,0.5c-0.5,0.5-0.7,1.4-0.4,2.1l4.8,10.8
		c0.1,0.2,0.2,0.4,0.4,0.6l10.9,10.9l1.3-1.3L11.7,32.5z"/>
	<path class="st0" d="M44.5,53.3l0.8-0.8l1.3,1.3l-0.8,0.8l0.6,0.6l0.8-0.8l1.3,1.3l-0.8,0.8l3.5,3.5l0.8-0.8l1.3,1.3l-0.8,0.8l2,2
		c1.1,1.1,1.1,2.8,0,3.9l-2.1,2.1c-0.5,0.5-1.2,0.8-2,0.8c-0.7,0-1.4-0.3-2-0.8l-2-2l-0.6,0.6l-1.3-1.3l0.6-0.6l-3.5-3.5l-0.6,0.6
		l-1.3-1.3l0.6-0.6l-0.6-0.6l-0.6,0.6L37.9,60l0.6-0.6L32,52.8l-1.3,1.3l16.6,16.6c0.9,0.9,2,1.4,3.3,1.4c1.2,0,2.4-0.5,3.3-1.4
		l2.1-2.1c1.8-1.8,1.8-4.7,0-6.5L39.3,45.5L38,46.8L44.5,53.3z"/>
	<polygon class="st0" points="27.2,36 27.2,36 28.5,37.3 29.9,36 29.9,36 28.5,37.3 	"/>
	<polygon class="st0" points="30.6,51.5 29.3,52.8 29.3,52.8 30.6,51.5 32,52.8 32,52.8 	"/>
	<polygon class="st0" points="36.7,45.5 36.7,45.5 38,44.1 38,44.1 	"/>
	<polygon class="st0" points="22.5,43.4 21.2,42 21.2,42 22.5,43.4 21.2,44.7 21.2,44.7 	"/>
	
		<rect x="29.7" y="51.9" transform="matrix(0.7071 -0.7071 0.7071 0.7071 -28.3701 37.1287)" class="st0" width="1.9" height="1.9"/>
	
		<rect x="27.6" y="35.1" transform="matrix(0.7071 -0.7071 0.7071 0.7071 -17.1124 30.7286)" class="st0" width="1.9" height="1.9"/>
	
		<rect x="20.3" y="42.4" transform="matrix(0.7071 -0.7071 0.7071 0.7071 -24.4584 27.6851)" class="st0" width="1.9" height="1.9"/>
	<rect x="37" y="44.5" transform="matrix(0.7071 -0.7071 0.7071 0.7071 -21.0242 40.1705)" class="st0" width="1.9" height="1.9"/>
	
		<rect x="44.7" y="62.8" transform="matrix(0.7071 -0.7072 0.7072 0.7071 -30.7574 53.2845)" class="st0" width="8.5" height="1.9"/>
	<polygon class="st0" points="52.6,61.4 52.6,61.4 51.3,60.1 51.3,60.1 	"/>
	<polygon class="st0" points="45.3,66.1 45.3,66.1 46.6,67.4 46.6,67.4 	"/>
	<rect x="51.8" y="59.4" transform="matrix(0.707 -0.7072 0.7072 0.707 -27.3424 54.7071)" class="st0" width="1.1" height="1.9"/>
	<rect x="45.2" y="66.2" transform="matrix(0.707 -0.7072 0.7072 0.707 -34.092 51.9126)" class="st0" width="0.9" height="1.9"/>
	<rect x="39.8" y="58" transform="matrix(0.707 -0.7072 0.7072 0.707 -28.7562 48.4538)" class="st0" width="8.5" height="1.9"/>
	<polygon class="st0" points="47.8,56.6 47.8,56.6 46.5,55.3 46.5,55.3 	"/>
	<polygon class="st0" points="40.4,61.3 40.4,61.3 41.7,62.6 41.7,62.6 	"/>
	<rect x="40.3" y="61.3" transform="matrix(0.707 -0.7072 0.7072 0.707 -32.0907 47.0797)" class="st0" width="0.9" height="1.9"/>
	<rect x="47" y="54.6" transform="matrix(0.707 -0.7072 0.7072 0.707 -25.341 49.8741)" class="st0" width="1.1" height="1.9"/>
	
		<rect x="37.9" y="56.1" transform="matrix(0.7071 -0.7071 0.7071 0.7071 -27.9597 46.5282)" class="st0" width="8.5" height="1.9"/>
	<polygon class="st0" points="45.9,54.7 45.9,54.7 44.5,53.3 44.5,53.3 	"/>
	<polygon class="st0" points="38.5,59.4 38.5,59.4 39.8,60.7 39.8,60.7 	"/>
	<rect x="45" y="52.7" transform="matrix(0.7071 -0.7071 0.7071 0.7071 -24.5444 47.9398)" class="st0" width="1.1" height="1.9"/>
	
		<rect x="38.4" y="59.4" transform="matrix(0.7071 -0.7071 0.7071 0.7071 -31.2919 45.1454)" class="st0" width="0.9" height="1.9"/>
	<rect x="9.7" y="27.9" transform="matrix(0.7071 -0.7071 0.7071 0.7071 -16.2902 18.3543)" class="st0" width="8.5" height="1.9"/>
	<polygon class="st0" points="17.7,26.5 17.7,26.5 16.4,25.2 16.4,25.2 	"/>
	<polygon class="st0" points="10.3,31.2 10.3,31.2 11.7,32.5 11.7,32.5 	"/>
	
		<rect x="10.2" y="31.2" transform="matrix(0.7071 -0.7071 0.7071 0.7071 -19.6226 16.9732)" class="st0" width="0.9" height="1.9"/>
	
		<rect x="16.9" y="24.5" transform="matrix(0.7071 -0.7071 0.7071 0.7071 -12.8746 19.7681)" class="st0" width="1.1" height="1.9"/>
</g>
</svg>
