<?xml version="1.0" encoding="utf-8"?>
<!-- Generator: Adobe Illustrator 19.2.1, SVG Export Plug-In . SVG Version: 6.00 Build 0)  -->
<svg version="1.1" id="Layer_2" xmlns="http://www.w3.org/2000/svg" xmlns:xlink="http://www.w3.org/1999/xlink" x="0px" y="0px"
	 width="158.8px" height="158.8px" viewBox="0 0 158.8 158.8" style="enable-background:new 0 0 158.8 158.8;" xml:space="preserve"
	>
<style type="text/css">
	.st0{fill:#322721;}
	.st1{fill:none;}
</style>
<path class="st0" d="M105.3,58.2c-1.3,1.3-3.4,1.3-4.7,0c-1.3-1.3-1.3-3.4,0-4.7c1.3-1.3,3.4-1.3,4.7,0
	C106.6,54.8,106.6,56.9,105.3,58.2z"/>
<rect x="83.5" y="123.5" transform="matrix(0.707 -0.7072 0.7072 0.707 -60.8703 101.9426)" class="st1" width="18.3" height="1.8"/>
<polygon class="st1" points="99,36.8 89.1,26.9 78.2,37.7 48.5,8 37.2,19.3 76.8,58.9 "/>
<polygon class="st1" points="35.1,54 35.1,54 11.9,43.8 22.1,66.9 22.2,67 "/>
<rect x="90.7" y="126.4" transform="matrix(0.7071 -0.7072 0.7072 0.7071 -63.8721 109.1882)" class="st1" width="18.3" height="10.7"/>
<polygon class="st1" points="99.9,82 139.5,121.6 150.8,110.3 121.1,80.6 132,69.8 122.1,59.9 "/>
<path class="st1" d="M100,144.8l4.2,4.2c1.2,1.2,2.7,1.7,4.2,1.7c1.5,0,3-0.6,4.2-1.7l4.5-4.5c2.3-2.3,2.3-6.1,0-8.4l-4.2-4.2
	L100,144.8z"/>
<polygon class="st0" points="95.6,114.5 95.6,114.5 81.5,100.4 81.5,100.4 "/>
<path class="st0" d="M84,20.7c0.1-0.1,0.3-0.2,0.4-0.3C84.3,20.4,84.2,20.6,84,20.7z"/>
<polygon class="st0" points="110.1,129 110.1,129 102.5,121.4 102.5,121.4 "/>
<polygon class="st0" points="99.7,118.6 99.7,118.6 98.4,117.3 98.4,117.3 "/>
<polygon class="st0" points="117.2,136.1 112.9,131.8 112.9,131.8 "/>
<path class="st0" d="M86,19.5c0.2-0.1,0.4-0.2,0.6-0.2C86.4,19.3,86.2,19.4,86,19.5z"/>
<path class="st0" d="M87.5,19c0.2,0,0.4-0.1,0.6-0.1C87.9,19,87.7,19,87.5,19z"/>
<path class="st0" d="M88.3,18.9c0.3,0,0.5,0,0.8,0C88.8,18.9,88.6,18.9,88.3,18.9z"/>
<path class="st0" d="M89.1,18.9c0.3,0,0.5,0,0.8,0C89.6,18.9,89.3,18.9,89.1,18.9z"/>
<polygon class="st0" points="87.9,88.4 89.8,86.4 89.8,86.4 "/>
<path class="st0" d="M85.3,19.8c0.2-0.1,0.4-0.2,0.6-0.3C85.7,19.6,85.5,19.7,85.3,19.8z"/>
<path class="st0" d="M90.1,18.9c0.2,0,0.4,0,0.6,0.1C90.4,19,90.3,19,90.1,18.9z"/>
<path class="st0" d="M86.8,19.2c0.2-0.1,0.4-0.1,0.6-0.1C87.2,19.1,87,19.1,86.8,19.2z"/>
<polygon class="st0" points="124.9,51.4 107.5,33.9 94.7,21.2 132.1,58.6 "/>
<path class="st0" d="M84.6,20.2c0.2-0.1,0.4-0.2,0.6-0.3C85,20,84.8,20.1,84.6,20.2z"/>
<path class="st0" d="M140,69.8c0,0.8-0.1,1.5-0.3,2.3C139.9,71.3,140,70.5,140,69.8z"/>
<path class="st0" d="M93.7,20.3c0.1,0.1,0.3,0.2,0.4,0.3C94,20.5,93.9,20.4,93.7,20.3z"/>
<path class="st0" d="M90.8,19.1c0.2,0,0.4,0.1,0.6,0.1C91.2,19.1,91,19.1,90.8,19.1z"/>
<path class="st0" d="M92.9,19.9c0.2,0.1,0.4,0.2,0.6,0.3C93.3,20.1,93.1,20,92.9,19.9z"/>
<path class="st0" d="M91.5,19.2c0.2,0.1,0.4,0.1,0.6,0.2C91.9,19.4,91.7,19.3,91.5,19.2z"/>
<path class="st0" d="M92.2,19.5c0.2,0.1,0.4,0.2,0.6,0.3C92.6,19.7,92.4,19.6,92.2,19.5z"/>
<polygon class="st0" points="83.4,21.2 78.2,26.4 78.2,26.4 "/>
<polygon class="st0" points="74,67.4 67.9,73.5 74,67.4 "/>
<path class="st0" d="M140,69.8c0-2-0.8-4.1-2.3-5.7l-5.5-5.5l5.5,5.5C139.2,65.7,140,67.7,140,69.8z"/>
<polygon class="st0" points="37.2,19.3 76.8,58.9 76.8,58.9 "/>
<path class="st0" d="M89.9,18.9c0.1,0,0.1,0,0.2,0C90,18.9,89.9,18.9,89.9,18.9z"/>
<path class="st0" d="M90.6,19c0.1,0,0.1,0,0.2,0C90.8,19,90.7,19,90.6,19z"/>
<polygon class="st0" points="97.1,90.5 133.9,127.3 97.1,90.5 "/>
<path class="st0" d="M88.1,18.9c0.1,0,0.1,0,0.2,0C88.2,18.9,88.2,18.9,88.1,18.9z"/>
<polygon class="st0" points="78.2,26.4 54.2,2.3 78.2,26.4 "/>
<polygon class="st0" points="99.9,82 139.5,121.6 99.9,82 "/>
<path class="st0" d="M92.8,19.8C92.9,19.8,92.9,19.8,92.8,19.8C92.9,19.8,92.9,19.8,92.8,19.8z"/>
<path class="st0" d="M94.1,20.7c0.2,0.2,0.4,0.3,0.6,0.5C94.5,21,94.4,20.8,94.1,20.7z"/>
<path class="st0" d="M83.4,21.2c0.2-0.2,0.4-0.4,0.6-0.5C83.8,20.8,83.6,21,83.4,21.2z"/>
<path class="st0" d="M93.5,20.2c0.1,0,0.1,0.1,0.2,0.1C93.6,20.3,93.6,20.2,93.5,20.2z"/>
<path class="st0" d="M91.4,19.2c0,0,0.1,0,0.1,0C91.5,19.2,91.4,19.2,91.4,19.2z"/>
<polygon class="st0" points="132,69.8 122.1,59.9 122.1,59.9 "/>
<path class="st0" d="M92.1,19.5C92.2,19.5,92.2,19.5,92.1,19.5C92.2,19.5,92.2,19.5,92.1,19.5z"/>
<polygon class="st0" points="99,36.8 99,36.8 89.1,26.9 99,36.8 "/>
<path class="st0" d="M86.6,19.2c0,0,0.1,0,0.1,0C86.7,19.2,86.7,19.2,86.6,19.2z"/>
<path class="st0" d="M87.4,19.1c0.1,0,0.1,0,0.2,0C87.5,19,87.4,19,87.4,19.1z"/>
<polygon class="st0" points="119.3,57 101.8,39.6 101.8,39.6 119.3,57 "/>
<path class="st0" d="M85.2,19.9c0,0,0.1,0,0.1-0.1C85.3,19.8,85.3,19.8,85.2,19.9z"/>
<path class="st0" d="M85.9,19.5C86,19.5,86,19.5,85.9,19.5C86,19.5,86,19.5,85.9,19.5z"/>
<path class="st0" d="M84.5,20.3c0.1,0,0.1-0.1,0.2-0.1C84.6,20.2,84.5,20.3,84.5,20.3z"/>
<path class="st0" d="M145.2,127.3l11.3-11.3c1.1-1.1,1.9-2.6,2.2-4.1c-0.3,1.5-1.1,3-2.2,4.1L145.2,127.3z"/>
<polygon class="st0" points="92.7,83.6 92.7,83.6 97.1,79.2 97.1,79.2 "/>
<polygon class="st0" points="79.7,61.7 79.7,61.7 74,67.4 74,67.4 "/>
<polygon class="st0" points="81.7,94.6 87.9,88.4 81.7,94.6 "/>
<polygon class="st0" points="44.9,131.4 44.9,131.4 51.6,124.6 51.6,124.6 "/>
<polygon class="st0" points="33.3,143 33.3,143 42.1,134.2 42.1,134.2 "/>
<polygon class="st0" points="67.9,73.5 64.1,77.3 64.1,77.3 "/>
<polygon class="st0" points="25.4,150.8 30.5,145.8 30.5,145.8 "/>
<polygon class="st0" points="54.5,121.8 54.5,121.8 62.6,113.7 62.6,113.7 "/>
<path class="st0" d="M103.1,75c0.8,0.8,0.8,2,0,2.8c-0.4,0.4-0.9,0.6-1.4,0.6c-0.5,0-1-0.2-1.4-0.6l-0.9-0.9l-2.3,2.3l2.8,2.8
	l22.2-22.2l-2.8-2.8l-17,17L103.1,75z"/>
<polygon class="st0" points="45.5,95.9 8,133.4 45.5,95.9 "/>
<polygon class="st0" points="81.5,94.8 81.5,94.8 81.7,94.6 81.7,94.6 "/>
<polygon class="st0" points="62.6,113.7 62.6,113.7 62.9,113.4 62.9,113.4 "/>
<polygon class="st0" points="81.5,100.4 81.5,100.4 78.7,97.6 78.7,97.6 "/>
<path class="st0" d="M62.6,113.7l0.9,0.9L62.6,113.7l-8.1,8.1l0.9,0.9c0.8,0.8,0.8,2,0,2.8c-0.4,0.4-0.9,0.6-1.4,0.6
	c-0.5,0-1-0.2-1.4-0.6l-0.9-0.9l-6.7,6.7l0.9,0.9c0.8,0.8,0.8,2,0,2.8c-0.4,0.4-0.9,0.6-1.4,0.6s-1-0.2-1.4-0.6l-0.9-0.9l-8.8,8.8
	l0.9,0.9c0.8,0.8,0.8,2,0,2.8c-0.4,0.4-0.9,0.6-1.4,0.6c-0.5,0-1-0.2-1.4-0.6l-0.9-0.9l-5.1,5.1L8,133.4l37.5-37.5l-2.8-2.8
	L5.2,130.6c-0.8,0.8-1.2,1.8-1.2,2.8c0,1.1,0.4,2.1,1.2,2.8l17.4,17.4c0.8,0.8,1.8,1.2,2.8,1.2c1,0,2-0.4,2.8-1.2l37.5-37.5
	l-2.8-2.8L62.6,113.7z"/>
<polygon class="st0" points="119.3,57 122.1,59.9 122.1,59.9 119.3,57 "/>
<polygon class="st0" points="97.1,79.2 97.1,79.2 99.9,82 99.9,82 "/>
<polygon class="st0" points="79.7,61.7 76.8,58.9 76.8,58.9 79.7,61.7 "/>
<polygon class="st0" points="99,36.8 101.8,39.6 101.8,39.6 99,36.8 99,36.8 "/>
<rect x="71.4" y="61.2" transform="matrix(0.7072 -0.707 0.707 0.7072 -22.5731 71.8042)" class="st0" width="8" height="4"/>
<path class="st0" d="M91.4,84.8l-1.6,1.6l-5.3-5.3c-0.8-0.8-0.8-2,0-2.8c0.1-0.1,0.1-0.1,0.2-0.2L91.4,84.8z"/>
<polygon class="st0" points="91.4,84.8 89.8,86.4 89.8,86.4 91.4,84.8 "/>
<polygon class="st0" points="91.4,84.8 91.4,84.8 92.7,83.6 92.7,83.6 "/>
<path class="st0" d="M89.8,86.4l0.9,0.9c0.4,0.4,0.9,0.6,1.4,0.6c0.5,0,1-0.2,1.4-0.6c0.1-0.1,0.1-0.1,0.2-0.2l-2.3-2.3L89.8,86.4z"
	/>
<path class="st0" d="M93.7,87.1c0.6-0.8,0.6-1.9-0.2-2.6l-0.9-0.9l-1.2,1.2L93.7,87.1z"/>
<path class="st0" d="M46.4,116.5c-0.8,0.8-0.8,2,0,2.8l5.3,5.3l2.8-2.8l-5.3-5.3C48.4,115.7,47.1,115.7,46.4,116.5z"/>
<polygon class="st0" points="51.6,124.6 51.6,124.6 54.5,121.8 54.5,121.8 "/>
<path class="st0" d="M52.5,125.5c0.4,0.4,0.9,0.6,1.4,0.6c0.5,0,1-0.2,1.4-0.6c0.8-0.8,0.8-2,0-2.8l-0.9-0.9l-2.8,2.8L52.5,125.5z"
	/>
<path class="st0" d="M36.8,126.1c-0.8,0.8-0.8,2,0,2.8l5.3,5.3l2.8-2.8l-5.3-5.3C38.9,125.3,37.6,125.3,36.8,126.1z"/>
<polygon class="st0" points="42.1,134.2 42.1,134.2 44.9,131.4 44.9,131.4 "/>
<path class="st0" d="M43,135.1c0.4,0.4,0.9,0.6,1.4,0.6s1-0.2,1.4-0.6c0.8-0.8,0.8-2,0-2.8l-0.9-0.9l-2.8,2.8L43,135.1z"/>
<path class="st0" d="M25.2,137.7c-0.8,0.8-0.8,2,0,2.8l5.3,5.3l2.8-2.8l-5.3-5.3C27.3,136.9,26,136.9,25.2,137.7z"/>
<polygon class="st0" points="30.5,145.8 30.5,145.8 33.3,143 33.3,143 "/>
<path class="st0" d="M31.4,146.7c0.4,0.4,0.9,0.6,1.4,0.6c0.5,0,1-0.2,1.4-0.6c0.8-0.8,0.8-2,0-2.8l-0.9-0.9l-2.8,2.8L31.4,146.7z"
	/>
<polygon class="st0" points="58.4,77.3 58.4,77.3 38,56.8 38,56.8 "/>
<rect x="69.4" y="75.1" transform="matrix(0.7071 -0.7071 0.7071 0.7071 -40.9294 76.0901)" class="st0" width="4" height="24.7"/>
<rect x="53.6" y="90.9" transform="matrix(0.7071 -0.7071 0.7071 0.7071 -56.6967 69.5589)" class="st0" width="4" height="24.7"/>
<polygon class="st0" points="35.1,54 35.1,54 35.1,54 "/>
<polygon class="st0" points="22.1,66.9 22.2,67 22.2,67 "/>
<polygon class="st0" points="100,144.8 104.2,149 100,144.8 "/>
<polygon class="st0" points="68.6,113.4 68.6,113.4 82.7,127.4 82.7,127.4 "/>
<polygon class="st0" points="25,69.8 25,69.8 45.5,90.3 45.5,90.3 "/>
<polygon class="st0" points="89.6,134.4 89.6,134.4 97.2,141.9 97.2,141.9 "/>
<polygon class="st0" points="85.5,130.3 85.5,130.3 86.8,131.6 86.8,131.6 "/>
<polygon class="st0" points="58.4,77.3 58.4,77.3 61.3,80.1 64.1,77.3 64.1,77.3 61.3,80.1 "/>
<polygon class="st0" points="65.8,110.5 62.9,113.4 62.9,113.4 65.8,110.5 68.6,113.4 68.6,113.4 "/>
<polygon class="st0" points="78.7,97.6 78.7,97.6 81.5,94.8 81.5,94.8 "/>
<polygon class="st0" points="48.3,93.1 45.5,90.3 45.5,90.3 48.3,93.1 45.5,95.9 45.5,95.9 "/>
<rect x="63.8" y="111.4" transform="matrix(0.7071 -0.7071 0.7071 0.7071 -60.8957 79.6957)" class="st0" width="4" height="4"/>
<rect x="59.3" y="75.3" transform="matrix(0.7071 -0.7071 0.7071 0.7071 -36.7312 65.9582)" class="st0" width="4" height="4"/>
<rect x="43.5" y="91.1" transform="matrix(0.7071 -0.7071 0.7071 0.7071 -52.4992 59.4253)" class="st0" width="4" height="4"/>
<rect x="79.5" y="95.6" transform="matrix(0.7071 -0.7071 0.7071 0.7071 -45.1279 86.2248)" class="st0" width="4" height="4"/>
<polygon class="st0" points="112.9,131.8 112.9,131.8 110.1,129 110.1,129 "/>
<polygon class="st0" points="97.2,141.9 97.2,141.9 100,144.8 100,144.8 "/>
<rect x="111.1" y="127.5" transform="matrix(0.707 -0.7072 0.7072 0.707 -58.6897 117.4271)" class="st0" width="2.4" height="4"/>
<rect x="96.9" y="142" transform="matrix(0.707 -0.7072 0.7072 0.707 -73.1776 111.4288)" class="st0" width="1.9" height="4"/>
<polygon class="st0" points="102.5,121.4 102.5,121.4 99.7,118.6 99.7,118.6 "/>
<polygon class="st0" points="86.8,131.6 86.8,131.6 89.6,134.4 89.6,134.4 "/>
<rect x="86.5" y="131.7" transform="matrix(0.707 -0.7072 0.7072 0.707 -68.8817 101.0552)" class="st0" width="1.9" height="4"/>
<rect x="100.8" y="117.2" transform="matrix(0.707 -0.7072 0.7072 0.707 -54.3938 107.0535)" class="st0" width="2.4" height="4"/>
<polygon class="st0" points="98.4,117.3 98.4,117.3 95.6,114.5 95.6,114.5 "/>
<polygon class="st0" points="82.7,127.4 82.7,127.4 85.5,130.3 85.5,130.3 "/>
<rect x="96.7" y="113" transform="matrix(0.7071 -0.7071 0.7071 0.7071 -52.684 102.9015)" class="st0" width="2.4" height="4"/>
<rect x="82.4" y="127.5" transform="matrix(0.7071 -0.7071 0.7071 0.7071 -67.1671 96.9033)" class="st0" width="1.9" height="4"/>
<polygon class="st0" points="38,56.8 38,56.8 35.1,54 35.1,54 "/>
<polygon class="st0" points="22.2,67 22.2,67 25,69.8 25,69.8 "/>
<rect x="22" y="67.1" transform="matrix(0.7071 -0.7071 0.7071 0.7071 -42.1193 36.4324)" class="st0" width="1.9" height="4"/>
<path class="st0" d="M97.2,141.9l12.9-12.9l2.8,2.8L100,144.8L97.2,141.9z"/>
<path class="st0" d="M86.8,131.6l12.9-12.9l2.8,2.8l-12.9,12.9L86.8,131.6z"/>
<path class="st0" d="M82.7,127.4l12.9-12.9l2.8,2.8l-12.9,12.9L82.7,127.4z"/>
<rect x="73.7" y="47.3" transform="matrix(0.7072 -0.707 0.707 0.7072 -8.6676 77.5721)" class="st0" width="31.3" height="4"/>
<path class="st0" d="M156.5,104.6l-24-24l5.2-5.2c1-1,1.6-2.1,2-3.4c0.2-0.7,0.3-1.5,0.3-2.3c0-2-0.8-4.1-2.3-5.7l-5.5-5.5
	L94.7,21.2c-0.2-0.2-0.4-0.4-0.6-0.5c-0.1-0.1-0.3-0.2-0.4-0.3c-0.1,0-0.1-0.1-0.2-0.1c-0.2-0.1-0.4-0.2-0.6-0.3c0,0-0.1,0-0.1-0.1
	c-0.2-0.1-0.4-0.2-0.6-0.3c0,0-0.1,0-0.1,0c-0.2-0.1-0.4-0.2-0.6-0.2c0,0-0.1,0-0.1,0c-0.2-0.1-0.4-0.1-0.6-0.1c-0.1,0-0.1,0-0.2,0
	c-0.2,0-0.4-0.1-0.6-0.1c-0.1,0-0.1,0-0.2,0c-0.3,0-0.5,0-0.8,0c-0.3,0-0.5,0-0.8,0c-0.1,0-0.1,0-0.2,0c-0.2,0-0.4,0-0.6,0.1
	c-0.1,0-0.1,0-0.2,0c-0.2,0-0.4,0.1-0.6,0.1c0,0-0.1,0-0.1,0c-0.2,0.1-0.4,0.1-0.6,0.2c0,0-0.1,0-0.1,0c-0.2,0.1-0.4,0.2-0.6,0.3
	c0,0-0.1,0-0.1,0.1c-0.2,0.1-0.4,0.2-0.6,0.3c-0.1,0-0.1,0.1-0.2,0.1c-0.1,0.1-0.3,0.2-0.4,0.3c-0.2,0.2-0.4,0.3-0.6,0.5l-5.2,5.2h0
	l-24-24C52.6,0.8,50.6,0,48.5,0c-2,0-4.1,0.8-5.7,2.3L31.6,13.7c-1.5,1.5-2.3,3.5-2.3,5.7c0,2.1,0.8,4.2,2.3,5.7l36.8,36.8l-7.1,7.1
	L40.7,48.3c-0.7-0.7-1.5-1.3-2.4-1.7L15.2,36.4c-1-0.5-2.1-0.7-3.2-0.7c-2.1,0-4.1,0.8-5.7,2.3c-2.3,2.3-3,5.9-1.7,8.9l10.2,23.2
	c0.4,0.9,1,1.7,1.7,2.4L37,93.1L2.3,127.7c-1.5,1.5-2.3,3.5-2.3,5.7c0,2.1,0.8,4.2,2.3,5.7l17.4,17.4c1.6,1.6,3.6,2.3,5.7,2.3
	c2,0,4.1-0.8,5.7-2.3l34.7-34.7l32.8,32.8c2.6,2.6,6.1,4.1,9.9,4.1c3.7,0,7.2-1.5,9.9-4.1l4.5-4.5c5.4-5.4,5.4-14.3,0-19.7L90,97.6
	l7.1-7.1l36.8,36.8c1.6,1.6,3.6,2.3,5.7,2.3s4.1-0.8,5.7-2.3l11.3-11.3c1.1-1.1,1.9-2.6,2.2-4.1c0.1-0.5,0.2-1,0.2-1.6
	C158.8,108.2,158,106.1,156.5,104.6z M139.5,121.6L99.9,82l-2.8-2.8l-4.4,4.4l0.9,0.9c0.7,0.7,0.8,1.8,0.2,2.6
	c-0.1,0.1-0.1,0.1-0.2,0.2c-0.4,0.4-0.9,0.6-1.4,0.6c-0.5,0-1-0.2-1.4-0.6l-0.9-0.9l-2,2l-6.2,6.2l-0.2,0.2l2.8,2.8l-2.8,2.8
	l14.1,14.1l1.7-1.7l2.8,2.8l-1.7,1.7l1.3,1.3l1.7-1.7l2.8,2.8l-1.7,1.7l7.5,7.5l1.7-1.7l2.8,2.8l-1.7,1.7l4.2,4.2
	c2.3,2.3,2.3,6.1,0,8.4l-4.5,4.5c-1.2,1.2-2.7,1.7-4.2,1.7c-1.5,0-3-0.6-4.2-1.7l-4.2-4.2l-1.4,1.4l-2.8-2.8l1.4-1.4l-7.5-7.5
	l-1.4,1.4l-2.8-2.8l1.4-1.4l-1.3-1.3l-1.4,1.4l-2.8-2.8l1.4-1.4l-14.1-14.1l-2.8,2.8l-37.5,37.5c-0.8,0.8-1.8,1.2-2.8,1.2
	c-1,0-2-0.4-2.8-1.2L5.2,136.2c-0.8-0.8-1.2-1.8-1.2-2.8c0-1.1,0.4-2.1,1.2-2.8l37.5-37.5l2.8-2.8L25,69.8l-1.4,1.4l-2.8-2.8
	l1.4-1.4l0,0L11.9,43.8L35.1,54l0,0L22.2,67l2.8,2.8L38,56.8l20.5,20.5l2.8-2.8l2.8,2.8l3.8-3.8l6.1-6.1l-2.8-2.8l5.7-5.7L37.2,19.3
	L48.5,8l29.7,29.7l10.8-10.8l9.9,9.9l2.8,2.8L119.3,57l2.8,2.8l9.9,9.9l-10.8,10.8l29.7,29.7L139.5,121.6z"/>
<path class="st0" d="M103.1,75c0.8,0.8,0.8,2,0,2.8c-0.4,0.4-0.9,0.6-1.4,0.6c-0.5,0-1-0.2-1.4-0.6l-0.9-0.9l-5.3-5.3
	c-0.8-0.8-0.8-2,0-2.8c0.8-0.8,2-0.8,2.8,0l5.3,5.3L103.1,75z"/>
<path class="st0" d="M87.4,78.3l5.3,5.3l-1.2,1.2l-6.7-6.7C85.5,77.5,86.7,77.6,87.4,78.3z"/>
</svg>
