<?xml version="1.0" encoding="utf-8"?>
<!-- Generator: Adobe Illustrator 19.2.1, SVG Export Plug-In . SVG Version: 6.00 Build 0)  -->
<svg version="1.1" id="Layer_2" xmlns="http://www.w3.org/2000/svg" xmlns:xlink="http://www.w3.org/1999/xlink" x="0px" y="0px"
	 width="90px" height="70.8px" viewBox="0 0 90 70.8" style="enable-background:new 0 0 90 70.8;" xml:space="preserve">
<style type="text/css">
	.st0{fill:#322721;}
</style>
<g>
	<path class="st0" d="M51.4,4c15.9,0,28.9,12.1,30.5,27.6c0.3,0.2,1.2,1.3,4.1,7.1c-9.7,10.1-29.1,26.6-39.7,27.9
		c-0.7,0.1-1.4,0.1-2.2,0.1c-12.2,0-40-8.7-40-17c6.8-8.4,11-14.8,11-14.8l0.3,0v-0.3C15.3,17.7,29,4,45.9,4H51.4 M51.4,0h-5.5
		C27.3,0,12.1,14.8,11.3,33.2c-1.1,1.7-5,7.1-10.4,14C0.3,47.9,0,48.8,0,49.7c0,5.7,6.1,10.9,18.1,15.4c8.9,3.4,19.4,5.6,26,5.6
		c1,0,1.9,0,2.7-0.1C60,69,81.6,49.1,88.9,41.5c1.2-1.2,1.5-3.1,0.7-4.6c-1.9-3.8-3-5.8-3.9-7c-1.1-8-5-15.4-11-20.9
		C68.3,3.2,60,0,51.4,0L51.4,0z"/>
	<path class="st0" d="M51.4,4C68.3,4,82,17.7,82,34.6v7.3c0,0-16.6,12.2-39.4,12.2c-3.6,0-7.3-0.3-11.1-1
		c-13.3-2.4-16.2-11.2-16.2-11.2v-7.3C15.3,17.7,29,4,45.9,4H51.4 M51.4,2h-5.5c-18,0-32.6,14.6-32.6,32.6v7.3v0.3l0.1,0.3
		c0.1,0.4,3.4,10,17.7,12.5c3.7,0.7,7.6,1,11.4,1c23.2,0,39.9-12,40.6-12.5L84,43v-1v-7.3C84,16.7,69.4,2,51.4,2L51.4,2z"/>
	<path class="st0" d="M26.6,24.5c0.1,0,0.2,0,0.3,0l3.4,1.1c0.7,0.2,1.2,1.3,1.1,2.3l-1.7,24.6l-5.9-1.9L25.5,26
		C25.6,25.1,26,24.5,26.6,24.5 M26.6,22.5C26.6,22.5,26.6,22.5,26.6,22.5c-1.7,0-3,1.4-3.1,3.4l-1.7,24.6c-0.1,0.9,0.5,1.8,1.4,2
		l5.9,1.9c0.2,0.1,0.4,0.1,0.6,0.1c0.4,0,0.8-0.1,1.1-0.3c0.5-0.3,0.8-0.9,0.9-1.5l1.7-24.6c0.1-2-0.9-3.8-2.5-4.3l-3.4-1.1
		C27.2,22.5,26.9,22.5,26.6,22.5L26.6,22.5z"/>
	<path class="st0" d="M24.8,25.7c-0.1,0-0.3,0-0.4-0.1c-0.5-0.2-0.8-0.8-0.6-1.3C24,24.1,26,19.1,31.5,14c5.1-4.7,14.2-10.4,28.7-11
		c0.6,0,1,0.4,1,1c0,0.6-0.4,1-1,1c-26.6,1-34.5,19.8-34.6,20C25.6,25.5,25.2,25.7,24.8,25.7z"/>
	<path class="st0" d="M30.7,54.8C30.7,54.8,30.7,54.8,30.7,54.8c-0.6,0-1-0.5-1-1c0-0.4,0.2-10.4,4.8-21.3
		C38.8,22.3,47.9,9.5,66.8,6.1C67.3,6,67.9,6.4,68,6.9S67.7,8,67.1,8.1c-14.5,2.6-24.8,11.1-30.8,25.1c-4.5,10.6-4.6,20.5-4.6,20.6
		C31.7,54.3,31.3,54.8,30.7,54.8z"/>
	<path class="st0" d="M60,17.9c-0.3,0-0.6-0.1-0.8-0.3c-0.4-0.4-0.3-1.1,0.1-1.4c0.3-0.2,6.7-5.8,15.3-5.2c0.6,0,1,0.5,0.9,1.1
		c0,0.6-0.5,1-1.1,0.9c-7.8-0.6-13.8,4.6-13.9,4.7C60.5,17.8,60.3,17.9,60,17.9z"/>
	<path class="st0" d="M68.3,20.6c-0.3,0-0.6-0.1-0.8-0.4c-0.3-0.5-0.2-1.1,0.2-1.4c0.2-0.1,4.1-2.9,9.6-3.7c0.5-0.1,1.1,0.3,1.1,0.8
		c0.1,0.5-0.3,1.1-0.8,1.1c-5,0.7-8.7,3.3-8.7,3.4C68.7,20.5,68.5,20.6,68.3,20.6z"/>
	<path class="st0" d="M15,61.7c-0.2,0-0.4-0.1-0.6-0.2c-0.4-0.3-0.5-1-0.2-1.4l7.4-9.6c0.3-0.4,1-0.5,1.4-0.2c0.4,0.3,0.5,1,0.2,1.4
		l-7.4,9.6C15.6,61.5,15.3,61.7,15,61.7z"/>
	<path class="st0" d="M22.2,64.9c-0.2,0-0.4-0.1-0.6-0.2c-0.4-0.3-0.5-1-0.2-1.4l7.4-9.6c0.3-0.4,1-0.5,1.4-0.2
		c0.4,0.3,0.5,1,0.2,1.4L23,64.5C22.8,64.7,22.5,64.9,22.2,64.9z"/>
</g>
</svg>
