<?xml version="1.0" encoding="utf-8"?>
<!-- Generator: Adobe Illustrator 16.0.0, SVG Export Plug-In . SVG Version: 6.00 Build 0)  -->
<!DOCTYPE svg PUBLIC "-//W3C//DTD SVG 1.1//EN" "http://www.w3.org/Graphics/SVG/1.1/DTD/svg11.dtd">
<svg version="1.1" id="Layer_1" xmlns="http://www.w3.org/2000/svg" xmlns:xlink="http://www.w3.org/1999/xlink" x="0px" y="0px"
	 width="29px" height="40.045px" viewBox="0 0 29 40.045" enable-background="new 0 0 29 40.045" xml:space="preserve">
<g>
	<path fill="#414141" d="M25.495,40.045H3.456c-1.905,0-3.455-1.56-3.455-3.477L0,3.42C0,1.534,1.551,0,3.456,0h22.039
		C27.461,0,29,1.477,29,3.363v33.184C29,38.443,27.396,40.045,25.495,40.045z M3.456,3.172c-0.141,0-0.284,0.085-0.284,0.249
		l0.001,33.148c0,0.162,0.133,0.305,0.283,0.305h22.039c0.159,0,0.333-0.171,0.333-0.326V3.363c0-0.113-0.176-0.191-0.333-0.191
		H3.456z"/>
	<path fill="#414141" d="M14.5,29.547c-1.422,0-2.578-1.156-2.578-2.578s1.156-2.578,2.578-2.578s2.578,1.156,2.578,2.578
		S15.922,29.547,14.5,29.547z M14.5,25.977c-0.548,0-0.992,0.445-0.992,0.992s0.444,0.992,0.992,0.992
		c0.547,0,0.992-0.445,0.992-0.992S15.047,25.977,14.5,25.977z"/>
	<path fill="#414141" d="M14.33,17.842c-0.438,0-0.793-0.355-0.793-0.793v-4.361c0-0.438,0.355-0.793,0.793-0.793
		s0.793,0.355,0.793,0.793v4.361C15.123,17.487,14.768,17.842,14.33,17.842z"/>
	<path fill="#414141" d="M19.881,33.701H9.176c-0.874,0-1.586-0.711-1.586-1.586V8.326c0-0.875,0.712-1.586,1.586-1.586h10.705
		c0.875,0,1.586,0.711,1.586,1.586v23.789C21.467,32.99,20.756,33.701,19.881,33.701z M9.176,8.326v23.789h10.706L19.881,8.326
		H9.176z"/>
</g>
</svg>
