<?xml version="1.0" encoding="utf-8"?>
<!-- Generator: Adobe Illustrator 16.0.0, SVG Export Plug-In . SVG Version: 6.00 Build 0)  -->
<!DOCTYPE svg PUBLIC "-//W3C//DTD SVG 1.1//EN" "http://www.w3.org/Graphics/SVG/1.1/DTD/svg11.dtd">
<svg version="1.1" id="Layer_1" xmlns="http://www.w3.org/2000/svg" xmlns:xlink="http://www.w3.org/1999/xlink" x="0px" y="0px"
	 width="33px" height="44.832px" viewBox="0 0 33 44.832" enable-background="new 0 0 33 44.832" xml:space="preserve">
<g>
	<path fill="#414142" d="M5.506,35.92c1.6,0,2.902-1.318,2.902-2.941c0-0.301-0.045-0.597-0.133-0.882
		c-0.073-0.238-0.184-0.472-0.327-0.702l-2.221-3.234c-0.05-0.074-0.132-0.118-0.222-0.118s-0.173,0.044-0.224,0.118
		c-1.006,1.466-2.21,3.219-2.225,3.242c-0.14,0.223-0.247,0.456-0.322,0.694c-0.088,0.285-0.132,0.581-0.132,0.882
		C2.604,34.602,3.905,35.92,5.506,35.92"/>
	<path fill="#414142" d="M5.506,36.441c-1.888,0-3.423-1.553-3.423-3.462c0-0.352,0.052-0.7,0.155-1.034
		c0.089-0.284,0.217-0.559,0.379-0.818c0.01-0.017,0.014-0.022,1.555-2.268l0.682-0.992c0.147-0.216,0.392-0.345,0.652-0.345
		c0.265,0,0.511,0.132,0.655,0.353l2.216,3.227c0.182,0.291,0.311,0.568,0.396,0.843c0.104,0.337,0.155,0.685,0.155,1.035
		C8.928,34.888,7.393,36.441,5.506,36.441z M5.505,28.755l-0.476,0.692c-0.776,1.131-1.49,2.171-1.536,2.239
		c-0.11,0.177-0.2,0.37-0.262,0.566c-0.071,0.232-0.108,0.478-0.108,0.726c0,1.335,1.069,2.422,2.383,2.422s2.382-1.087,2.382-2.422
		c0-0.247-0.037-0.492-0.109-0.729c-0.059-0.19-0.147-0.38-0.271-0.579L5.505,28.755z"/>
	<path fill="#414142" d="M9.668,17.288H2.857c-0.383,0-0.693-0.311-0.693-0.694c0-0.383,0.311-0.693,0.693-0.693h6.811
		c0.383,0,0.693,0.311,0.693,0.693C10.361,16.977,10.051,17.288,9.668,17.288z"/>
	<path fill="#414142" d="M31.613,44.832h-6.81c-0.767,0-1.388-0.621-1.388-1.387V15.717c0-3.381-2.751-6.132-6.132-6.132
		c-2.91,0-5.353,2.038-5.977,4.761c0.935,0.12,1.659,0.92,1.659,1.887v3.874c0,1.049-0.854,1.903-1.902,1.903H1.902
		C0.854,22.009,0,21.155,0,20.106v-3.874c0-0.956,0.709-1.75,1.628-1.883C2.323,6.321,9.079,0,17.284,0C25.95,0,33,7.051,33,15.717
		v27.728C33,44.21,32.38,44.832,31.613,44.832z M26.19,42.058h4.036V15.717c0-7.137-5.806-12.942-12.942-12.942
		c-7.136,0-12.941,5.806-12.941,12.942c0,0.766-0.621,1.387-1.387,1.387H2.774v2.132h7.419v-2.132H9.766
		c-0.767,0-1.388-0.621-1.388-1.387c0-4.911,3.995-8.906,8.906-8.906s8.906,3.995,8.906,8.906V42.058z"/>
</g>
</svg>
