<?xml version="1.0" encoding="utf-8"?>
<!-- Generator: Adobe Illustrator 16.0.0, SVG Export Plug-In . SVG Version: 6.00 Build 0)  -->
<!DOCTYPE svg PUBLIC "-//W3C//DTD SVG 1.1//EN" "http://www.w3.org/Graphics/SVG/1.1/DTD/svg11.dtd">
<svg version="1.1" id="Layer_1" xmlns="http://www.w3.org/2000/svg" xmlns:xlink="http://www.w3.org/1999/xlink" x="0px" y="0px"
	 width="59px" height="39.868px" viewBox="0 0 59 39.868" enable-background="new 0 0 59 39.868" xml:space="preserve">
<g>
	<path fill="#80B150" d="M40.167,3.228c4.079,0,7.387,3.307,7.387,7.389v4.736c0.871-0.895,2.083-1.455,3.429-1.455
		c2.647,0,4.79,2.145,4.79,4.789c0,2.017-1.25,3.734-3.017,4.439v11.289c0,2.08-1.449,2.225-3.395,2.225
		c-0.315,0-0.644-0.004-0.981-0.004c-0.337,0-0.665,0.004-0.98,0.004c-1.945,0-3.396-0.145-3.396-2.225v-0.549H14.997v0.549
		c0,2.08-1.451,2.225-3.396,2.225c-0.315,0-0.644-0.004-0.981-0.004c-0.336,0-0.665,0.004-0.98,0.004
		c-1.945,0-3.397-0.145-3.397-2.225V23.126c-1.765-0.705-3.016-2.424-3.016-4.439c0-2.644,2.145-4.789,4.788-4.789
		c1.084,0,2.073,0.375,2.876,0.982v-4.264c0-4.082,3.308-7.389,7.389-7.389H40.167 M40.167,0H18.28
		C12.427,0,7.665,4.762,7.665,10.616v0.063C3.407,10.863,0,14.385,0,18.687c0,2.492,1.135,4.771,3.016,6.263v9.466
		c0,2.987,1.741,4.284,2.778,4.791c1.247,0.609,2.583,0.661,3.846,0.661c0.161,0,0.325-0.001,0.492-0.002
		c0.16-0.001,0.323-0.002,0.488-0.002s0.328,0.001,0.488,0.002c0.167,0.001,0.332,0.002,0.493,0.002
		c1.263,0,2.599-0.052,3.846-0.661c0.651-0.318,1.58-0.948,2.181-2.113h23.746c0.601,1.165,1.529,1.795,2.181,2.113
		c1.247,0.609,2.584,0.661,3.846,0.661c0.161,0,0.325-0.001,0.493-0.002c0.16-0.001,0.322-0.002,0.487-0.002
		s0.328,0.001,0.488,0.002c0.168,0.001,0.332,0.002,0.493,0.002c1.263,0,2.6-0.052,3.846-0.661c1.037-0.508,2.776-1.805,2.776-4.791
		V24.95C57.865,23.458,59,21.179,59,18.687c0-4.42-3.597-8.016-8.018-8.016c-0.067,0-0.134,0.001-0.201,0.002v-0.057
		C50.781,4.762,46.02,0,40.167,0"/>
	<path fill="#80B150" d="M41.308,24.348H17.138c-0.446,0-0.807-0.36-0.807-0.807c0-0.445,0.361-0.807,0.807-0.807h24.169
		c0.446,0,0.808,0.361,0.808,0.807C42.115,23.988,41.754,24.348,41.308,24.348z"/>
</g>
</svg>
