<?xml version="1.0" encoding="utf-8"?>
<!-- Generator: Adobe Illustrator 16.0.0, SVG Export Plug-In . SVG Version: 6.00 Build 0)  -->
<!DOCTYPE svg PUBLIC "-//W3C//DTD SVG 1.1//EN" "http://www.w3.org/Graphics/SVG/1.1/DTD/svg11.dtd">
<svg version="1.1" id="Layer_1" xmlns="http://www.w3.org/2000/svg" xmlns:xlink="http://www.w3.org/1999/xlink" x="0px" y="0px"
	 width="39px" height="50.814px" viewBox="0 0 39 50.814" enable-background="new 0 0 39 50.814" xml:space="preserve">
<g>
	<path fill="#80B150" d="M19.504,50.814c-0.778,0-1.542-0.183-2.209-0.527l-5.919-3.017c-1.634-0.868-2.631-2.52-2.631-4.323v-5.953
		c0-0.508-0.145-1.203-0.293-1.431c-0.014-0.01-0.028-0.019-0.042-0.028L8.2,35.391C3.056,31.718,0,25.786,0,19.504
		C0,8.75,8.75,0,19.504,0C30.254,0,39,8.75,39,19.504c0,5.736-2.523,11.167-6.924,14.898c-0.073,0.062-0.15,0.118-0.231,0.168
		l-0.673,0.416c-0.026,0.016-0.053,0.031-0.079,0.046c-0.141,0.1-0.817,0.658-0.817,2.175v5.739c0,1.846-1.01,3.503-2.638,4.325
		l-5.951,3.021C21.021,50.637,20.283,50.814,19.504,50.814z M10.535,32.351c1.888,1.171,2.037,3.844,2.037,4.643v5.953
		c0,0.385,0.219,0.741,0.571,0.928l5.9,3.007c0.27,0.139,0.634,0.142,0.898,0.005l5.967-3.028c0.339-0.171,0.54-0.512,0.54-0.911
		v-5.739c0-2.889,1.474-4.761,2.725-5.457L29.16,31.73l0.547-0.338c3.476-3,5.466-7.324,5.466-11.888
		c0-8.644-7.029-15.676-15.669-15.676c-8.644,0-15.676,7.032-15.676,15.676c0,5.048,2.457,9.815,6.571,12.753L10.535,32.351z
		 M31.059,35.051c-0.198,0.104-0.414,0.174-0.636,0.203C30.734,35.212,30.962,35.104,31.059,35.051z"/>
	<path fill="#80B150" d="M28.362,39.002H10.658c-0.528,0-0.957-0.429-0.957-0.957s0.429-0.957,0.957-0.957h17.704
		c0.528,0,0.957,0.429,0.957,0.957S28.891,39.002,28.362,39.002z"/>
	<path fill="#80B150" d="M28.362,43.787H10.658c-0.528,0-0.957-0.428-0.957-0.956c0-0.529,0.429-0.957,0.957-0.957h17.704
		c0.528,0,0.957,0.428,0.957,0.957C29.319,43.359,28.891,43.787,28.362,43.787z"/>
</g>
</svg>
