<?xml version="1.0" encoding="utf-8"?>
<!-- Generator: Adobe Illustrator 16.0.0, SVG Export Plug-In . SVG Version: 6.00 Build 0)  -->
<!DOCTYPE svg PUBLIC "-//W3C//DTD SVG 1.1//EN" "http://www.w3.org/Graphics/SVG/1.1/DTD/svg11.dtd">
<svg version="1.1" id="Layer_1" xmlns="http://www.w3.org/2000/svg" xmlns:xlink="http://www.w3.org/1999/xlink" x="0px" y="0px"
	 width="37px" height="50.037px" viewBox="0 0 37 50.037" enable-background="new 0 0 37 50.037" xml:space="preserve">
<g>
	<path fill="#80B150" d="M6.386,39.898c1.763,0,3.198-1.453,3.198-3.241c0-0.331-0.049-0.657-0.146-0.972
		c-0.082-0.263-0.203-0.52-0.361-0.773L6.63,31.348c-0.055-0.083-0.146-0.131-0.245-0.131c-0.099,0-0.19,0.048-0.246,0.131
		c-1.109,1.615-2.436,3.546-2.451,3.572c-0.154,0.245-0.273,0.502-0.356,0.765C3.237,36,3.188,36.326,3.188,36.657
		C3.188,38.445,4.623,39.898,6.386,39.898"/>
	<path fill="#80B150" d="M6.386,40.59c-2.146,0-3.891-1.765-3.891-3.934c0-0.4,0.059-0.795,0.176-1.175
		c0.101-0.323,0.246-0.636,0.431-0.931c0.009-0.017,0.011-0.021,1.508-2.2l0.958-1.396c0.182-0.269,0.489-0.432,0.817-0.432
		c0.333,0,0.641,0.166,0.823,0.442l2.439,3.553c0.208,0.334,0.355,0.648,0.452,0.962c0.117,0.381,0.176,0.775,0.176,1.176
		C10.276,38.826,8.531,40.59,6.386,40.59z M6.385,32.215l-0.633,0.921c-0.767,1.117-1.431,2.084-1.483,2.162
		c-0.116,0.185-0.21,0.388-0.275,0.595c-0.075,0.243-0.114,0.502-0.114,0.764c0,1.405,1.124,2.548,2.505,2.548
		s2.504-1.143,2.504-2.548c0-0.262-0.039-0.521-0.115-0.768c-0.062-0.201-0.156-0.401-0.287-0.611L6.385,32.215z"/>
	<path fill="#80B150" d="M10.971,19.527H3.467c-0.51,0-0.924-0.414-0.924-0.924c0-0.51,0.414-0.924,0.924-0.924h7.504
		c0.51,0,0.924,0.414,0.924,0.924C11.896,19.114,11.481,19.527,10.971,19.527z"/>
	<path fill="#80B150" d="M35.152,50.037h-7.504c-1.021,0-1.848-0.828-1.848-1.849V17.636c0-3.549-2.888-6.436-6.437-6.436
		c-2.94,0-5.427,1.982-6.193,4.68c1.013,0.288,1.756,1.222,1.756,2.325v4.268c0,1.333-1.084,2.417-2.417,2.417H2.415
		C1.083,24.89,0,23.805,0,22.473v-4.268c0-1.126,0.773-2.074,1.817-2.341C2.709,6.968,10.238,0,19.364,0
		C29.088,0,37,7.912,37,17.636v30.552C37,49.208,36.172,50.037,35.152,50.037z M29.497,46.339h3.807V17.636
		c0-7.687-6.253-13.94-13.939-13.94c-7.686,0-13.938,6.253-13.938,13.94c0,0.981-0.764,1.783-1.729,1.845v1.712h7.535v-1.708h-0.152
		c-1.021,0-1.848-0.828-1.848-1.849c0-5.587,4.545-10.133,10.133-10.133c5.587,0,10.133,4.546,10.133,10.133V46.339z"/>
</g>
</svg>
