<?xml version="1.0" encoding="utf-8"?>
<!-- Generator: Adobe Illustrator 16.0.0, SVG Export Plug-In . SVG Version: 6.00 Build 0)  -->
<!DOCTYPE svg PUBLIC "-//W3C//DTD SVG 1.1//EN" "http://www.w3.org/Graphics/SVG/1.1/DTD/svg11.dtd">
<svg version="1.1" id="Layer_1" xmlns="http://www.w3.org/2000/svg" xmlns:xlink="http://www.w3.org/1999/xlink" x="0px" y="0px"
	 width="158.839px" height="158.838px" viewBox="0 0 158.839 158.838" enable-background="new 0 0 158.839 158.838"
	 xml:space="preserve">
<path fill="#322721" d="M105.345,58.21c-1.302,1.301-3.413,1.3-4.715-0.001c-1.302-1.303-1.302-3.413-0.001-4.715
	c1.304-1.303,3.414-1.303,4.717,0C106.646,54.797,106.646,56.907,105.345,58.21 M95.597,114.492L95.597,114.492l-14.076-14.076
	L95.597,114.492z M84.019,20.666c0.14-0.114,0.288-0.217,0.434-0.321C84.307,20.448,84.159,20.551,84.019,20.666 M110.092,128.987
	L110.092,128.987l-7.542-7.543L110.092,128.987z M98.425,117.32l1.296,1.296l0,0L98.425,117.32z M117.164,136.06l-4.244-4.244
	L117.164,136.06z M86.026,19.466c0.2-0.082,0.404-0.152,0.61-0.219C86.432,19.313,86.228,19.383,86.026,19.466 M87.525,19.013
	c0.188-0.037,0.378-0.062,0.569-0.085C87.903,18.951,87.712,18.976,87.525,19.013 M88.301,18.898c0.26-0.025,0.52-0.039,0.781-0.039
	C88.819,18.859,88.559,18.874,88.301,18.898 M89.081,18.859c0.262,0,0.521,0.014,0.781,0.039
	C89.604,18.874,89.344,18.859,89.081,18.859 M87.894,88.387l1.951-1.951L87.894,88.387z M85.32,19.799
	c0.2-0.106,0.406-0.201,0.614-0.29C85.727,19.598,85.521,19.693,85.32,19.799 M90.066,18.928c0.191,0.023,0.382,0.048,0.571,0.085
	C90.449,18.976,90.258,18.951,90.066,18.928 M86.765,19.203c0.192-0.059,0.389-0.104,0.585-0.147
	C87.153,19.099,86.958,19.144,86.765,19.203 M124.909,51.371l-17.443-17.442L94.738,21.202l37.355,37.356L124.909,51.371z
	 M84.65,20.199c0.186-0.124,0.377-0.234,0.569-0.341C85.026,19.965,84.835,20.076,84.65,20.199 M139.979,69.756
	c0,0.768-0.109,1.535-0.329,2.277C139.869,71.291,139.979,70.524,139.979,69.756 M93.702,20.338c0.15,0.107,0.299,0.211,0.442,0.328
	C94.002,20.549,93.853,20.445,93.702,20.338 M90.812,19.056c0.197,0.044,0.395,0.089,0.588,0.147
	C91.206,19.145,91.009,19.099,90.812,19.056 M92.934,19.853c0.196,0.108,0.391,0.221,0.579,0.347
	C93.325,20.075,93.131,19.96,92.934,19.853 M91.515,19.243c0.21,0.067,0.417,0.139,0.622,0.223
	C91.935,19.382,91.725,19.31,91.515,19.243 M92.219,19.504c0.211,0.09,0.421,0.187,0.625,0.295
	C92.64,19.691,92.431,19.595,92.219,19.504 M83.424,21.203l-5.185,5.186L83.424,21.203z M73.996,67.399l-6.094,6.094L73.996,67.399
	L73.996,67.399z M84.35,97.588l35.643,35.644c3.872,3.872,3.873,10.173,0.001,14.048l-4.547,4.545
	c-1.877,1.877-4.372,2.912-7.026,2.912s-5.148-1.034-7.024-2.91l-35.642-35.643l-37.483,37.482
	c-0.781,0.781-1.804,1.172-2.828,1.172c-1.024,0-2.048-0.391-2.828-1.172L5.171,136.225C4.421,135.475,4,134.457,4,133.396
	s0.422-2.078,1.172-2.828l37.483-37.484L19.318,69.748c-0.349-0.349-0.631-0.761-0.83-1.213L8.264,45.371
	c-0.667-1.511-0.337-3.276,0.831-4.443c0.766-0.767,1.789-1.172,2.829-1.172c0.545,0,1.095,0.111,1.614,0.341l23.164,10.224
	c0.452,0.2,0.864,0.482,1.213,0.831L61.25,74.488l9.917-9.917l-39.601-39.6L68.34,61.743l-7.089,7.088L40.744,48.323
	c-0.7-0.698-1.522-1.262-2.427-1.661L15.154,36.438c-1.039-0.459-2.139-0.682-3.229-0.682c-2.08,0-4.126,0.811-5.659,2.343
	c-2.335,2.336-2.995,5.866-1.662,8.887l10.225,23.165c0.399,0.904,0.963,1.727,1.662,2.425l20.507,20.509L2.344,127.739
	C0.843,129.24,0,131.273,0,133.396c0,2.122,0.843,4.156,2.344,5.657l17.442,17.441c1.562,1.562,3.61,2.343,5.657,2.343
	c2.048,0,4.094-0.781,5.656-2.343l34.655-34.654l32.814,32.814c2.632,2.631,6.13,4.081,9.853,4.081s7.223-1.451,9.854-4.082
	l4.547-4.547c5.433-5.436,5.431-14.273-0.001-19.705L90.007,97.588l7.089-7.09l-2.829-2.828L84.35,97.588z M139.979,69.756
	c0-2.048-0.78-4.096-2.343-5.657l-5.542-5.541l5.542,5.542C139.198,65.661,139.979,67.708,139.979,69.756 M76.825,58.915
	L37.224,19.313L76.825,58.915z M89.862,18.898c0.068,0.006,0.136,0.021,0.204,0.029C89.998,18.919,89.931,18.904,89.862,18.898
	 M90.637,19.013c0.06,0.012,0.116,0.03,0.176,0.043C90.753,19.042,90.696,19.025,90.637,19.013 M97.095,90.498l36.773,36.772
	L97.095,90.498z M88.094,18.928c0.069-0.009,0.138-0.023,0.207-0.029C88.231,18.905,88.163,18.919,88.094,18.928 M78.239,26.389
	L54.194,2.343L78.239,26.389z M99.924,82.013l39.601,39.601L99.924,82.013z M92.844,19.799c0.03,0.017,0.059,0.037,0.09,0.054
	C92.903,19.836,92.874,19.816,92.844,19.799 M94.145,20.666c0.206,0.168,0.404,0.347,0.594,0.536
	C94.548,21.012,94.35,20.833,94.145,20.666 M83.424,21.203c0.191-0.191,0.391-0.369,0.595-0.537
	C83.813,20.834,83.614,21.014,83.424,21.203 M93.513,20.199c0.065,0.043,0.126,0.094,0.189,0.139
	C93.639,20.293,93.578,20.242,93.513,20.199 M91.399,19.203c0.039,0.012,0.077,0.027,0.116,0.04
	C91.477,19.231,91.438,19.215,91.399,19.203 M131.979,69.756l-9.898-9.899v0.001L131.979,69.756z M92.137,19.466
	c0.027,0.012,0.055,0.026,0.081,0.038C92.191,19.492,92.164,19.478,92.137,19.466 M98.98,36.758L98.98,36.758l-9.898-9.898
	L98.98,36.758z M86.637,19.247c0.044-0.014,0.085-0.031,0.128-0.044C86.722,19.216,86.681,19.233,86.637,19.247 M87.35,19.056
	c0.06-0.013,0.116-0.031,0.176-0.043C87.467,19.025,87.409,19.042,87.35,19.056 M119.252,57.028L101.81,39.586l-0.001,0.001
	L119.252,57.028z M85.22,19.858c0.034-0.018,0.066-0.041,0.101-0.059C85.286,19.817,85.254,19.84,85.22,19.858 M85.935,19.509
	c0.03-0.013,0.061-0.03,0.093-0.043C85.995,19.479,85.965,19.495,85.935,19.509 M84.452,20.345c0.066-0.048,0.13-0.101,0.197-0.145
	C84.583,20.244,84.519,20.297,84.452,20.345 M145.182,127.271l11.313-11.313c1.125-1.125,1.881-2.55,2.188-4.088
	c-0.308,1.538-1.063,2.963-2.189,4.088L145.182,127.271z M92.673,83.607L92.673,83.607l4.423-4.423h-0.001L92.673,83.607z
	 M156.496,104.645l-24.045-24.046l5.185-5.186c0.977-0.977,1.648-2.143,2.014-3.379c0.22-0.743,0.33-1.51,0.33-2.278
	c0-2.048-0.781-4.094-2.344-5.656l-5.542-5.542L94.738,21.203c-0.191-0.191-0.39-0.37-0.594-0.537
	c-0.143-0.117-0.292-0.221-0.442-0.328c-0.063-0.045-0.124-0.095-0.189-0.138c-0.188-0.125-0.382-0.239-0.578-0.347
	c-0.031-0.017-0.061-0.037-0.092-0.054c-0.203-0.108-0.412-0.204-0.625-0.295c-0.026-0.011-0.054-0.026-0.081-0.038
	c-0.202-0.084-0.412-0.155-0.622-0.222c-0.037-0.012-0.076-0.029-0.115-0.04c-0.193-0.059-0.391-0.104-0.587-0.148
	c-0.06-0.013-0.116-0.031-0.176-0.043c-0.188-0.037-0.379-0.061-0.57-0.085c-0.068-0.009-0.136-0.023-0.204-0.029
	c-0.258-0.025-0.52-0.039-0.781-0.039c-0.261,0-0.521,0.014-0.78,0.039c-0.069,0.006-0.138,0.02-0.207,0.029
	c-0.189,0.024-0.381,0.048-0.568,0.085c-0.059,0.012-0.116,0.03-0.176,0.043c-0.196,0.044-0.393,0.089-0.585,0.148
	c-0.043,0.012-0.085,0.03-0.128,0.043c-0.206,0.067-0.409,0.137-0.609,0.219c-0.032,0.013-0.063,0.031-0.093,0.043
	c-0.208,0.089-0.414,0.184-0.614,0.29c-0.034,0.019-0.066,0.041-0.101,0.06c-0.193,0.106-0.385,0.218-0.569,0.341
	c-0.068,0.045-0.131,0.097-0.197,0.145c-0.147,0.105-0.295,0.207-0.435,0.321c-0.204,0.168-0.403,0.346-0.595,0.538l-5.184,5.185
	h-0.001L54.194,2.343C52.632,0.782,50.585,0,48.538,0c-2.048,0-4.095,0.782-5.657,2.343L31.567,13.657
	c-1.501,1.501-2.343,3.535-2.343,5.657s0.842,4.156,2.343,5.657l39.601,39.601l5.657-5.657L37.224,19.313L48.538,8L78.24,37.703
	l10.841-10.843l9.9,9.898c0.75-0.75,1.767-1.172,2.829-1.172c1.061,0,2.077,0.422,2.827,1.172l17.443,17.443
	c1.563,1.561,1.563,4.094,0,5.656h-0.001l9.899,9.899l-10.842,10.843l29.701,29.702l-11.313,11.313L99.924,82.013l-5.656,5.657
	l2.827,2.829l36.773,36.771c1.562,1.562,3.609,2.343,5.657,2.343c2.047,0,4.094-0.781,5.656-2.343l11.313-11.313
	c1.126-1.125,1.881-2.551,2.188-4.089c0.103-0.513,0.155-1.038,0.155-1.568C158.839,108.18,157.996,106.145,156.496,104.645
	 M79.653,61.743L79.653,61.743l-5.657,5.656L79.653,61.743z M81.71,94.571l6.184-6.185L81.71,94.571z M44.928,131.353
	L44.928,131.353l6.72-6.72h-0.001L44.928,131.353z M33.33,142.95L33.33,142.95l8.77-8.77L33.33,142.95z M67.902,73.493l-3.823,3.823
	L67.902,73.493z M25.442,150.838l5.059-5.059L25.442,150.838z M98.98,36.758L76.825,58.914l2.829,2.828l22.156-22.155L98.98,36.758z
	 M54.476,121.804L54.476,121.804l8.136-8.136L54.476,121.804z M103.117,74.951c0.78,0.781,0.78,2.048-0.002,2.828
	c-0.39,0.391-0.901,0.586-1.413,0.586s-1.023-0.195-1.414-0.586l-0.894-0.893l-2.299,2.298l2.828,2.828l22.156-22.154l-2.828-2.829
	l-17.029,17.03L103.117,74.951z M45.483,95.913L8,133.396L45.483,95.913z M81.521,94.759L81.521,94.759l0.188-0.187L81.521,94.759z
	 M62.612,113.668L62.612,113.668l0.313-0.312L62.612,113.668z M93.566,87.329c-0.391,0.391-0.902,0.586-1.414,0.586
	s-1.024-0.195-1.415-0.586l-0.893-0.893l-1.95,1.95l-6.186,6.185l0.895,0.894l-0.895-0.894l-0.188,0.188l2.828,2.828l9.918-9.918
	l-0.539-0.539C93.677,87.198,93.627,87.269,93.566,87.329 M81.521,100.416L81.521,100.416l-2.829-2.828L81.521,100.416z
	 M64.079,77.316l3.823-3.823l6.094-6.094l-2.828-2.828l-9.917,9.917L64.079,77.316z M62.612,113.668l0.894,0.894L62.612,113.668
	l-8.136,8.137l0.894,0.894c0.781,0.782,0.781,2.048-0.001,2.828c-0.39,0.391-0.902,0.586-1.414,0.586
	c-0.512,0-1.024-0.195-1.414-0.586l-0.893-0.894l-6.72,6.72l0.894,0.894c0.78,0.781,0.78,2.048-0.001,2.828
	c-0.391,0.391-0.902,0.586-1.414,0.586c-0.512,0-1.024-0.195-1.415-0.586l-0.893-0.894l-8.77,8.77l0.894,0.895
	c0.781,0.781,0.781,2.048,0,2.828c-0.391,0.392-0.903,0.586-1.414,0.586c-0.512,0-1.024-0.194-1.415-0.586l-0.893-0.894
	l-5.059,5.059L8,133.397l37.483-37.484l-2.829-2.829L5.171,130.568C4.421,131.318,4,132.336,4,133.397
	c0,1.06,0.421,2.077,1.172,2.827l17.442,17.441c0.781,0.781,1.805,1.172,2.828,1.172c1.024,0,2.047-0.391,2.829-1.172l37.482-37.482
	l-2.828-2.827L62.612,113.668z M119.252,57.028l2.828,2.829v-0.001L119.252,57.028z M97.096,79.185L97.096,79.185l2.828,2.828
	L97.096,79.185z M79.653,61.742l-2.829-2.828L79.653,61.742L79.653,61.742z M98.98,36.758l2.829,2.829v-0.001L98.98,36.758z
	 M79.652,61.743l-2.828-2.829l-5.657,5.657l2.828,2.828L79.652,61.743z M119.252,57.028l2.828,2.828h0.001
	c1.562-1.561,1.562-4.095,0-5.656l-17.443-17.443c-0.75-0.75-1.767-1.171-2.828-1.171c-1.061,0-2.079,0.421-2.829,1.171l2.829,2.829
	L119.252,57.028z M92.673,83.607l0.895,0.895c0.719,0.719,0.767,1.846,0.161,2.629l0.539,0.539l5.656-5.657l-2.828-2.828
	L92.673,83.607z M96.933,68.767c-0.78-0.781-2.047-0.781-2.828,0c-0.781,0.78-0.781,2.047,0,2.828l5.29,5.291l2.828-2.828
	L96.933,68.767z M101.702,78.365c0.512,0,1.022-0.195,1.414-0.586c0.781-0.78,0.781-2.047,0.001-2.828l-0.895-0.894l-2.828,2.829
	l0.894,0.893C100.678,78.17,101.19,78.365,101.702,78.365 M84.752,78.155c-0.066,0.052-0.136,0.1-0.196,0.161
	c-0.782,0.78-0.782,2.047-0.001,2.828l5.29,5.291l1.594-1.595L84.752,78.155z M91.438,84.842l-1.594,1.594L91.438,84.842z
	 M92.673,83.607l-5.289-5.291c-0.72-0.719-1.847-0.769-2.631-0.161l6.686,6.687L92.673,83.607z M91.438,84.842L91.438,84.842
	l1.235-1.234h-0.001L91.438,84.842z M89.845,86.436l0.893,0.893c0.392,0.392,0.902,0.587,1.415,0.587
	c0.512,0,1.023-0.195,1.414-0.587c0.062-0.061,0.11-0.13,0.162-0.197l-2.29-2.289L89.845,86.436z M93.729,87.131
	c0.606-0.783,0.558-1.91-0.162-2.63l-0.893-0.894l-1.235,1.234L93.729,87.131z M46.358,116.513c-0.781,0.78-0.781,2.047-0.001,2.828
	l5.29,5.292l2.829-2.829l-5.289-5.291C48.406,115.731,47.141,115.731,46.358,116.513 M51.647,124.633L51.647,124.633l2.829-2.828
	v-0.001L51.647,124.633z M52.541,125.526c0.391,0.391,0.902,0.586,1.415,0.586c0.511,0,1.023-0.195,1.414-0.586
	c0.781-0.78,0.781-2.047,0-2.828l-0.893-0.894l-2.829,2.828L52.541,125.526z M36.81,126.062c-0.781,0.78-0.781,2.047-0.001,2.828
	l5.291,5.291l2.829-2.828l-5.29-5.291C38.856,125.28,37.591,125.28,36.81,126.062 M42.1,134.181L42.1,134.181l2.829-2.828
	L42.1,134.181z M42.993,135.074c0.391,0.391,0.903,0.586,1.414,0.586c0.512,0,1.024-0.195,1.415-0.586
	c0.781-0.78,0.781-2.047,0-2.828l-0.893-0.894l-2.829,2.828L42.993,135.074z M25.212,137.66c-0.781,0.78-0.781,2.047-0.001,2.828
	l5.29,5.291l2.829-2.829l-5.289-5.29C27.26,136.88,25.994,136.878,25.212,137.66 M30.501,145.779L30.501,145.779l2.829-2.829
	L30.501,145.779z M31.395,146.673c0.391,0.391,0.902,0.586,1.415,0.586c0.511,0,1.023-0.195,1.414-0.586
	c0.781-0.78,0.781-2.047,0-2.828l-0.894-0.895l-2.828,2.829L31.395,146.673z M58.422,77.316L58.422,77.316L37.956,56.85
	L58.422,77.316z M81.521,94.759L64.079,77.317l-2.828,2.829l17.442,17.442L81.521,94.759z M45.483,95.913l17.442,17.442l2.828-2.829
	L48.312,93.084L45.483,95.913z M35.127,54.021l-0.041-0.041L35.127,54.021z M22.147,66.92l0.04,0.041L22.147,66.92z M99.981,144.756
	l4.242,4.242L99.981,144.756z M68.582,113.355L68.582,113.355l14.076,14.076L68.582,113.355z M25.016,69.789L25.016,69.789
	l20.467,20.468v-0.001L25.016,69.789z M89.611,134.385L89.611,134.385l7.542,7.543L89.611,134.385z M85.486,130.26L85.486,130.26
	l1.296,1.297L85.486,130.26z M25.016,69.789l-1.368,1.367l-2.828-2.828l1.368-1.367l-0.041-0.041L11.923,43.756L35.086,53.98
	l0.041,0.041l1.722-1.722l2.828,2.828l-1.722,1.723l20.468,20.466l2.828-2.828L37.915,51.152c-0.35-0.349-0.761-0.632-1.213-0.831
	L13.538,40.097c-0.52-0.23-1.069-0.341-1.614-0.341c-1.04,0-2.064,0.405-2.83,1.172c-1.167,1.167-1.497,2.932-0.83,4.443
	l10.224,23.164c0.199,0.452,0.481,0.863,0.831,1.213l23.336,23.336l2.828-2.827L25.016,69.789z M95.597,114.492l1.721-1.721
	l2.828,2.828l-1.721,1.721l1.296,1.296l1.721-1.722l2.829,2.828l-1.721,1.722l7.542,7.543l1.721-1.722l2.829,2.828l-1.721,1.722
	l4.243,4.244c2.317,2.317,2.317,6.072,0.001,8.391l-4.547,4.546c-1.159,1.159-2.679,1.739-4.198,1.739s-3.037-0.579-4.196-1.737
	l-4.242-4.242l-1.366,1.367l-2.829-2.828l1.367-1.367l-7.543-7.543l-1.366,1.367l-2.829-2.828l1.367-1.367l-1.296-1.297
	l-1.366,1.367l-2.828-2.828l1.367-1.367l-14.078-14.076l-2.828,2.828l35.642,35.643c1.876,1.876,4.37,2.909,7.024,2.909
	s5.149-1.034,7.026-2.911l4.547-4.545c3.872-3.875,3.871-10.176,0-14.048L84.35,97.588l-2.829,2.828L95.597,114.492z M58.423,77.316
	L58.423,77.316l2.828,2.829l2.828-2.829l-2.828,2.828L58.423,77.316z M65.753,110.526l-2.828,2.829L65.753,110.526l2.828,2.829
	h0.001L65.753,110.526z M78.693,97.588L78.693,97.588l2.829-2.828l-0.001-0.001L78.693,97.588z M48.312,93.084l-2.828-2.828
	l-0.001,0.001L48.312,93.084l-2.828,2.829L48.312,93.084z M65.753,110.527l-2.828,2.828l2.828,2.828l2.828-2.828L65.753,110.527z
	 M61.251,80.145l2.828-2.828l-2.828-2.828l-2.828,2.828L61.251,80.145z M48.311,93.085l-2.828-2.828l-2.828,2.827l2.828,2.829
	L48.311,93.085z M78.693,97.588l2.828,2.828l2.829-2.828l-2.828-2.828L78.693,97.588z M99.981,144.756l12.938-12.94l-2.828-2.828
	l-12.938,12.94L99.981,144.756z M112.92,131.815L112.92,131.815l-2.828-2.828L112.92,131.815z M97.153,141.928L97.153,141.928
	l2.829,2.828L97.153,141.928z M114.643,130.094l-2.829-2.828l-1.722,1.721l2.828,2.829L114.643,130.094z M95.786,143.295
	l2.829,2.828l1.367-1.367l-2.829-2.828L95.786,143.295z M89.611,134.385l12.938-12.94l-2.828-2.828l-12.938,12.94L89.611,134.385z
	 M102.549,121.444L102.549,121.444l-2.828-2.828L102.549,121.444z M86.782,131.557L86.782,131.557l2.828,2.828h0.001L86.782,131.557
	z M85.415,132.924l2.829,2.828l1.367-1.367l-2.829-2.828L85.415,132.924z M104.271,119.723l-2.829-2.828l-1.722,1.722l2.828,2.828
	L104.271,119.723z M85.486,130.26l12.939-12.94l-2.829-2.827l-12.938,12.939L85.486,130.26z M95.597,114.492l2.828,2.828l0,0
	L95.597,114.492z M82.658,127.432L82.658,127.432l2.828,2.828L82.658,127.432z M100.146,115.6l-2.828-2.828l-1.721,1.721
	l2.828,2.828L100.146,115.6z M81.291,128.799l2.828,2.828l1.367-1.367l-2.828-2.828L81.291,128.799z M35.127,54.021L22.188,66.96
	l2.828,2.829l12.939-12.94L35.127,54.021z M37.955,56.85L37.955,56.85l-2.828-2.828L37.955,56.85z M22.188,66.961L22.188,66.961
	l2.828,2.828L22.188,66.961z M20.82,68.328l2.828,2.828l1.368-1.367l-2.828-2.828L20.82,68.328z M39.677,55.127l-2.828-2.828
	l-1.722,1.723l2.828,2.828L39.677,55.127z"/>
</svg>
