<?xml version="1.0" encoding="utf-8"?>
<!-- Generator: Adobe Illustrator 16.0.0, SVG Export Plug-In . SVG Version: 6.00 Build 0)  -->
<!DOCTYPE svg PUBLIC "-//W3C//DTD SVG 1.1//EN" "http://www.w3.org/Graphics/SVG/1.1/DTD/svg11.dtd">
<svg version="1.1" id="Layer_1" xmlns="http://www.w3.org/2000/svg" xmlns:xlink="http://www.w3.org/1999/xlink" x="0px" y="0px"
	 width="73px" height="74px" viewBox="0 0 73 74" enable-background="new 0 0 73 74" xml:space="preserve">
<g>
	<path fill="#322721" d="M48.415,27.119c-0.599,0.606-1.568,0.605-2.167,0c-0.598-0.607-0.598-1.59,0-2.197
		c0.6-0.607,1.568-0.607,2.168,0C49.013,25.529,49.013,26.512,48.415,27.119 M43.936,53.34L43.936,53.34l-6.47-6.558L43.936,53.34z
		 M38.613,9.628c0.064-0.053,0.133-0.101,0.2-0.149C38.746,9.526,38.679,9.574,38.613,9.628 M50.597,60.093L50.597,60.093
		l-3.466-3.514L50.597,60.093z M45.234,54.657l0.596,0.604l0,0L45.234,54.657z M53.848,63.388l-1.951-1.978L53.848,63.388z
		 M39.536,9.069c0.093-0.038,0.187-0.071,0.28-0.102C39.724,8.998,39.629,9.03,39.536,9.069 M40.226,8.857
		c0.087-0.017,0.174-0.029,0.262-0.04C40.399,8.829,40.312,8.84,40.226,8.857 M40.582,8.804c0.119-0.011,0.238-0.018,0.359-0.018
		C40.82,8.786,40.7,8.793,40.582,8.804 M40.941,8.786c0.119,0,0.238,0.007,0.358,0.018C41.181,8.793,41.062,8.786,40.941,8.786
		 M40.395,41.178l0.897-0.909L40.395,41.178z M39.212,9.224c0.093-0.05,0.187-0.094,0.282-0.135
		C39.398,9.13,39.305,9.174,39.212,9.224 M41.394,8.818c0.088,0.011,0.176,0.022,0.263,0.04C41.569,8.84,41.481,8.829,41.394,8.818
		 M39.876,8.946c0.088-0.027,0.179-0.048,0.27-0.068C40.055,8.898,39.965,8.919,39.876,8.946 M57.407,23.933l-8.018-8.126
		l-5.85-5.929l17.168,17.403L57.407,23.933z M38.904,9.411c0.085-0.058,0.174-0.109,0.262-0.159
		C39.077,9.301,38.989,9.353,38.904,9.411 M64.333,32.498c0,0.358-0.051,0.715-0.151,1.061
		C64.282,33.213,64.333,32.856,64.333,32.498 M43.064,9.475c0.069,0.05,0.138,0.098,0.203,0.153
		C43.202,9.573,43.134,9.525,43.064,9.475 M41.736,8.877c0.09,0.021,0.181,0.042,0.271,0.069
		C41.917,8.919,41.826,8.897,41.736,8.877 M42.711,9.249c0.091,0.05,0.18,0.103,0.267,0.162C42.891,9.353,42.803,9.299,42.711,9.249
		 M42.06,8.965c0.097,0.031,0.19,0.065,0.285,0.104C42.252,9.03,42.156,8.996,42.06,8.965 M42.382,9.086
		c0.098,0.042,0.194,0.087,0.288,0.138C42.576,9.174,42.48,9.129,42.382,9.086 M38.341,9.878l-2.383,2.417L38.341,9.878z
		 M34.008,31.4l-2.801,2.839L34.008,31.4L34.008,31.4z M38.766,45.465L55.146,62.07c1.779,1.804,1.78,4.739,0.001,6.545l-2.09,2.117
		c-0.862,0.874-2.009,1.356-3.229,1.356c-1.22,0-2.366-0.481-3.229-1.355L30.22,54.128L12.993,71.59
		c-0.358,0.364-0.828,0.546-1.299,0.546c-0.471,0-0.941-0.182-1.3-0.546l-8.017-8.125c-0.344-0.35-0.539-0.823-0.539-1.317
		s0.194-0.969,0.539-1.318l17.227-17.463L8.879,32.494c-0.161-0.163-0.29-0.354-0.381-0.565l-4.7-10.792
		c-0.307-0.704-0.155-1.526,0.382-2.07c0.352-0.357,0.822-0.546,1.3-0.546c0.25,0,0.503,0.052,0.741,0.159l10.646,4.763
		c0.208,0.093,0.397,0.225,0.557,0.387L28.15,34.703l4.558-4.62l-18.2-18.449l16.9,17.131l-3.258,3.303l-9.424-9.555
		c-0.322-0.325-0.7-0.588-1.116-0.773L6.965,16.976c-0.478-0.213-0.983-0.317-1.484-0.317c-0.956,0-1.896,0.377-2.601,1.091
		c-1.073,1.088-1.376,2.733-0.764,4.14l4.699,10.792c0.184,0.421,0.442,0.805,0.764,1.129l9.425,9.555L1.078,59.512
		C0.388,60.211,0,61.158,0,62.147c0,0.988,0.388,1.936,1.078,2.635l8.016,8.126C9.812,73.636,10.752,74,11.693,74
		c0.941,0,1.881-0.364,2.6-1.092L30.22,56.764l15.081,15.287c1.21,1.226,2.816,1.901,4.527,1.901s3.319-0.676,4.53-1.901
		l2.089-2.118c2.496-2.532,2.495-6.65-0.001-9.181l-15.08-15.287l3.258-3.304l-1.301-1.317L38.766,45.465z M64.333,32.498
		c0-0.954-0.359-1.908-1.077-2.635l-2.548-2.582l2.548,2.582C63.974,30.59,64.333,31.544,64.333,32.498 M35.308,27.447l-18.2-18.45
		L35.308,27.447z M41.3,8.804c0.031,0.003,0.063,0.01,0.094,0.014C41.362,8.814,41.331,8.807,41.3,8.804 M41.656,8.857
		c0.026,0.006,0.053,0.014,0.081,0.02C41.709,8.871,41.683,8.863,41.656,8.857 M44.624,42.161l16.9,17.132L44.624,42.161z
		 M40.487,8.818c0.032-0.004,0.063-0.01,0.095-0.013C40.55,8.808,40.52,8.814,40.487,8.818 M35.958,12.294L24.907,1.091
		L35.958,12.294z M45.924,38.208l18.2,18.449L45.924,38.208z M42.67,9.224c0.014,0.008,0.027,0.017,0.041,0.025
		C42.697,9.241,42.684,9.232,42.67,9.224 M43.268,9.628c0.095,0.078,0.186,0.162,0.272,0.25C43.453,9.789,43.362,9.706,43.268,9.628
		 M38.341,9.878c0.088-0.089,0.18-0.172,0.272-0.25C38.52,9.706,38.429,9.79,38.341,9.878 M42.978,9.411
		c0.03,0.02,0.058,0.044,0.087,0.064C43.035,9.455,43.008,9.431,42.978,9.411 M42.007,8.946c0.018,0.006,0.034,0.013,0.053,0.019
		C42.041,8.959,42.024,8.952,42.007,8.946 M60.655,32.498l-4.549-4.612v0L60.655,32.498z M42.345,9.069
		c0.013,0.005,0.025,0.012,0.037,0.018C42.37,9.081,42.357,9.074,42.345,9.069 M45.49,17.125L45.49,17.125l-4.549-4.611
		L45.49,17.125z M39.816,8.967c0.021-0.006,0.04-0.014,0.06-0.021C39.856,8.953,39.837,8.96,39.816,8.967 M40.146,8.877
		c0.026-0.006,0.053-0.014,0.08-0.02C40.198,8.863,40.172,8.872,40.146,8.877 M54.807,26.568l-8.016-8.126l-0.001,0L54.807,26.568z
		 M39.166,9.251c0.016-0.008,0.03-0.019,0.046-0.027C39.196,9.232,39.182,9.243,39.166,9.251 M39.494,9.089
		c0.015-0.006,0.028-0.014,0.043-0.02C39.522,9.075,39.509,9.082,39.494,9.089 M38.813,9.478c0.03-0.022,0.06-0.047,0.09-0.067
		C38.874,9.431,38.844,9.456,38.813,9.478 M66.724,59.293l5.199-5.271c0.518-0.524,0.864-1.188,1.006-1.904
		c-0.142,0.716-0.488,1.38-1.006,1.904L66.724,59.293z M42.592,38.951L42.592,38.951l2.032-2.061l0,0L42.592,38.951z M71.924,48.752
		L60.873,37.55l2.383-2.417c0.448-0.455,0.757-0.999,0.926-1.574c0.101-0.346,0.151-0.704,0.151-1.062
		c0-0.954-0.359-1.907-1.077-2.635l-2.548-2.582L43.54,9.878c-0.088-0.089-0.178-0.172-0.272-0.25
		c-0.065-0.055-0.134-0.103-0.203-0.153c-0.029-0.021-0.057-0.044-0.087-0.064c-0.087-0.058-0.175-0.111-0.266-0.162
		c-0.015-0.008-0.028-0.018-0.043-0.025c-0.093-0.051-0.188-0.095-0.287-0.138c-0.012-0.005-0.024-0.012-0.037-0.018
		c-0.093-0.039-0.188-0.072-0.285-0.104c-0.018-0.006-0.035-0.014-0.053-0.019c-0.09-0.028-0.181-0.049-0.27-0.069
		c-0.028-0.006-0.055-0.014-0.081-0.02c-0.087-0.017-0.175-0.028-0.263-0.04c-0.031-0.004-0.063-0.01-0.094-0.014
		c-0.119-0.011-0.239-0.018-0.358-0.018c-0.121,0-0.24,0.007-0.359,0.018c-0.032,0.003-0.063,0.01-0.095,0.014
		c-0.088,0.011-0.175,0.022-0.262,0.04c-0.027,0.006-0.054,0.014-0.08,0.02c-0.091,0.021-0.182,0.042-0.27,0.069
		c-0.02,0.005-0.039,0.014-0.06,0.02c-0.094,0.031-0.188,0.064-0.279,0.102c-0.015,0.006-0.028,0.014-0.043,0.02
		c-0.096,0.042-0.189,0.085-0.282,0.135c-0.016,0.008-0.03,0.019-0.046,0.027c-0.089,0.05-0.177,0.102-0.262,0.159
		c-0.031,0.021-0.061,0.045-0.09,0.067c-0.069,0.049-0.137,0.097-0.201,0.15c-0.093,0.078-0.185,0.161-0.272,0.25l-2.382,2.416h0
		L24.907,1.091C24.189,0.364,23.249,0,22.308,0s-1.882,0.364-2.6,1.091l-5.2,5.271c-0.69,0.699-1.077,1.647-1.077,2.635
		c0,0.989,0.387,1.937,1.077,2.636l18.2,18.45l2.6-2.636l-18.2-18.45l5.2-5.271l13.651,13.838l4.983-5.052l4.55,4.612
		c0.344-0.35,0.811-0.546,1.3-0.546c0.487,0,0.954,0.197,1.299,0.546l8.018,8.126c0.718,0.728,0.718,1.907,0,2.635h-0.001
		l4.55,4.611l-4.982,5.052l13.65,13.837l-5.2,5.271l-18.2-18.449l-2.6,2.636l1.3,1.318l16.9,17.131
		c0.718,0.728,1.659,1.092,2.6,1.092s1.882-0.364,2.6-1.092l5.199-5.271c0.518-0.523,0.864-1.188,1.006-1.904
		C72.976,51.879,73,51.634,73,51.387C73,50.399,72.612,49.451,71.924,48.752 M36.607,28.765L36.607,28.765l-2.6,2.635L36.607,28.765
		z M37.553,44.06l2.842-2.882L37.553,44.06z M20.649,61.194L20.649,61.194l3.088-3.13h-0.001L20.649,61.194z M15.318,66.598
		L15.318,66.598l4.031-4.085L15.318,66.598z M31.207,34.239l-1.757,1.781L31.207,34.239z M11.693,70.272l2.325-2.356L11.693,70.272z
		 M45.49,17.125L35.308,27.447l1.3,1.317l10.184-10.321L45.49,17.125z M25.037,56.746L25.037,56.746l3.739-3.79L25.037,56.746z
		 M47.392,34.918c0.358,0.364,0.358,0.954-0.001,1.317c-0.179,0.182-0.414,0.273-0.649,0.273s-0.471-0.091-0.65-0.273l-0.41-0.416
		l-1.057,1.071l1.3,1.317l10.183-10.321l-1.3-1.318l-7.826,7.934L47.392,34.918z M20.904,44.685L3.677,62.147L20.904,44.685z
		 M37.466,44.146L37.466,44.146l0.087-0.087L37.466,44.146z M28.776,52.956L28.776,52.956l0.144-0.146L28.776,52.956z
		 M43.002,40.686c-0.18,0.182-0.414,0.272-0.649,0.272s-0.471-0.091-0.65-0.272l-0.41-0.416l-0.897,0.908l-2.842,2.882l0.41,0.416
		l-0.41-0.416l-0.087,0.087l1.3,1.318l4.559-4.621l-0.247-0.251C43.053,40.624,43.029,40.657,43.002,40.686 M37.466,46.782
		L37.466,46.782l-1.299-1.317L37.466,46.782z M29.45,36.021l1.757-1.781l2.801-2.839l-1.3-1.318l-4.558,4.62L29.45,36.021z
		 M28.776,52.956l0.411,0.416L28.776,52.956l-3.739,3.791l0.411,0.416c0.359,0.364,0.359,0.954,0,1.317
		c-0.179,0.182-0.415,0.273-0.65,0.273s-0.47-0.092-0.649-0.273l-0.411-0.416l-3.088,3.13l0.411,0.417
		c0.358,0.363,0.358,0.954,0,1.317c-0.18,0.182-0.414,0.273-0.65,0.273c-0.235,0-0.47-0.092-0.65-0.273l-0.411-0.416l-4.031,4.085
		l0.411,0.417c0.359,0.364,0.359,0.954,0,1.317c-0.18,0.183-0.415,0.273-0.65,0.273s-0.471-0.091-0.65-0.273l-0.41-0.416
		l-2.325,2.356l-8.016-8.125l17.227-17.463l-1.301-1.318L2.377,60.829c-0.344,0.35-0.538,0.824-0.538,1.318s0.194,0.968,0.539,1.317
		l8.016,8.125c0.359,0.364,0.83,0.546,1.3,0.546c0.471,0,0.941-0.182,1.3-0.546L30.22,54.128l-1.3-1.317L28.776,52.956z
		 M54.807,26.568l1.3,1.318v0L54.807,26.568z M44.624,36.891L44.624,36.891l1.3,1.317L44.624,36.891z M36.607,28.765l-1.3-1.318
		L36.607,28.765L36.607,28.765z M45.49,17.125l1.301,1.318v0L45.49,17.125z M36.606,28.765l-1.299-1.318l-2.6,2.636l1.3,1.318
		L36.606,28.765z M54.807,26.568l1.3,1.318h0.001c0.717-0.728,0.717-1.908,0-2.635l-8.018-8.126
		c-0.345-0.349-0.812-0.545-1.299-0.545c-0.488,0-0.956,0.196-1.301,0.545l1.301,1.318L54.807,26.568z M42.592,38.951l0.411,0.417
		c0.33,0.335,0.353,0.859,0.074,1.225l0.247,0.251l2.6-2.636l-1.3-1.317L42.592,38.951z M44.549,32.037
		c-0.358-0.364-0.94-0.364-1.3,0c-0.359,0.363-0.359,0.954,0,1.317l2.432,2.465l1.3-1.318L44.549,32.037z M46.741,36.509
		c0.235,0,0.47-0.091,0.649-0.273c0.359-0.363,0.359-0.954,0.001-1.317l-0.411-0.417l-1.3,1.318l0.41,0.416
		C46.271,36.418,46.506,36.509,46.741,36.509 M38.951,36.411c-0.03,0.024-0.063,0.047-0.09,0.075
		c-0.36,0.363-0.36,0.953-0.001,1.317l2.432,2.465l0.732-0.743L38.951,36.411z M42.024,39.526l-0.732,0.742L42.024,39.526z
		 M42.592,38.951l-2.431-2.465c-0.331-0.335-0.849-0.358-1.209-0.075l3.072,3.115L42.592,38.951z M42.024,39.526L42.024,39.526
		l0.568-0.575h-0.001L42.024,39.526z M41.292,40.269l0.41,0.416c0.18,0.183,0.414,0.273,0.65,0.273c0.235,0,0.47-0.091,0.649-0.273
		c0.028-0.028,0.051-0.061,0.075-0.092l-1.053-1.066L41.292,40.269z M43.077,40.593c0.278-0.365,0.256-0.89-0.075-1.226
		l-0.409-0.416l-0.568,0.575L43.077,40.593z M21.306,54.281c-0.358,0.363-0.358,0.953,0,1.317l2.431,2.466l1.3-1.318l-2.431-2.465
		C22.247,53.917,21.666,53.917,21.306,54.281 M23.737,58.064L23.737,58.064l1.3-1.317v-0.001L23.737,58.064z M24.147,58.48
		c0.18,0.182,0.415,0.273,0.65,0.273c0.235,0,0.47-0.092,0.65-0.273c0.359-0.363,0.359-0.953,0-1.317l-0.41-0.416l-1.301,1.317
		L24.147,58.48z M16.917,58.729c-0.359,0.364-0.359,0.954,0,1.318l2.432,2.465l1.3-1.318l-2.431-2.465
		C17.858,58.366,17.276,58.366,16.917,58.729 M19.349,62.513L19.349,62.513l1.3-1.318L19.349,62.513z M19.759,62.929
		c0.18,0.182,0.415,0.273,0.649,0.273c0.236,0,0.471-0.092,0.65-0.273c0.359-0.363,0.359-0.954,0-1.317l-0.41-0.417l-1.3,1.318
		L19.759,62.929z M11.587,64.134c-0.359,0.363-0.359,0.953,0,1.317l2.432,2.465l1.3-1.318l-2.431-2.464
		C12.529,63.77,11.947,63.769,11.587,64.134 M14.019,67.916L14.019,67.916l1.3-1.318L14.019,67.916z M14.429,68.332
		c0.18,0.183,0.415,0.273,0.65,0.273c0.235,0,0.47-0.091,0.65-0.273c0.359-0.363,0.359-0.953,0-1.317l-0.411-0.417l-1.299,1.318
		L14.429,68.332z M26.851,36.021L26.851,36.021l-9.406-9.535L26.851,36.021z M37.466,44.146l-8.016-8.126l-1.3,1.318l8.017,8.126
		L37.466,44.146z M20.904,44.685l8.016,8.126l1.3-1.318l-8.016-8.126L20.904,44.685z M16.144,25.167l-0.019-0.019L16.144,25.167z
		 M10.179,31.177l0.019,0.019L10.179,31.177z M45.95,67.439l1.949,1.977L45.95,67.439z M31.52,52.811L31.52,52.811l6.468,6.558
		L31.52,52.811z M11.497,32.514L11.497,32.514l9.407,9.535l0,0L11.497,32.514z M41.185,62.607L41.185,62.607l3.467,3.515
		L41.185,62.607z M39.289,60.686L39.289,60.686l0.596,0.604L39.289,60.686z M11.497,32.514l-0.628,0.637l-1.299-1.317l0.628-0.637
		l-0.019-0.019L5.48,20.385l10.646,4.763l0.019,0.019l0.792-0.802l1.299,1.317l-0.791,0.803l9.407,9.535l1.299-1.317L17.426,23.831
		c-0.161-0.163-0.35-0.295-0.558-0.387L6.222,18.681c-0.239-0.107-0.491-0.159-0.742-0.159c-0.478,0-0.949,0.189-1.3,0.546
		c-0.536,0.543-0.688,1.366-0.382,2.07l4.699,10.792c0.091,0.211,0.221,0.402,0.382,0.565l10.725,10.872l1.3-1.317L11.497,32.514z
		 M43.936,53.34l0.791-0.802l1.299,1.317l-0.791,0.802l0.596,0.604l0.791-0.802l1.301,1.317l-0.791,0.803l3.466,3.514l0.791-0.802
		l1.3,1.317l-0.79,0.802l1.95,1.978c1.064,1.08,1.064,2.829,0,3.909l-2.09,2.118c-0.533,0.54-1.231,0.81-1.93,0.81
		s-1.396-0.27-1.929-0.809l-1.949-1.977l-0.628,0.637l-1.301-1.317l0.63-0.637l-3.468-3.515l-0.628,0.637l-1.3-1.317l0.629-0.637
		l-0.596-0.604l-0.628,0.637l-1.3-1.317l0.628-0.637l-6.47-6.558l-1.3,1.317L46.6,70.733c0.862,0.874,2.009,1.355,3.229,1.355
		c1.221,0,2.367-0.482,3.229-1.356l2.09-2.117c1.779-1.806,1.778-4.741,0-6.545L38.766,45.465l-1.3,1.317L43.936,53.34z
		 M26.851,36.021L26.851,36.021l1.3,1.318l1.3-1.318l-1.3,1.317L26.851,36.021z M30.22,51.492l-1.3,1.318L30.22,51.492l1.3,1.318h0
		L30.22,51.492z M36.167,45.465L36.167,45.465l1.299-1.318l0,0L36.167,45.465z M22.204,43.366l-1.299-1.317h0L22.204,43.366
		l-1.299,1.318L22.204,43.366z M30.22,51.493l-1.3,1.317l1.3,1.317l1.3-1.317L30.22,51.493z M28.15,37.338l1.3-1.317l-1.3-1.317
		l-1.3,1.317L28.15,37.338z M22.204,43.366l-1.3-1.317l-1.3,1.317l1.3,1.318L22.204,43.366z M36.167,45.465l1.299,1.317l1.3-1.317
		l-1.3-1.318L36.167,45.465z M45.95,67.439l5.946-6.029l-1.3-1.317l-5.945,6.029L45.95,67.439z M51.896,61.41L51.896,61.41
		l-1.3-1.317L51.896,61.41z M44.651,66.122L44.651,66.122l1.299,1.317L44.651,66.122z M52.688,60.608l-1.301-1.317l-0.791,0.802
		l1.3,1.317L52.688,60.608z M44.021,66.759l1.301,1.317l0.628-0.637l-1.299-1.317L44.021,66.759z M41.185,62.607l5.945-6.028
		l-1.3-1.318l-5.945,6.029L41.185,62.607z M47.13,56.579L47.13,56.579l-1.3-1.318L47.13,56.579z M39.885,61.29L39.885,61.29
		l1.299,1.317h0.001L39.885,61.29z M39.256,61.927l1.3,1.317l0.629-0.637l-1.3-1.317L39.256,61.927z M47.922,55.776l-1.3-1.317
		l-0.792,0.802l1.3,1.318L47.922,55.776z M39.289,60.686l5.946-6.028l-1.3-1.317l-5.947,6.028L39.289,60.686z M43.936,53.34
		l1.299,1.317l0,0L43.936,53.34z M37.988,59.368L37.988,59.368l1.301,1.317L37.988,59.368z M46.025,53.855l-1.299-1.317
		l-0.791,0.802l1.299,1.317L46.025,53.855z M37.36,60.005l1.3,1.317l0.629-0.637l-1.301-1.317L37.36,60.005z M16.144,25.167
		l-5.946,6.028l1.299,1.318l5.947-6.028L16.144,25.167z M17.444,26.485L17.444,26.485l-1.3-1.318L17.444,26.485z M10.198,31.196
		L10.198,31.196l1.299,1.318L10.198,31.196z M9.569,31.833l1.299,1.317l0.628-0.637l-1.299-1.317L9.569,31.833z M18.235,25.683
		l-1.299-1.317l-0.792,0.803l1.3,1.317L18.235,25.683z"/>
</g>
</svg>
