<?xml version="1.0" encoding="utf-8"?>
<!-- Generator: Adobe Illustrator 16.0.0, SVG Export Plug-In . SVG Version: 6.00 Build 0)  -->
<!DOCTYPE svg PUBLIC "-//W3C//DTD SVG 1.1//EN" "http://www.w3.org/Graphics/SVG/1.1/DTD/svg11.dtd">
<svg version="1.1" id="Layer_1" xmlns="http://www.w3.org/2000/svg" xmlns:xlink="http://www.w3.org/1999/xlink" x="0px" y="0px"
	 width="56px" height="37.101px" viewBox="0 0 56 37.101" enable-background="new 0 0 56 37.101" xml:space="preserve">
<g>
	<path fill="#414142" d="M54.544,23.294H1.456c-0.402,0-0.728-0.326-0.728-0.729s0.325-0.728,0.728-0.728h53.088
		c0.402,0,0.728,0.325,0.728,0.728S54.946,23.294,54.544,23.294z"/>
	<path fill="#414142" d="M54.544,19.814H1.456c-0.402,0-0.728-0.326-0.728-0.729c0-0.402,0.325-0.728,0.728-0.728h53.088
		c0.402,0,0.728,0.326,0.728,0.728C55.271,19.488,54.946,19.814,54.544,19.814z"/>
	<path fill="#414142" d="M54.544,16.334H1.456c-0.402,0-0.728-0.326-0.728-0.728c0-0.402,0.325-0.728,0.728-0.728h53.088
		c0.402,0,0.728,0.326,0.728,0.728C55.271,16.008,54.946,16.334,54.544,16.334z"/>
	<path fill="#414142" d="M54.544,12.854H1.456c-0.402,0-0.728-0.326-0.728-0.728c0-0.402,0.325-0.728,0.728-0.728h53.088
		c0.402,0,0.728,0.326,0.728,0.728C55.271,12.529,54.946,12.854,54.544,12.854z"/>
	<path fill="#414142" d="M54.544,9.375H1.456c-0.402,0-0.728-0.326-0.728-0.728c0-0.402,0.325-0.728,0.728-0.728h53.088
		c0.402,0,0.728,0.326,0.728,0.728C55.271,9.049,54.946,9.375,54.544,9.375z"/>
	<path fill="#414142" d="M54.544,5.895H1.456c-0.402,0-0.728-0.326-0.728-0.728c0-0.402,0.325-0.728,0.728-0.728h53.088
		c0.402,0,0.728,0.326,0.728,0.728C55.271,5.569,54.946,5.895,54.544,5.895z"/>
	<rect x="26.544" y="1.328" fill="#414142" width="2.912" height="34.035"/>
	<path fill="#414142" d="M3.806,37.101L3.806,37.101C1.707,37.101,0,35.394,0,33.295V3.807C0,1.708,1.707,0,3.805,0h48.39
		C54.293,0,56,1.708,56,3.807v29.488c0,2.098-1.707,3.804-3.806,3.804L3.806,37.101z M3.805,2.912c-0.492,0-0.893,0.401-0.893,0.895
		v29.488c0,0.492,0.401,0.894,0.894,0.894l48.389-0.002c0.493,0,0.894-0.4,0.894-0.892V3.807c0-0.493-0.4-0.895-0.894-0.895H3.805z"
		/>
</g>
</svg>
